M48
; DRILL file {KiCad 7.0.9-7.0.9~ubuntu22.04.1} date 2023年12月23日 09時44分37秒
; FORMAT={-:-/ absolute / metric / decimal}
; #@! TF.CreationDate,2023-12-23T09:44:37+09:00
; #@! TF.GenerationSoftware,Kicad,Pcbnew,7.0.9-7.0.9~ubuntu22.04.1
; #@! TF.FileFunction,MixedPlating,1,2
FMAT,2
METRIC
; #@! TA.AperFunction,Plated,PTH,ViaDrill
T1C0.400
; #@! TA.AperFunction,Plated,PTH,ComponentDrill
T2C0.700
; #@! TA.AperFunction,Plated,PTH,ComponentDrill
T3C0.750
; #@! TA.AperFunction,Plated,PTH,ComponentDrill
T4C0.800
; #@! TA.AperFunction,Plated,PTH,ComponentDrill
T5C1.000
; #@! TA.AperFunction,Plated,PTH,ComponentDrill
T6C1.020
; #@! TA.AperFunction,Plated,PTH,ComponentDrill
T7C1.800
; #@! TA.AperFunction,NonPlated,NPTH,ComponentDrill
T8C1.500
; #@! TA.AperFunction,NonPlated,NPTH,ComponentDrill
T9C1.800
%
G90
G05
T1
X119.38Y-78.105
X119.38Y-85.09
X119.38Y-95.25
X121.92Y-88.9
X125.73Y-74.93
X125.73Y-85.09
X125.73Y-95.25
T2
X97.795Y-64.77
X99.065Y-64.77
X100.335Y-64.77
X101.605Y-64.77
T3
X138.43Y-71.13
X138.43Y-72.4
X138.43Y-73.67
X138.43Y-81.29
X138.43Y-82.56
X138.43Y-83.83
X138.43Y-91.45
X138.43Y-92.72
X138.43Y-93.99
T4
X93.98Y-73.66
X93.98Y-83.82
X99.06Y-73.66
X99.06Y-83.82
X104.14Y-73.66
X104.14Y-83.82
X127.08Y-119.38
X132.08Y-119.38
T5
X96.2Y-102.18
X96.2Y-106.68
X96.2Y-114.88
X96.2Y-119.38
X96.52Y-90.17
X96.52Y-94.67
X102.7Y-102.18
X102.7Y-106.68
X102.7Y-114.88
X102.7Y-119.38
X103.02Y-90.17
X103.02Y-94.67
X125.73Y-127.08
X125.73Y-129.58
X125.73Y-132.08
T6
X111.76Y-66.04
X111.76Y-68.58
X111.76Y-71.12
X111.76Y-73.66
X111.76Y-76.2
X111.76Y-78.74
X111.76Y-81.28
X111.76Y-83.82
X111.76Y-86.36
X111.76Y-88.9
X111.76Y-91.44
X111.76Y-93.98
X111.76Y-96.52
X111.76Y-99.06
X111.76Y-101.6
X111.76Y-104.14
X111.76Y-106.68
X111.76Y-109.22
X111.76Y-111.76
X111.76Y-114.3
X118.11Y-114.07
X120.65Y-114.07
X123.19Y-114.07
X129.54Y-66.04
X129.54Y-68.58
X129.54Y-71.12
X129.54Y-73.66
X129.54Y-76.2
X129.54Y-78.74
X129.54Y-81.28
X129.54Y-83.82
X129.54Y-86.36
X129.54Y-88.9
X129.54Y-91.44
X129.54Y-93.98
X129.54Y-96.52
X129.54Y-99.06
X129.54Y-101.6
X129.54Y-104.14
X129.54Y-106.68
X129.54Y-109.22
X129.54Y-111.76
X129.54Y-114.3
T8
X118.225Y-69.2
X123.075Y-69.2
T9
X117.925Y-66.17
X123.375Y-66.17
T7
G00X118.88Y-125.18
M15
G01X118.58Y-125.18
M16
G05
G00X118.88Y-133.98
M15
G01X118.58Y-133.98
M16
G05
T0
M30
