G04 #@! TF.GenerationSoftware,KiCad,Pcbnew,7.0.9-7.0.9~ubuntu22.04.1*
G04 #@! TF.CreationDate,2023-12-23T09:44:42+09:00*
G04 #@! TF.ProjectId,Akashi-18,416b6173-6869-42d3-9138-2e6b69636164,rev?*
G04 #@! TF.SameCoordinates,Original*
G04 #@! TF.FileFunction,Legend,Top*
G04 #@! TF.FilePolarity,Positive*
%FSLAX46Y46*%
G04 Gerber Fmt 4.6, Leading zero omitted, Abs format (unit mm)*
G04 Created by KiCad (PCBNEW 7.0.9-7.0.9~ubuntu22.04.1) date 2023-12-23 09:44:42*
%MOMM*%
%LPD*%
G01*
G04 APERTURE LIST*
%ADD10C,0.200000*%
%ADD11C,0.150000*%
%ADD12C,0.120000*%
G04 APERTURE END LIST*
D10*
X106837257Y-124293006D02*
X107408685Y-123893006D01*
X106837257Y-123607292D02*
X108037257Y-123607292D01*
X108037257Y-123607292D02*
X108037257Y-124064435D01*
X108037257Y-124064435D02*
X107980114Y-124178720D01*
X107980114Y-124178720D02*
X107922971Y-124235863D01*
X107922971Y-124235863D02*
X107808685Y-124293006D01*
X107808685Y-124293006D02*
X107637257Y-124293006D01*
X107637257Y-124293006D02*
X107522971Y-124235863D01*
X107522971Y-124235863D02*
X107465828Y-124178720D01*
X107465828Y-124178720D02*
X107408685Y-124064435D01*
X107408685Y-124064435D02*
X107408685Y-123607292D01*
X108037257Y-124635863D02*
X106837257Y-125035863D01*
X106837257Y-125035863D02*
X108037257Y-125435863D01*
X106837257Y-126464434D02*
X106837257Y-125778720D01*
X106837257Y-126121577D02*
X108037257Y-126121577D01*
X108037257Y-126121577D02*
X107865828Y-126007291D01*
X107865828Y-126007291D02*
X107751542Y-125893006D01*
X107751542Y-125893006D02*
X107694400Y-125778720D01*
X106951542Y-127893006D02*
X106894400Y-127950149D01*
X106894400Y-127950149D02*
X106837257Y-127893006D01*
X106837257Y-127893006D02*
X106894400Y-127835863D01*
X106894400Y-127835863D02*
X106951542Y-127893006D01*
X106951542Y-127893006D02*
X106837257Y-127893006D01*
X107580114Y-127893006D02*
X107522971Y-127950149D01*
X107522971Y-127950149D02*
X107465828Y-127893006D01*
X107465828Y-127893006D02*
X107522971Y-127835863D01*
X107522971Y-127835863D02*
X107580114Y-127893006D01*
X107580114Y-127893006D02*
X107465828Y-127893006D01*
X107980114Y-130007292D02*
X108037257Y-129893007D01*
X108037257Y-129893007D02*
X108037257Y-129721578D01*
X108037257Y-129721578D02*
X107980114Y-129550149D01*
X107980114Y-129550149D02*
X107865828Y-129435864D01*
X107865828Y-129435864D02*
X107751542Y-129378721D01*
X107751542Y-129378721D02*
X107522971Y-129321578D01*
X107522971Y-129321578D02*
X107351542Y-129321578D01*
X107351542Y-129321578D02*
X107122971Y-129378721D01*
X107122971Y-129378721D02*
X107008685Y-129435864D01*
X107008685Y-129435864D02*
X106894400Y-129550149D01*
X106894400Y-129550149D02*
X106837257Y-129721578D01*
X106837257Y-129721578D02*
X106837257Y-129835864D01*
X106837257Y-129835864D02*
X106894400Y-130007292D01*
X106894400Y-130007292D02*
X106951542Y-130064435D01*
X106951542Y-130064435D02*
X107351542Y-130064435D01*
X107351542Y-130064435D02*
X107351542Y-129835864D01*
X106837257Y-130578721D02*
X108037257Y-130578721D01*
X108037257Y-130578721D02*
X108037257Y-131035864D01*
X108037257Y-131035864D02*
X107980114Y-131150149D01*
X107980114Y-131150149D02*
X107922971Y-131207292D01*
X107922971Y-131207292D02*
X107808685Y-131264435D01*
X107808685Y-131264435D02*
X107637257Y-131264435D01*
X107637257Y-131264435D02*
X107522971Y-131207292D01*
X107522971Y-131207292D02*
X107465828Y-131150149D01*
X107465828Y-131150149D02*
X107408685Y-131035864D01*
X107408685Y-131035864D02*
X107408685Y-130578721D01*
X107922971Y-131721578D02*
X107980114Y-131778721D01*
X107980114Y-131778721D02*
X108037257Y-131893007D01*
X108037257Y-131893007D02*
X108037257Y-132178721D01*
X108037257Y-132178721D02*
X107980114Y-132293007D01*
X107980114Y-132293007D02*
X107922971Y-132350149D01*
X107922971Y-132350149D02*
X107808685Y-132407292D01*
X107808685Y-132407292D02*
X107694400Y-132407292D01*
X107694400Y-132407292D02*
X107522971Y-132350149D01*
X107522971Y-132350149D02*
X106837257Y-131664435D01*
X106837257Y-131664435D02*
X106837257Y-132407292D01*
X108037257Y-133435864D02*
X108037257Y-133207292D01*
X108037257Y-133207292D02*
X107980114Y-133093006D01*
X107980114Y-133093006D02*
X107922971Y-133035864D01*
X107922971Y-133035864D02*
X107751542Y-132921578D01*
X107751542Y-132921578D02*
X107522971Y-132864435D01*
X107522971Y-132864435D02*
X107065828Y-132864435D01*
X107065828Y-132864435D02*
X106951542Y-132921578D01*
X106951542Y-132921578D02*
X106894400Y-132978721D01*
X106894400Y-132978721D02*
X106837257Y-133093006D01*
X106837257Y-133093006D02*
X106837257Y-133321578D01*
X106837257Y-133321578D02*
X106894400Y-133435864D01*
X106894400Y-133435864D02*
X106951542Y-133493006D01*
X106951542Y-133493006D02*
X107065828Y-133550149D01*
X107065828Y-133550149D02*
X107351542Y-133550149D01*
X107351542Y-133550149D02*
X107465828Y-133493006D01*
X107465828Y-133493006D02*
X107522971Y-133435864D01*
X107522971Y-133435864D02*
X107580114Y-133321578D01*
X107580114Y-133321578D02*
X107580114Y-133093006D01*
X107580114Y-133093006D02*
X107522971Y-132978721D01*
X107522971Y-132978721D02*
X107465828Y-132921578D01*
X107465828Y-132921578D02*
X107351542Y-132864435D01*
X108094400Y-134921578D02*
X106551542Y-133893006D01*
X107180114Y-135264435D02*
X107180114Y-135835864D01*
X106837257Y-135150149D02*
X108037257Y-135550149D01*
X108037257Y-135550149D02*
X106837257Y-135950149D01*
X106837257Y-136350149D02*
X108037257Y-136350149D01*
X108037257Y-136350149D02*
X108037257Y-136635863D01*
X108037257Y-136635863D02*
X107980114Y-136807292D01*
X107980114Y-136807292D02*
X107865828Y-136921577D01*
X107865828Y-136921577D02*
X107751542Y-136978720D01*
X107751542Y-136978720D02*
X107522971Y-137035863D01*
X107522971Y-137035863D02*
X107351542Y-137035863D01*
X107351542Y-137035863D02*
X107122971Y-136978720D01*
X107122971Y-136978720D02*
X107008685Y-136921577D01*
X107008685Y-136921577D02*
X106894400Y-136807292D01*
X106894400Y-136807292D02*
X106837257Y-136635863D01*
X106837257Y-136635863D02*
X106837257Y-136350149D01*
X106951542Y-138235863D02*
X106894400Y-138178720D01*
X106894400Y-138178720D02*
X106837257Y-138007292D01*
X106837257Y-138007292D02*
X106837257Y-137893006D01*
X106837257Y-137893006D02*
X106894400Y-137721577D01*
X106894400Y-137721577D02*
X107008685Y-137607292D01*
X107008685Y-137607292D02*
X107122971Y-137550149D01*
X107122971Y-137550149D02*
X107351542Y-137493006D01*
X107351542Y-137493006D02*
X107522971Y-137493006D01*
X107522971Y-137493006D02*
X107751542Y-137550149D01*
X107751542Y-137550149D02*
X107865828Y-137607292D01*
X107865828Y-137607292D02*
X107980114Y-137721577D01*
X107980114Y-137721577D02*
X108037257Y-137893006D01*
X108037257Y-137893006D02*
X108037257Y-138007292D01*
X108037257Y-138007292D02*
X107980114Y-138178720D01*
X107980114Y-138178720D02*
X107922971Y-138235863D01*
X108037257Y-138978720D02*
X108037257Y-139093006D01*
X108037257Y-139093006D02*
X107980114Y-139207292D01*
X107980114Y-139207292D02*
X107922971Y-139264435D01*
X107922971Y-139264435D02*
X107808685Y-139321577D01*
X107808685Y-139321577D02*
X107580114Y-139378720D01*
X107580114Y-139378720D02*
X107294400Y-139378720D01*
X107294400Y-139378720D02*
X107065828Y-139321577D01*
X107065828Y-139321577D02*
X106951542Y-139264435D01*
X106951542Y-139264435D02*
X106894400Y-139207292D01*
X106894400Y-139207292D02*
X106837257Y-139093006D01*
X106837257Y-139093006D02*
X106837257Y-138978720D01*
X106837257Y-138978720D02*
X106894400Y-138864435D01*
X106894400Y-138864435D02*
X106951542Y-138807292D01*
X106951542Y-138807292D02*
X107065828Y-138750149D01*
X107065828Y-138750149D02*
X107294400Y-138693006D01*
X107294400Y-138693006D02*
X107580114Y-138693006D01*
X107580114Y-138693006D02*
X107808685Y-138750149D01*
X107808685Y-138750149D02*
X107922971Y-138807292D01*
X107922971Y-138807292D02*
X107980114Y-138864435D01*
X107980114Y-138864435D02*
X108037257Y-138978720D01*
X109431257Y-55078006D02*
X110002685Y-54678006D01*
X109431257Y-54392292D02*
X110631257Y-54392292D01*
X110631257Y-54392292D02*
X110631257Y-54849435D01*
X110631257Y-54849435D02*
X110574114Y-54963720D01*
X110574114Y-54963720D02*
X110516971Y-55020863D01*
X110516971Y-55020863D02*
X110402685Y-55078006D01*
X110402685Y-55078006D02*
X110231257Y-55078006D01*
X110231257Y-55078006D02*
X110116971Y-55020863D01*
X110116971Y-55020863D02*
X110059828Y-54963720D01*
X110059828Y-54963720D02*
X110002685Y-54849435D01*
X110002685Y-54849435D02*
X110002685Y-54392292D01*
X109545542Y-56506578D02*
X109488400Y-56563721D01*
X109488400Y-56563721D02*
X109431257Y-56506578D01*
X109431257Y-56506578D02*
X109488400Y-56449435D01*
X109488400Y-56449435D02*
X109545542Y-56506578D01*
X109545542Y-56506578D02*
X109431257Y-56506578D01*
X110174114Y-56506578D02*
X110116971Y-56563721D01*
X110116971Y-56563721D02*
X110059828Y-56506578D01*
X110059828Y-56506578D02*
X110116971Y-56449435D01*
X110116971Y-56449435D02*
X110174114Y-56506578D01*
X110174114Y-56506578D02*
X110059828Y-56506578D01*
X110574114Y-58620864D02*
X110631257Y-58506579D01*
X110631257Y-58506579D02*
X110631257Y-58335150D01*
X110631257Y-58335150D02*
X110574114Y-58163721D01*
X110574114Y-58163721D02*
X110459828Y-58049436D01*
X110459828Y-58049436D02*
X110345542Y-57992293D01*
X110345542Y-57992293D02*
X110116971Y-57935150D01*
X110116971Y-57935150D02*
X109945542Y-57935150D01*
X109945542Y-57935150D02*
X109716971Y-57992293D01*
X109716971Y-57992293D02*
X109602685Y-58049436D01*
X109602685Y-58049436D02*
X109488400Y-58163721D01*
X109488400Y-58163721D02*
X109431257Y-58335150D01*
X109431257Y-58335150D02*
X109431257Y-58449436D01*
X109431257Y-58449436D02*
X109488400Y-58620864D01*
X109488400Y-58620864D02*
X109545542Y-58678007D01*
X109545542Y-58678007D02*
X109945542Y-58678007D01*
X109945542Y-58678007D02*
X109945542Y-58449436D01*
X109431257Y-59192293D02*
X110631257Y-59192293D01*
X110631257Y-59192293D02*
X110631257Y-59649436D01*
X110631257Y-59649436D02*
X110574114Y-59763721D01*
X110574114Y-59763721D02*
X110516971Y-59820864D01*
X110516971Y-59820864D02*
X110402685Y-59878007D01*
X110402685Y-59878007D02*
X110231257Y-59878007D01*
X110231257Y-59878007D02*
X110116971Y-59820864D01*
X110116971Y-59820864D02*
X110059828Y-59763721D01*
X110059828Y-59763721D02*
X110002685Y-59649436D01*
X110002685Y-59649436D02*
X110002685Y-59192293D01*
X110516971Y-60335150D02*
X110574114Y-60392293D01*
X110574114Y-60392293D02*
X110631257Y-60506579D01*
X110631257Y-60506579D02*
X110631257Y-60792293D01*
X110631257Y-60792293D02*
X110574114Y-60906579D01*
X110574114Y-60906579D02*
X110516971Y-60963721D01*
X110516971Y-60963721D02*
X110402685Y-61020864D01*
X110402685Y-61020864D02*
X110288400Y-61020864D01*
X110288400Y-61020864D02*
X110116971Y-60963721D01*
X110116971Y-60963721D02*
X109431257Y-60278007D01*
X109431257Y-60278007D02*
X109431257Y-61020864D01*
X110631257Y-61763721D02*
X110631257Y-61878007D01*
X110631257Y-61878007D02*
X110574114Y-61992293D01*
X110574114Y-61992293D02*
X110516971Y-62049436D01*
X110516971Y-62049436D02*
X110402685Y-62106578D01*
X110402685Y-62106578D02*
X110174114Y-62163721D01*
X110174114Y-62163721D02*
X109888400Y-62163721D01*
X109888400Y-62163721D02*
X109659828Y-62106578D01*
X109659828Y-62106578D02*
X109545542Y-62049436D01*
X109545542Y-62049436D02*
X109488400Y-61992293D01*
X109488400Y-61992293D02*
X109431257Y-61878007D01*
X109431257Y-61878007D02*
X109431257Y-61763721D01*
X109431257Y-61763721D02*
X109488400Y-61649436D01*
X109488400Y-61649436D02*
X109545542Y-61592293D01*
X109545542Y-61592293D02*
X109659828Y-61535150D01*
X109659828Y-61535150D02*
X109888400Y-61478007D01*
X109888400Y-61478007D02*
X110174114Y-61478007D01*
X110174114Y-61478007D02*
X110402685Y-61535150D01*
X110402685Y-61535150D02*
X110516971Y-61592293D01*
X110516971Y-61592293D02*
X110574114Y-61649436D01*
X110574114Y-61649436D02*
X110631257Y-61763721D01*
X108642114Y-55020863D02*
X108699257Y-54906578D01*
X108699257Y-54906578D02*
X108699257Y-54735149D01*
X108699257Y-54735149D02*
X108642114Y-54563720D01*
X108642114Y-54563720D02*
X108527828Y-54449435D01*
X108527828Y-54449435D02*
X108413542Y-54392292D01*
X108413542Y-54392292D02*
X108184971Y-54335149D01*
X108184971Y-54335149D02*
X108013542Y-54335149D01*
X108013542Y-54335149D02*
X107784971Y-54392292D01*
X107784971Y-54392292D02*
X107670685Y-54449435D01*
X107670685Y-54449435D02*
X107556400Y-54563720D01*
X107556400Y-54563720D02*
X107499257Y-54735149D01*
X107499257Y-54735149D02*
X107499257Y-54849435D01*
X107499257Y-54849435D02*
X107556400Y-55020863D01*
X107556400Y-55020863D02*
X107613542Y-55078006D01*
X107613542Y-55078006D02*
X108013542Y-55078006D01*
X108013542Y-55078006D02*
X108013542Y-54849435D01*
X107613542Y-56506578D02*
X107556400Y-56563721D01*
X107556400Y-56563721D02*
X107499257Y-56506578D01*
X107499257Y-56506578D02*
X107556400Y-56449435D01*
X107556400Y-56449435D02*
X107613542Y-56506578D01*
X107613542Y-56506578D02*
X107499257Y-56506578D01*
X108242114Y-56506578D02*
X108184971Y-56563721D01*
X108184971Y-56563721D02*
X108127828Y-56506578D01*
X108127828Y-56506578D02*
X108184971Y-56449435D01*
X108184971Y-56449435D02*
X108242114Y-56506578D01*
X108242114Y-56506578D02*
X108127828Y-56506578D01*
X108642114Y-58620864D02*
X108699257Y-58506579D01*
X108699257Y-58506579D02*
X108699257Y-58335150D01*
X108699257Y-58335150D02*
X108642114Y-58163721D01*
X108642114Y-58163721D02*
X108527828Y-58049436D01*
X108527828Y-58049436D02*
X108413542Y-57992293D01*
X108413542Y-57992293D02*
X108184971Y-57935150D01*
X108184971Y-57935150D02*
X108013542Y-57935150D01*
X108013542Y-57935150D02*
X107784971Y-57992293D01*
X107784971Y-57992293D02*
X107670685Y-58049436D01*
X107670685Y-58049436D02*
X107556400Y-58163721D01*
X107556400Y-58163721D02*
X107499257Y-58335150D01*
X107499257Y-58335150D02*
X107499257Y-58449436D01*
X107499257Y-58449436D02*
X107556400Y-58620864D01*
X107556400Y-58620864D02*
X107613542Y-58678007D01*
X107613542Y-58678007D02*
X108013542Y-58678007D01*
X108013542Y-58678007D02*
X108013542Y-58449436D01*
X107499257Y-59192293D02*
X108699257Y-59192293D01*
X108699257Y-59192293D02*
X108699257Y-59649436D01*
X108699257Y-59649436D02*
X108642114Y-59763721D01*
X108642114Y-59763721D02*
X108584971Y-59820864D01*
X108584971Y-59820864D02*
X108470685Y-59878007D01*
X108470685Y-59878007D02*
X108299257Y-59878007D01*
X108299257Y-59878007D02*
X108184971Y-59820864D01*
X108184971Y-59820864D02*
X108127828Y-59763721D01*
X108127828Y-59763721D02*
X108070685Y-59649436D01*
X108070685Y-59649436D02*
X108070685Y-59192293D01*
X108584971Y-60335150D02*
X108642114Y-60392293D01*
X108642114Y-60392293D02*
X108699257Y-60506579D01*
X108699257Y-60506579D02*
X108699257Y-60792293D01*
X108699257Y-60792293D02*
X108642114Y-60906579D01*
X108642114Y-60906579D02*
X108584971Y-60963721D01*
X108584971Y-60963721D02*
X108470685Y-61020864D01*
X108470685Y-61020864D02*
X108356400Y-61020864D01*
X108356400Y-61020864D02*
X108184971Y-60963721D01*
X108184971Y-60963721D02*
X107499257Y-60278007D01*
X107499257Y-60278007D02*
X107499257Y-61020864D01*
X107499257Y-62163721D02*
X107499257Y-61478007D01*
X107499257Y-61820864D02*
X108699257Y-61820864D01*
X108699257Y-61820864D02*
X108527828Y-61706578D01*
X108527828Y-61706578D02*
X108413542Y-61592293D01*
X108413542Y-61592293D02*
X108356400Y-61478007D01*
X106195828Y-54792292D02*
X106138685Y-54963720D01*
X106138685Y-54963720D02*
X106081542Y-55020863D01*
X106081542Y-55020863D02*
X105967257Y-55078006D01*
X105967257Y-55078006D02*
X105795828Y-55078006D01*
X105795828Y-55078006D02*
X105681542Y-55020863D01*
X105681542Y-55020863D02*
X105624400Y-54963720D01*
X105624400Y-54963720D02*
X105567257Y-54849435D01*
X105567257Y-54849435D02*
X105567257Y-54392292D01*
X105567257Y-54392292D02*
X106767257Y-54392292D01*
X106767257Y-54392292D02*
X106767257Y-54792292D01*
X106767257Y-54792292D02*
X106710114Y-54906578D01*
X106710114Y-54906578D02*
X106652971Y-54963720D01*
X106652971Y-54963720D02*
X106538685Y-55020863D01*
X106538685Y-55020863D02*
X106424400Y-55020863D01*
X106424400Y-55020863D02*
X106310114Y-54963720D01*
X106310114Y-54963720D02*
X106252971Y-54906578D01*
X106252971Y-54906578D02*
X106195828Y-54792292D01*
X106195828Y-54792292D02*
X106195828Y-54392292D01*
X105681542Y-56506578D02*
X105624400Y-56563721D01*
X105624400Y-56563721D02*
X105567257Y-56506578D01*
X105567257Y-56506578D02*
X105624400Y-56449435D01*
X105624400Y-56449435D02*
X105681542Y-56506578D01*
X105681542Y-56506578D02*
X105567257Y-56506578D01*
X106310114Y-56506578D02*
X106252971Y-56563721D01*
X106252971Y-56563721D02*
X106195828Y-56506578D01*
X106195828Y-56506578D02*
X106252971Y-56449435D01*
X106252971Y-56449435D02*
X106310114Y-56506578D01*
X106310114Y-56506578D02*
X106195828Y-56506578D01*
X106710114Y-58620864D02*
X106767257Y-58506579D01*
X106767257Y-58506579D02*
X106767257Y-58335150D01*
X106767257Y-58335150D02*
X106710114Y-58163721D01*
X106710114Y-58163721D02*
X106595828Y-58049436D01*
X106595828Y-58049436D02*
X106481542Y-57992293D01*
X106481542Y-57992293D02*
X106252971Y-57935150D01*
X106252971Y-57935150D02*
X106081542Y-57935150D01*
X106081542Y-57935150D02*
X105852971Y-57992293D01*
X105852971Y-57992293D02*
X105738685Y-58049436D01*
X105738685Y-58049436D02*
X105624400Y-58163721D01*
X105624400Y-58163721D02*
X105567257Y-58335150D01*
X105567257Y-58335150D02*
X105567257Y-58449436D01*
X105567257Y-58449436D02*
X105624400Y-58620864D01*
X105624400Y-58620864D02*
X105681542Y-58678007D01*
X105681542Y-58678007D02*
X106081542Y-58678007D01*
X106081542Y-58678007D02*
X106081542Y-58449436D01*
X105567257Y-59192293D02*
X106767257Y-59192293D01*
X106767257Y-59192293D02*
X106767257Y-59649436D01*
X106767257Y-59649436D02*
X106710114Y-59763721D01*
X106710114Y-59763721D02*
X106652971Y-59820864D01*
X106652971Y-59820864D02*
X106538685Y-59878007D01*
X106538685Y-59878007D02*
X106367257Y-59878007D01*
X106367257Y-59878007D02*
X106252971Y-59820864D01*
X106252971Y-59820864D02*
X106195828Y-59763721D01*
X106195828Y-59763721D02*
X106138685Y-59649436D01*
X106138685Y-59649436D02*
X106138685Y-59192293D01*
X106652971Y-60335150D02*
X106710114Y-60392293D01*
X106710114Y-60392293D02*
X106767257Y-60506579D01*
X106767257Y-60506579D02*
X106767257Y-60792293D01*
X106767257Y-60792293D02*
X106710114Y-60906579D01*
X106710114Y-60906579D02*
X106652971Y-60963721D01*
X106652971Y-60963721D02*
X106538685Y-61020864D01*
X106538685Y-61020864D02*
X106424400Y-61020864D01*
X106424400Y-61020864D02*
X106252971Y-60963721D01*
X106252971Y-60963721D02*
X105567257Y-60278007D01*
X105567257Y-60278007D02*
X105567257Y-61020864D01*
X106652971Y-61478007D02*
X106710114Y-61535150D01*
X106710114Y-61535150D02*
X106767257Y-61649436D01*
X106767257Y-61649436D02*
X106767257Y-61935150D01*
X106767257Y-61935150D02*
X106710114Y-62049436D01*
X106710114Y-62049436D02*
X106652971Y-62106578D01*
X106652971Y-62106578D02*
X106538685Y-62163721D01*
X106538685Y-62163721D02*
X106424400Y-62163721D01*
X106424400Y-62163721D02*
X106252971Y-62106578D01*
X106252971Y-62106578D02*
X105567257Y-61420864D01*
X105567257Y-61420864D02*
X105567257Y-62163721D01*
X100598400Y-124820149D02*
X100541257Y-124991578D01*
X100541257Y-124991578D02*
X100541257Y-125277292D01*
X100541257Y-125277292D02*
X100598400Y-125391578D01*
X100598400Y-125391578D02*
X100655542Y-125448720D01*
X100655542Y-125448720D02*
X100769828Y-125505863D01*
X100769828Y-125505863D02*
X100884114Y-125505863D01*
X100884114Y-125505863D02*
X100998400Y-125448720D01*
X100998400Y-125448720D02*
X101055542Y-125391578D01*
X101055542Y-125391578D02*
X101112685Y-125277292D01*
X101112685Y-125277292D02*
X101169828Y-125048720D01*
X101169828Y-125048720D02*
X101226971Y-124934435D01*
X101226971Y-124934435D02*
X101284114Y-124877292D01*
X101284114Y-124877292D02*
X101398400Y-124820149D01*
X101398400Y-124820149D02*
X101512685Y-124820149D01*
X101512685Y-124820149D02*
X101626971Y-124877292D01*
X101626971Y-124877292D02*
X101684114Y-124934435D01*
X101684114Y-124934435D02*
X101741257Y-125048720D01*
X101741257Y-125048720D02*
X101741257Y-125334435D01*
X101741257Y-125334435D02*
X101684114Y-125505863D01*
X101741257Y-125905863D02*
X100541257Y-126191577D01*
X100541257Y-126191577D02*
X101398400Y-126420149D01*
X101398400Y-126420149D02*
X100541257Y-126648720D01*
X100541257Y-126648720D02*
X101741257Y-126934435D01*
X100541257Y-128020149D02*
X100541257Y-127334435D01*
X100541257Y-127677292D02*
X101741257Y-127677292D01*
X101741257Y-127677292D02*
X101569828Y-127563006D01*
X101569828Y-127563006D02*
X101455542Y-127448721D01*
X101455542Y-127448721D02*
X101398400Y-127334435D01*
X100655542Y-129448721D02*
X100598400Y-129505864D01*
X100598400Y-129505864D02*
X100541257Y-129448721D01*
X100541257Y-129448721D02*
X100598400Y-129391578D01*
X100598400Y-129391578D02*
X100655542Y-129448721D01*
X100655542Y-129448721D02*
X100541257Y-129448721D01*
X101284114Y-129448721D02*
X101226971Y-129505864D01*
X101226971Y-129505864D02*
X101169828Y-129448721D01*
X101169828Y-129448721D02*
X101226971Y-129391578D01*
X101226971Y-129391578D02*
X101284114Y-129448721D01*
X101284114Y-129448721D02*
X101169828Y-129448721D01*
X101684114Y-131563007D02*
X101741257Y-131448722D01*
X101741257Y-131448722D02*
X101741257Y-131277293D01*
X101741257Y-131277293D02*
X101684114Y-131105864D01*
X101684114Y-131105864D02*
X101569828Y-130991579D01*
X101569828Y-130991579D02*
X101455542Y-130934436D01*
X101455542Y-130934436D02*
X101226971Y-130877293D01*
X101226971Y-130877293D02*
X101055542Y-130877293D01*
X101055542Y-130877293D02*
X100826971Y-130934436D01*
X100826971Y-130934436D02*
X100712685Y-130991579D01*
X100712685Y-130991579D02*
X100598400Y-131105864D01*
X100598400Y-131105864D02*
X100541257Y-131277293D01*
X100541257Y-131277293D02*
X100541257Y-131391579D01*
X100541257Y-131391579D02*
X100598400Y-131563007D01*
X100598400Y-131563007D02*
X100655542Y-131620150D01*
X100655542Y-131620150D02*
X101055542Y-131620150D01*
X101055542Y-131620150D02*
X101055542Y-131391579D01*
X100541257Y-132134436D02*
X101741257Y-132134436D01*
X101741257Y-132134436D02*
X101741257Y-132591579D01*
X101741257Y-132591579D02*
X101684114Y-132705864D01*
X101684114Y-132705864D02*
X101626971Y-132763007D01*
X101626971Y-132763007D02*
X101512685Y-132820150D01*
X101512685Y-132820150D02*
X101341257Y-132820150D01*
X101341257Y-132820150D02*
X101226971Y-132763007D01*
X101226971Y-132763007D02*
X101169828Y-132705864D01*
X101169828Y-132705864D02*
X101112685Y-132591579D01*
X101112685Y-132591579D02*
X101112685Y-132134436D01*
X100541257Y-133963007D02*
X100541257Y-133277293D01*
X100541257Y-133620150D02*
X101741257Y-133620150D01*
X101741257Y-133620150D02*
X101569828Y-133505864D01*
X101569828Y-133505864D02*
X101455542Y-133391579D01*
X101455542Y-133391579D02*
X101398400Y-133277293D01*
X100541257Y-135105864D02*
X100541257Y-134420150D01*
X100541257Y-134763007D02*
X101741257Y-134763007D01*
X101741257Y-134763007D02*
X101569828Y-134648721D01*
X101569828Y-134648721D02*
X101455542Y-134534436D01*
X101455542Y-134534436D02*
X101398400Y-134420150D01*
X98666400Y-124820149D02*
X98609257Y-124991578D01*
X98609257Y-124991578D02*
X98609257Y-125277292D01*
X98609257Y-125277292D02*
X98666400Y-125391578D01*
X98666400Y-125391578D02*
X98723542Y-125448720D01*
X98723542Y-125448720D02*
X98837828Y-125505863D01*
X98837828Y-125505863D02*
X98952114Y-125505863D01*
X98952114Y-125505863D02*
X99066400Y-125448720D01*
X99066400Y-125448720D02*
X99123542Y-125391578D01*
X99123542Y-125391578D02*
X99180685Y-125277292D01*
X99180685Y-125277292D02*
X99237828Y-125048720D01*
X99237828Y-125048720D02*
X99294971Y-124934435D01*
X99294971Y-124934435D02*
X99352114Y-124877292D01*
X99352114Y-124877292D02*
X99466400Y-124820149D01*
X99466400Y-124820149D02*
X99580685Y-124820149D01*
X99580685Y-124820149D02*
X99694971Y-124877292D01*
X99694971Y-124877292D02*
X99752114Y-124934435D01*
X99752114Y-124934435D02*
X99809257Y-125048720D01*
X99809257Y-125048720D02*
X99809257Y-125334435D01*
X99809257Y-125334435D02*
X99752114Y-125505863D01*
X99809257Y-125905863D02*
X98609257Y-126191577D01*
X98609257Y-126191577D02*
X99466400Y-126420149D01*
X99466400Y-126420149D02*
X98609257Y-126648720D01*
X98609257Y-126648720D02*
X99809257Y-126934435D01*
X99694971Y-127334435D02*
X99752114Y-127391578D01*
X99752114Y-127391578D02*
X99809257Y-127505864D01*
X99809257Y-127505864D02*
X99809257Y-127791578D01*
X99809257Y-127791578D02*
X99752114Y-127905864D01*
X99752114Y-127905864D02*
X99694971Y-127963006D01*
X99694971Y-127963006D02*
X99580685Y-128020149D01*
X99580685Y-128020149D02*
X99466400Y-128020149D01*
X99466400Y-128020149D02*
X99294971Y-127963006D01*
X99294971Y-127963006D02*
X98609257Y-127277292D01*
X98609257Y-127277292D02*
X98609257Y-128020149D01*
X98723542Y-129448721D02*
X98666400Y-129505864D01*
X98666400Y-129505864D02*
X98609257Y-129448721D01*
X98609257Y-129448721D02*
X98666400Y-129391578D01*
X98666400Y-129391578D02*
X98723542Y-129448721D01*
X98723542Y-129448721D02*
X98609257Y-129448721D01*
X99352114Y-129448721D02*
X99294971Y-129505864D01*
X99294971Y-129505864D02*
X99237828Y-129448721D01*
X99237828Y-129448721D02*
X99294971Y-129391578D01*
X99294971Y-129391578D02*
X99352114Y-129448721D01*
X99352114Y-129448721D02*
X99237828Y-129448721D01*
X99752114Y-131563007D02*
X99809257Y-131448722D01*
X99809257Y-131448722D02*
X99809257Y-131277293D01*
X99809257Y-131277293D02*
X99752114Y-131105864D01*
X99752114Y-131105864D02*
X99637828Y-130991579D01*
X99637828Y-130991579D02*
X99523542Y-130934436D01*
X99523542Y-130934436D02*
X99294971Y-130877293D01*
X99294971Y-130877293D02*
X99123542Y-130877293D01*
X99123542Y-130877293D02*
X98894971Y-130934436D01*
X98894971Y-130934436D02*
X98780685Y-130991579D01*
X98780685Y-130991579D02*
X98666400Y-131105864D01*
X98666400Y-131105864D02*
X98609257Y-131277293D01*
X98609257Y-131277293D02*
X98609257Y-131391579D01*
X98609257Y-131391579D02*
X98666400Y-131563007D01*
X98666400Y-131563007D02*
X98723542Y-131620150D01*
X98723542Y-131620150D02*
X99123542Y-131620150D01*
X99123542Y-131620150D02*
X99123542Y-131391579D01*
X98609257Y-132134436D02*
X99809257Y-132134436D01*
X99809257Y-132134436D02*
X99809257Y-132591579D01*
X99809257Y-132591579D02*
X99752114Y-132705864D01*
X99752114Y-132705864D02*
X99694971Y-132763007D01*
X99694971Y-132763007D02*
X99580685Y-132820150D01*
X99580685Y-132820150D02*
X99409257Y-132820150D01*
X99409257Y-132820150D02*
X99294971Y-132763007D01*
X99294971Y-132763007D02*
X99237828Y-132705864D01*
X99237828Y-132705864D02*
X99180685Y-132591579D01*
X99180685Y-132591579D02*
X99180685Y-132134436D01*
X98609257Y-133963007D02*
X98609257Y-133277293D01*
X98609257Y-133620150D02*
X99809257Y-133620150D01*
X99809257Y-133620150D02*
X99637828Y-133505864D01*
X99637828Y-133505864D02*
X99523542Y-133391579D01*
X99523542Y-133391579D02*
X99466400Y-133277293D01*
X99694971Y-134420150D02*
X99752114Y-134477293D01*
X99752114Y-134477293D02*
X99809257Y-134591579D01*
X99809257Y-134591579D02*
X99809257Y-134877293D01*
X99809257Y-134877293D02*
X99752114Y-134991579D01*
X99752114Y-134991579D02*
X99694971Y-135048721D01*
X99694971Y-135048721D02*
X99580685Y-135105864D01*
X99580685Y-135105864D02*
X99466400Y-135105864D01*
X99466400Y-135105864D02*
X99294971Y-135048721D01*
X99294971Y-135048721D02*
X98609257Y-134363007D01*
X98609257Y-134363007D02*
X98609257Y-135105864D01*
X96734400Y-124820149D02*
X96677257Y-124991578D01*
X96677257Y-124991578D02*
X96677257Y-125277292D01*
X96677257Y-125277292D02*
X96734400Y-125391578D01*
X96734400Y-125391578D02*
X96791542Y-125448720D01*
X96791542Y-125448720D02*
X96905828Y-125505863D01*
X96905828Y-125505863D02*
X97020114Y-125505863D01*
X97020114Y-125505863D02*
X97134400Y-125448720D01*
X97134400Y-125448720D02*
X97191542Y-125391578D01*
X97191542Y-125391578D02*
X97248685Y-125277292D01*
X97248685Y-125277292D02*
X97305828Y-125048720D01*
X97305828Y-125048720D02*
X97362971Y-124934435D01*
X97362971Y-124934435D02*
X97420114Y-124877292D01*
X97420114Y-124877292D02*
X97534400Y-124820149D01*
X97534400Y-124820149D02*
X97648685Y-124820149D01*
X97648685Y-124820149D02*
X97762971Y-124877292D01*
X97762971Y-124877292D02*
X97820114Y-124934435D01*
X97820114Y-124934435D02*
X97877257Y-125048720D01*
X97877257Y-125048720D02*
X97877257Y-125334435D01*
X97877257Y-125334435D02*
X97820114Y-125505863D01*
X97877257Y-125905863D02*
X96677257Y-126191577D01*
X96677257Y-126191577D02*
X97534400Y-126420149D01*
X97534400Y-126420149D02*
X96677257Y-126648720D01*
X96677257Y-126648720D02*
X97877257Y-126934435D01*
X97877257Y-127277292D02*
X97877257Y-128020149D01*
X97877257Y-128020149D02*
X97420114Y-127620149D01*
X97420114Y-127620149D02*
X97420114Y-127791578D01*
X97420114Y-127791578D02*
X97362971Y-127905864D01*
X97362971Y-127905864D02*
X97305828Y-127963006D01*
X97305828Y-127963006D02*
X97191542Y-128020149D01*
X97191542Y-128020149D02*
X96905828Y-128020149D01*
X96905828Y-128020149D02*
X96791542Y-127963006D01*
X96791542Y-127963006D02*
X96734400Y-127905864D01*
X96734400Y-127905864D02*
X96677257Y-127791578D01*
X96677257Y-127791578D02*
X96677257Y-127448721D01*
X96677257Y-127448721D02*
X96734400Y-127334435D01*
X96734400Y-127334435D02*
X96791542Y-127277292D01*
X96791542Y-129448721D02*
X96734400Y-129505864D01*
X96734400Y-129505864D02*
X96677257Y-129448721D01*
X96677257Y-129448721D02*
X96734400Y-129391578D01*
X96734400Y-129391578D02*
X96791542Y-129448721D01*
X96791542Y-129448721D02*
X96677257Y-129448721D01*
X97420114Y-129448721D02*
X97362971Y-129505864D01*
X97362971Y-129505864D02*
X97305828Y-129448721D01*
X97305828Y-129448721D02*
X97362971Y-129391578D01*
X97362971Y-129391578D02*
X97420114Y-129448721D01*
X97420114Y-129448721D02*
X97305828Y-129448721D01*
X97820114Y-131563007D02*
X97877257Y-131448722D01*
X97877257Y-131448722D02*
X97877257Y-131277293D01*
X97877257Y-131277293D02*
X97820114Y-131105864D01*
X97820114Y-131105864D02*
X97705828Y-130991579D01*
X97705828Y-130991579D02*
X97591542Y-130934436D01*
X97591542Y-130934436D02*
X97362971Y-130877293D01*
X97362971Y-130877293D02*
X97191542Y-130877293D01*
X97191542Y-130877293D02*
X96962971Y-130934436D01*
X96962971Y-130934436D02*
X96848685Y-130991579D01*
X96848685Y-130991579D02*
X96734400Y-131105864D01*
X96734400Y-131105864D02*
X96677257Y-131277293D01*
X96677257Y-131277293D02*
X96677257Y-131391579D01*
X96677257Y-131391579D02*
X96734400Y-131563007D01*
X96734400Y-131563007D02*
X96791542Y-131620150D01*
X96791542Y-131620150D02*
X97191542Y-131620150D01*
X97191542Y-131620150D02*
X97191542Y-131391579D01*
X96677257Y-132134436D02*
X97877257Y-132134436D01*
X97877257Y-132134436D02*
X97877257Y-132591579D01*
X97877257Y-132591579D02*
X97820114Y-132705864D01*
X97820114Y-132705864D02*
X97762971Y-132763007D01*
X97762971Y-132763007D02*
X97648685Y-132820150D01*
X97648685Y-132820150D02*
X97477257Y-132820150D01*
X97477257Y-132820150D02*
X97362971Y-132763007D01*
X97362971Y-132763007D02*
X97305828Y-132705864D01*
X97305828Y-132705864D02*
X97248685Y-132591579D01*
X97248685Y-132591579D02*
X97248685Y-132134436D01*
X96677257Y-133963007D02*
X96677257Y-133277293D01*
X96677257Y-133620150D02*
X97877257Y-133620150D01*
X97877257Y-133620150D02*
X97705828Y-133505864D01*
X97705828Y-133505864D02*
X97591542Y-133391579D01*
X97591542Y-133391579D02*
X97534400Y-133277293D01*
X97877257Y-134363007D02*
X97877257Y-135105864D01*
X97877257Y-135105864D02*
X97420114Y-134705864D01*
X97420114Y-134705864D02*
X97420114Y-134877293D01*
X97420114Y-134877293D02*
X97362971Y-134991579D01*
X97362971Y-134991579D02*
X97305828Y-135048721D01*
X97305828Y-135048721D02*
X97191542Y-135105864D01*
X97191542Y-135105864D02*
X96905828Y-135105864D01*
X96905828Y-135105864D02*
X96791542Y-135048721D01*
X96791542Y-135048721D02*
X96734400Y-134991579D01*
X96734400Y-134991579D02*
X96677257Y-134877293D01*
X96677257Y-134877293D02*
X96677257Y-134534436D01*
X96677257Y-134534436D02*
X96734400Y-134420150D01*
X96734400Y-134420150D02*
X96791542Y-134363007D01*
D11*
X94800180Y-64031905D02*
X95800180Y-64031905D01*
X95800180Y-64031905D02*
X95800180Y-64270000D01*
X95800180Y-64270000D02*
X95752561Y-64412857D01*
X95752561Y-64412857D02*
X95657323Y-64508095D01*
X95657323Y-64508095D02*
X95562085Y-64555714D01*
X95562085Y-64555714D02*
X95371609Y-64603333D01*
X95371609Y-64603333D02*
X95228752Y-64603333D01*
X95228752Y-64603333D02*
X95038276Y-64555714D01*
X95038276Y-64555714D02*
X94943038Y-64508095D01*
X94943038Y-64508095D02*
X94847800Y-64412857D01*
X94847800Y-64412857D02*
X94800180Y-64270000D01*
X94800180Y-64270000D02*
X94800180Y-64031905D01*
X94800180Y-65555714D02*
X94800180Y-64984286D01*
X94800180Y-65270000D02*
X95800180Y-65270000D01*
X95800180Y-65270000D02*
X95657323Y-65174762D01*
X95657323Y-65174762D02*
X95562085Y-65079524D01*
X95562085Y-65079524D02*
X95514466Y-64984286D01*
X101145180Y-74763333D02*
X101621371Y-74430000D01*
X101145180Y-74191905D02*
X102145180Y-74191905D01*
X102145180Y-74191905D02*
X102145180Y-74572857D01*
X102145180Y-74572857D02*
X102097561Y-74668095D01*
X102097561Y-74668095D02*
X102049942Y-74715714D01*
X102049942Y-74715714D02*
X101954704Y-74763333D01*
X101954704Y-74763333D02*
X101811847Y-74763333D01*
X101811847Y-74763333D02*
X101716609Y-74715714D01*
X101716609Y-74715714D02*
X101668990Y-74668095D01*
X101668990Y-74668095D02*
X101621371Y-74572857D01*
X101621371Y-74572857D02*
X101621371Y-74191905D01*
X101145180Y-75715714D02*
X101145180Y-75144286D01*
X101145180Y-75430000D02*
X102145180Y-75430000D01*
X102145180Y-75430000D02*
X102002323Y-75334762D01*
X102002323Y-75334762D02*
X101907085Y-75239524D01*
X101907085Y-75239524D02*
X101859466Y-75144286D01*
X137879942Y-76114761D02*
X137927561Y-76019523D01*
X137927561Y-76019523D02*
X138022800Y-75924285D01*
X138022800Y-75924285D02*
X138165657Y-75781428D01*
X138165657Y-75781428D02*
X138213276Y-75686190D01*
X138213276Y-75686190D02*
X138213276Y-75590952D01*
X137975180Y-75638571D02*
X138022800Y-75543333D01*
X138022800Y-75543333D02*
X138118038Y-75448095D01*
X138118038Y-75448095D02*
X138308514Y-75400476D01*
X138308514Y-75400476D02*
X138641847Y-75400476D01*
X138641847Y-75400476D02*
X138832323Y-75448095D01*
X138832323Y-75448095D02*
X138927561Y-75543333D01*
X138927561Y-75543333D02*
X138975180Y-75638571D01*
X138975180Y-75638571D02*
X138975180Y-75829047D01*
X138975180Y-75829047D02*
X138927561Y-75924285D01*
X138927561Y-75924285D02*
X138832323Y-76019523D01*
X138832323Y-76019523D02*
X138641847Y-76067142D01*
X138641847Y-76067142D02*
X138308514Y-76067142D01*
X138308514Y-76067142D02*
X138118038Y-76019523D01*
X138118038Y-76019523D02*
X138022800Y-75924285D01*
X138022800Y-75924285D02*
X137975180Y-75829047D01*
X137975180Y-75829047D02*
X137975180Y-75638571D01*
X137975180Y-77019523D02*
X137975180Y-76448095D01*
X137975180Y-76733809D02*
X138975180Y-76733809D01*
X138975180Y-76733809D02*
X138832323Y-76638571D01*
X138832323Y-76638571D02*
X138737085Y-76543333D01*
X138737085Y-76543333D02*
X138689466Y-76448095D01*
X90985180Y-74763333D02*
X91461371Y-74430000D01*
X90985180Y-74191905D02*
X91985180Y-74191905D01*
X91985180Y-74191905D02*
X91985180Y-74572857D01*
X91985180Y-74572857D02*
X91937561Y-74668095D01*
X91937561Y-74668095D02*
X91889942Y-74715714D01*
X91889942Y-74715714D02*
X91794704Y-74763333D01*
X91794704Y-74763333D02*
X91651847Y-74763333D01*
X91651847Y-74763333D02*
X91556609Y-74715714D01*
X91556609Y-74715714D02*
X91508990Y-74668095D01*
X91508990Y-74668095D02*
X91461371Y-74572857D01*
X91461371Y-74572857D02*
X91461371Y-74191905D01*
X91985180Y-75096667D02*
X91985180Y-75715714D01*
X91985180Y-75715714D02*
X91604228Y-75382381D01*
X91604228Y-75382381D02*
X91604228Y-75525238D01*
X91604228Y-75525238D02*
X91556609Y-75620476D01*
X91556609Y-75620476D02*
X91508990Y-75668095D01*
X91508990Y-75668095D02*
X91413752Y-75715714D01*
X91413752Y-75715714D02*
X91175657Y-75715714D01*
X91175657Y-75715714D02*
X91080419Y-75668095D01*
X91080419Y-75668095D02*
X91032800Y-75620476D01*
X91032800Y-75620476D02*
X90985180Y-75525238D01*
X90985180Y-75525238D02*
X90985180Y-75239524D01*
X90985180Y-75239524D02*
X91032800Y-75144286D01*
X91032800Y-75144286D02*
X91080419Y-75096667D01*
X137879942Y-86274761D02*
X137927561Y-86179523D01*
X137927561Y-86179523D02*
X138022800Y-86084285D01*
X138022800Y-86084285D02*
X138165657Y-85941428D01*
X138165657Y-85941428D02*
X138213276Y-85846190D01*
X138213276Y-85846190D02*
X138213276Y-85750952D01*
X137975180Y-85798571D02*
X138022800Y-85703333D01*
X138022800Y-85703333D02*
X138118038Y-85608095D01*
X138118038Y-85608095D02*
X138308514Y-85560476D01*
X138308514Y-85560476D02*
X138641847Y-85560476D01*
X138641847Y-85560476D02*
X138832323Y-85608095D01*
X138832323Y-85608095D02*
X138927561Y-85703333D01*
X138927561Y-85703333D02*
X138975180Y-85798571D01*
X138975180Y-85798571D02*
X138975180Y-85989047D01*
X138975180Y-85989047D02*
X138927561Y-86084285D01*
X138927561Y-86084285D02*
X138832323Y-86179523D01*
X138832323Y-86179523D02*
X138641847Y-86227142D01*
X138641847Y-86227142D02*
X138308514Y-86227142D01*
X138308514Y-86227142D02*
X138118038Y-86179523D01*
X138118038Y-86179523D02*
X138022800Y-86084285D01*
X138022800Y-86084285D02*
X137975180Y-85989047D01*
X137975180Y-85989047D02*
X137975180Y-85798571D01*
X138879942Y-86608095D02*
X138927561Y-86655714D01*
X138927561Y-86655714D02*
X138975180Y-86750952D01*
X138975180Y-86750952D02*
X138975180Y-86989047D01*
X138975180Y-86989047D02*
X138927561Y-87084285D01*
X138927561Y-87084285D02*
X138879942Y-87131904D01*
X138879942Y-87131904D02*
X138784704Y-87179523D01*
X138784704Y-87179523D02*
X138689466Y-87179523D01*
X138689466Y-87179523D02*
X138546609Y-87131904D01*
X138546609Y-87131904D02*
X137975180Y-86560476D01*
X137975180Y-86560476D02*
X137975180Y-87179523D01*
X96065180Y-74763333D02*
X96541371Y-74430000D01*
X96065180Y-74191905D02*
X97065180Y-74191905D01*
X97065180Y-74191905D02*
X97065180Y-74572857D01*
X97065180Y-74572857D02*
X97017561Y-74668095D01*
X97017561Y-74668095D02*
X96969942Y-74715714D01*
X96969942Y-74715714D02*
X96874704Y-74763333D01*
X96874704Y-74763333D02*
X96731847Y-74763333D01*
X96731847Y-74763333D02*
X96636609Y-74715714D01*
X96636609Y-74715714D02*
X96588990Y-74668095D01*
X96588990Y-74668095D02*
X96541371Y-74572857D01*
X96541371Y-74572857D02*
X96541371Y-74191905D01*
X96969942Y-75144286D02*
X97017561Y-75191905D01*
X97017561Y-75191905D02*
X97065180Y-75287143D01*
X97065180Y-75287143D02*
X97065180Y-75525238D01*
X97065180Y-75525238D02*
X97017561Y-75620476D01*
X97017561Y-75620476D02*
X96969942Y-75668095D01*
X96969942Y-75668095D02*
X96874704Y-75715714D01*
X96874704Y-75715714D02*
X96779466Y-75715714D01*
X96779466Y-75715714D02*
X96636609Y-75668095D01*
X96636609Y-75668095D02*
X96065180Y-75096667D01*
X96065180Y-75096667D02*
X96065180Y-75715714D01*
X119888095Y-89624819D02*
X119888095Y-90434342D01*
X119888095Y-90434342D02*
X119935714Y-90529580D01*
X119935714Y-90529580D02*
X119983333Y-90577200D01*
X119983333Y-90577200D02*
X120078571Y-90624819D01*
X120078571Y-90624819D02*
X120269047Y-90624819D01*
X120269047Y-90624819D02*
X120364285Y-90577200D01*
X120364285Y-90577200D02*
X120411904Y-90529580D01*
X120411904Y-90529580D02*
X120459523Y-90434342D01*
X120459523Y-90434342D02*
X120459523Y-89624819D01*
X121459523Y-90624819D02*
X120888095Y-90624819D01*
X121173809Y-90624819D02*
X121173809Y-89624819D01*
X121173809Y-89624819D02*
X121078571Y-89767676D01*
X121078571Y-89767676D02*
X120983333Y-89862914D01*
X120983333Y-89862914D02*
X120888095Y-89910533D01*
X132747998Y-89290868D02*
X132667185Y-89317805D01*
X132667185Y-89317805D02*
X132586373Y-89398618D01*
X132586373Y-89398618D02*
X132532498Y-89506367D01*
X132532498Y-89506367D02*
X132532498Y-89614117D01*
X132532498Y-89614117D02*
X132559436Y-89694929D01*
X132559436Y-89694929D02*
X132640248Y-89829616D01*
X132640248Y-89829616D02*
X132721060Y-89910428D01*
X132721060Y-89910428D02*
X132855747Y-89991241D01*
X132855747Y-89991241D02*
X132936560Y-90018178D01*
X132936560Y-90018178D02*
X133044309Y-90018178D01*
X133044309Y-90018178D02*
X133152059Y-89964303D01*
X133152059Y-89964303D02*
X133205934Y-89910428D01*
X133205934Y-89910428D02*
X133259808Y-89802679D01*
X133259808Y-89802679D02*
X133259808Y-89748804D01*
X133259808Y-89748804D02*
X133071247Y-89560242D01*
X133071247Y-89560242D02*
X132963497Y-89667992D01*
X133556120Y-89560242D02*
X132990434Y-88994557D01*
X132990434Y-88994557D02*
X133205934Y-88779057D01*
X133205934Y-88779057D02*
X133286746Y-88752120D01*
X133286746Y-88752120D02*
X133340621Y-88752120D01*
X133340621Y-88752120D02*
X133421433Y-88779057D01*
X133421433Y-88779057D02*
X133502245Y-88859870D01*
X133502245Y-88859870D02*
X133529182Y-88940682D01*
X133529182Y-88940682D02*
X133529182Y-88994557D01*
X133529182Y-88994557D02*
X133502245Y-89075369D01*
X133502245Y-89075369D02*
X133286746Y-89290868D01*
X133583057Y-88509683D02*
X133583057Y-88455809D01*
X133583057Y-88455809D02*
X133609995Y-88374996D01*
X133609995Y-88374996D02*
X133744682Y-88240309D01*
X133744682Y-88240309D02*
X133825494Y-88213372D01*
X133825494Y-88213372D02*
X133879369Y-88213372D01*
X133879369Y-88213372D02*
X133960181Y-88240309D01*
X133960181Y-88240309D02*
X134014056Y-88294184D01*
X134014056Y-88294184D02*
X134067930Y-88401934D01*
X134067930Y-88401934D02*
X134067930Y-89048431D01*
X134067930Y-89048431D02*
X134418117Y-88698245D01*
X134337305Y-87647686D02*
X134229555Y-87755436D01*
X134229555Y-87755436D02*
X134202618Y-87836248D01*
X134202618Y-87836248D02*
X134202618Y-87890123D01*
X134202618Y-87890123D02*
X134229555Y-88024810D01*
X134229555Y-88024810D02*
X134310367Y-88159497D01*
X134310367Y-88159497D02*
X134525866Y-88374996D01*
X134525866Y-88374996D02*
X134606679Y-88401934D01*
X134606679Y-88401934D02*
X134660553Y-88401934D01*
X134660553Y-88401934D02*
X134741366Y-88374996D01*
X134741366Y-88374996D02*
X134849115Y-88267247D01*
X134849115Y-88267247D02*
X134876053Y-88186434D01*
X134876053Y-88186434D02*
X134876053Y-88132560D01*
X134876053Y-88132560D02*
X134849115Y-88051747D01*
X134849115Y-88051747D02*
X134714428Y-87917060D01*
X134714428Y-87917060D02*
X134633616Y-87890123D01*
X134633616Y-87890123D02*
X134579741Y-87890123D01*
X134579741Y-87890123D02*
X134498929Y-87917060D01*
X134498929Y-87917060D02*
X134391179Y-88024810D01*
X134391179Y-88024810D02*
X134364242Y-88105622D01*
X134364242Y-88105622D02*
X134364242Y-88159497D01*
X134364242Y-88159497D02*
X134391179Y-88240309D01*
X132747998Y-99460868D02*
X132667185Y-99487805D01*
X132667185Y-99487805D02*
X132586373Y-99568618D01*
X132586373Y-99568618D02*
X132532498Y-99676367D01*
X132532498Y-99676367D02*
X132532498Y-99784117D01*
X132532498Y-99784117D02*
X132559436Y-99864929D01*
X132559436Y-99864929D02*
X132640248Y-99999616D01*
X132640248Y-99999616D02*
X132721060Y-100080428D01*
X132721060Y-100080428D02*
X132855747Y-100161241D01*
X132855747Y-100161241D02*
X132936560Y-100188178D01*
X132936560Y-100188178D02*
X133044309Y-100188178D01*
X133044309Y-100188178D02*
X133152059Y-100134303D01*
X133152059Y-100134303D02*
X133205934Y-100080428D01*
X133205934Y-100080428D02*
X133259808Y-99972679D01*
X133259808Y-99972679D02*
X133259808Y-99918804D01*
X133259808Y-99918804D02*
X133071247Y-99730242D01*
X133071247Y-99730242D02*
X132963497Y-99837992D01*
X133556120Y-99730242D02*
X132990434Y-99164557D01*
X132990434Y-99164557D02*
X133205934Y-98949057D01*
X133205934Y-98949057D02*
X133286746Y-98922120D01*
X133286746Y-98922120D02*
X133340621Y-98922120D01*
X133340621Y-98922120D02*
X133421433Y-98949057D01*
X133421433Y-98949057D02*
X133502245Y-99029870D01*
X133502245Y-99029870D02*
X133529182Y-99110682D01*
X133529182Y-99110682D02*
X133529182Y-99164557D01*
X133529182Y-99164557D02*
X133502245Y-99245369D01*
X133502245Y-99245369D02*
X133286746Y-99460868D01*
X133583057Y-98679683D02*
X133583057Y-98625809D01*
X133583057Y-98625809D02*
X133609995Y-98544996D01*
X133609995Y-98544996D02*
X133744682Y-98410309D01*
X133744682Y-98410309D02*
X133825494Y-98383372D01*
X133825494Y-98383372D02*
X133879369Y-98383372D01*
X133879369Y-98383372D02*
X133960181Y-98410309D01*
X133960181Y-98410309D02*
X134014056Y-98464184D01*
X134014056Y-98464184D02*
X134067930Y-98571934D01*
X134067930Y-98571934D02*
X134067930Y-99218431D01*
X134067930Y-99218431D02*
X134418117Y-98868245D01*
X134956865Y-98329497D02*
X134633616Y-98652746D01*
X134795240Y-98491121D02*
X134229555Y-97925436D01*
X134229555Y-97925436D02*
X134256492Y-98060123D01*
X134256492Y-98060123D02*
X134256492Y-98167873D01*
X134256492Y-98167873D02*
X134229555Y-98248685D01*
X132747998Y-104530868D02*
X132667185Y-104557805D01*
X132667185Y-104557805D02*
X132586373Y-104638618D01*
X132586373Y-104638618D02*
X132532498Y-104746367D01*
X132532498Y-104746367D02*
X132532498Y-104854117D01*
X132532498Y-104854117D02*
X132559436Y-104934929D01*
X132559436Y-104934929D02*
X132640248Y-105069616D01*
X132640248Y-105069616D02*
X132721060Y-105150428D01*
X132721060Y-105150428D02*
X132855747Y-105231241D01*
X132855747Y-105231241D02*
X132936560Y-105258178D01*
X132936560Y-105258178D02*
X133044309Y-105258178D01*
X133044309Y-105258178D02*
X133152059Y-105204303D01*
X133152059Y-105204303D02*
X133205934Y-105150428D01*
X133205934Y-105150428D02*
X133259808Y-105042679D01*
X133259808Y-105042679D02*
X133259808Y-104988804D01*
X133259808Y-104988804D02*
X133071247Y-104800242D01*
X133071247Y-104800242D02*
X132963497Y-104907992D01*
X133556120Y-104800242D02*
X132990434Y-104234557D01*
X132990434Y-104234557D02*
X133205934Y-104019057D01*
X133205934Y-104019057D02*
X133286746Y-103992120D01*
X133286746Y-103992120D02*
X133340621Y-103992120D01*
X133340621Y-103992120D02*
X133421433Y-104019057D01*
X133421433Y-104019057D02*
X133502245Y-104099870D01*
X133502245Y-104099870D02*
X133529182Y-104180682D01*
X133529182Y-104180682D02*
X133529182Y-104234557D01*
X133529182Y-104234557D02*
X133502245Y-104315369D01*
X133502245Y-104315369D02*
X133286746Y-104530868D01*
X134418117Y-103938245D02*
X134094868Y-104261494D01*
X134256492Y-104099870D02*
X133690807Y-103534184D01*
X133690807Y-103534184D02*
X133717744Y-103668871D01*
X133717744Y-103668871D02*
X133717744Y-103776621D01*
X133717744Y-103776621D02*
X133690807Y-103857433D01*
X134687491Y-103668871D02*
X134795240Y-103561121D01*
X134795240Y-103561121D02*
X134822178Y-103480309D01*
X134822178Y-103480309D02*
X134822178Y-103426434D01*
X134822178Y-103426434D02*
X134795240Y-103291747D01*
X134795240Y-103291747D02*
X134714428Y-103157060D01*
X134714428Y-103157060D02*
X134498929Y-102941561D01*
X134498929Y-102941561D02*
X134418117Y-102914624D01*
X134418117Y-102914624D02*
X134364242Y-102914624D01*
X134364242Y-102914624D02*
X134283430Y-102941561D01*
X134283430Y-102941561D02*
X134175680Y-103049311D01*
X134175680Y-103049311D02*
X134148743Y-103130123D01*
X134148743Y-103130123D02*
X134148743Y-103183998D01*
X134148743Y-103183998D02*
X134175680Y-103264810D01*
X134175680Y-103264810D02*
X134310367Y-103399497D01*
X134310367Y-103399497D02*
X134391179Y-103426434D01*
X134391179Y-103426434D02*
X134445054Y-103426434D01*
X134445054Y-103426434D02*
X134525866Y-103399497D01*
X134525866Y-103399497D02*
X134633616Y-103291747D01*
X134633616Y-103291747D02*
X134660553Y-103210935D01*
X134660553Y-103210935D02*
X134660553Y-103157060D01*
X134660553Y-103157060D02*
X134633616Y-103076248D01*
X132747998Y-101990868D02*
X132667185Y-102017805D01*
X132667185Y-102017805D02*
X132586373Y-102098618D01*
X132586373Y-102098618D02*
X132532498Y-102206367D01*
X132532498Y-102206367D02*
X132532498Y-102314117D01*
X132532498Y-102314117D02*
X132559436Y-102394929D01*
X132559436Y-102394929D02*
X132640248Y-102529616D01*
X132640248Y-102529616D02*
X132721060Y-102610428D01*
X132721060Y-102610428D02*
X132855747Y-102691241D01*
X132855747Y-102691241D02*
X132936560Y-102718178D01*
X132936560Y-102718178D02*
X133044309Y-102718178D01*
X133044309Y-102718178D02*
X133152059Y-102664303D01*
X133152059Y-102664303D02*
X133205934Y-102610428D01*
X133205934Y-102610428D02*
X133259808Y-102502679D01*
X133259808Y-102502679D02*
X133259808Y-102448804D01*
X133259808Y-102448804D02*
X133071247Y-102260242D01*
X133071247Y-102260242D02*
X132963497Y-102367992D01*
X133556120Y-102260242D02*
X132990434Y-101694557D01*
X132990434Y-101694557D02*
X133205934Y-101479057D01*
X133205934Y-101479057D02*
X133286746Y-101452120D01*
X133286746Y-101452120D02*
X133340621Y-101452120D01*
X133340621Y-101452120D02*
X133421433Y-101479057D01*
X133421433Y-101479057D02*
X133502245Y-101559870D01*
X133502245Y-101559870D02*
X133529182Y-101640682D01*
X133529182Y-101640682D02*
X133529182Y-101694557D01*
X133529182Y-101694557D02*
X133502245Y-101775369D01*
X133502245Y-101775369D02*
X133286746Y-101990868D01*
X133583057Y-101209683D02*
X133583057Y-101155809D01*
X133583057Y-101155809D02*
X133609995Y-101074996D01*
X133609995Y-101074996D02*
X133744682Y-100940309D01*
X133744682Y-100940309D02*
X133825494Y-100913372D01*
X133825494Y-100913372D02*
X133879369Y-100913372D01*
X133879369Y-100913372D02*
X133960181Y-100940309D01*
X133960181Y-100940309D02*
X134014056Y-100994184D01*
X134014056Y-100994184D02*
X134067930Y-101101934D01*
X134067930Y-101101934D02*
X134067930Y-101748431D01*
X134067930Y-101748431D02*
X134418117Y-101398245D01*
X134202618Y-100482373D02*
X134256492Y-100428499D01*
X134256492Y-100428499D02*
X134337305Y-100401561D01*
X134337305Y-100401561D02*
X134391179Y-100401561D01*
X134391179Y-100401561D02*
X134471992Y-100428499D01*
X134471992Y-100428499D02*
X134606679Y-100509311D01*
X134606679Y-100509311D02*
X134741366Y-100643998D01*
X134741366Y-100643998D02*
X134822178Y-100778685D01*
X134822178Y-100778685D02*
X134849115Y-100859497D01*
X134849115Y-100859497D02*
X134849115Y-100913372D01*
X134849115Y-100913372D02*
X134822178Y-100994184D01*
X134822178Y-100994184D02*
X134768303Y-101048059D01*
X134768303Y-101048059D02*
X134687491Y-101074996D01*
X134687491Y-101074996D02*
X134633616Y-101074996D01*
X134633616Y-101074996D02*
X134552804Y-101048059D01*
X134552804Y-101048059D02*
X134418117Y-100967247D01*
X134418117Y-100967247D02*
X134283430Y-100832560D01*
X134283430Y-100832560D02*
X134202618Y-100697873D01*
X134202618Y-100697873D02*
X134175680Y-100617060D01*
X134175680Y-100617060D02*
X134175680Y-100563186D01*
X134175680Y-100563186D02*
X134202618Y-100482373D01*
X132603406Y-66697585D02*
X133357653Y-67074709D01*
X133357653Y-67074709D02*
X132980529Y-66320462D01*
X133627027Y-66212712D02*
X133734776Y-66158838D01*
X133734776Y-66158838D02*
X133788651Y-66158838D01*
X133788651Y-66158838D02*
X133869463Y-66185775D01*
X133869463Y-66185775D02*
X133950276Y-66266587D01*
X133950276Y-66266587D02*
X133977213Y-66347399D01*
X133977213Y-66347399D02*
X133977213Y-66401274D01*
X133977213Y-66401274D02*
X133950276Y-66482086D01*
X133950276Y-66482086D02*
X133734776Y-66697586D01*
X133734776Y-66697586D02*
X133169091Y-66131900D01*
X133169091Y-66131900D02*
X133357653Y-65943338D01*
X133357653Y-65943338D02*
X133438465Y-65916401D01*
X133438465Y-65916401D02*
X133492340Y-65916401D01*
X133492340Y-65916401D02*
X133573152Y-65943338D01*
X133573152Y-65943338D02*
X133627027Y-65997213D01*
X133627027Y-65997213D02*
X133653964Y-66078025D01*
X133653964Y-66078025D02*
X133653964Y-66131900D01*
X133653964Y-66131900D02*
X133627027Y-66212712D01*
X133627027Y-66212712D02*
X133438465Y-66401274D01*
X133734776Y-65566215D02*
X134192712Y-66024151D01*
X134192712Y-66024151D02*
X134273524Y-66051088D01*
X134273524Y-66051088D02*
X134327399Y-66051088D01*
X134327399Y-66051088D02*
X134408211Y-66024151D01*
X134408211Y-66024151D02*
X134515961Y-65916401D01*
X134515961Y-65916401D02*
X134542898Y-65835589D01*
X134542898Y-65835589D02*
X134542898Y-65781714D01*
X134542898Y-65781714D02*
X134515961Y-65700902D01*
X134515961Y-65700902D02*
X134058025Y-65242966D01*
X134839210Y-65539277D02*
X134946959Y-65485403D01*
X134946959Y-65485403D02*
X135081646Y-65350716D01*
X135081646Y-65350716D02*
X135108584Y-65269903D01*
X135108584Y-65269903D02*
X135108584Y-65216029D01*
X135108584Y-65216029D02*
X135081646Y-65135216D01*
X135081646Y-65135216D02*
X135027771Y-65081342D01*
X135027771Y-65081342D02*
X134946959Y-65054404D01*
X134946959Y-65054404D02*
X134893084Y-65054404D01*
X134893084Y-65054404D02*
X134812272Y-65081342D01*
X134812272Y-65081342D02*
X134677585Y-65162154D01*
X134677585Y-65162154D02*
X134596773Y-65189091D01*
X134596773Y-65189091D02*
X134542898Y-65189091D01*
X134542898Y-65189091D02*
X134462086Y-65162154D01*
X134462086Y-65162154D02*
X134408211Y-65108279D01*
X134408211Y-65108279D02*
X134381274Y-65027467D01*
X134381274Y-65027467D02*
X134381274Y-64973592D01*
X134381274Y-64973592D02*
X134408211Y-64892780D01*
X134408211Y-64892780D02*
X134542898Y-64758093D01*
X134542898Y-64758093D02*
X134650648Y-64704218D01*
X107063372Y-68691494D02*
X106982560Y-68718431D01*
X106982560Y-68718431D02*
X106901748Y-68799243D01*
X106901748Y-68799243D02*
X106847873Y-68906993D01*
X106847873Y-68906993D02*
X106847873Y-69014742D01*
X106847873Y-69014742D02*
X106874810Y-69095555D01*
X106874810Y-69095555D02*
X106955623Y-69230242D01*
X106955623Y-69230242D02*
X107036435Y-69311054D01*
X107036435Y-69311054D02*
X107171122Y-69391866D01*
X107171122Y-69391866D02*
X107251934Y-69418803D01*
X107251934Y-69418803D02*
X107359684Y-69418803D01*
X107359684Y-69418803D02*
X107467433Y-69364929D01*
X107467433Y-69364929D02*
X107521308Y-69311054D01*
X107521308Y-69311054D02*
X107575183Y-69203304D01*
X107575183Y-69203304D02*
X107575183Y-69149429D01*
X107575183Y-69149429D02*
X107386621Y-68960868D01*
X107386621Y-68960868D02*
X107278871Y-69068617D01*
X107871494Y-68960868D02*
X107305809Y-68395182D01*
X107305809Y-68395182D02*
X107521308Y-68179683D01*
X107521308Y-68179683D02*
X107602120Y-68152746D01*
X107602120Y-68152746D02*
X107655995Y-68152746D01*
X107655995Y-68152746D02*
X107736807Y-68179683D01*
X107736807Y-68179683D02*
X107817619Y-68260495D01*
X107817619Y-68260495D02*
X107844557Y-68341307D01*
X107844557Y-68341307D02*
X107844557Y-68395182D01*
X107844557Y-68395182D02*
X107817619Y-68475994D01*
X107817619Y-68475994D02*
X107602120Y-68691494D01*
X108733491Y-68098871D02*
X108410242Y-68422120D01*
X108571867Y-68260495D02*
X108006181Y-67694810D01*
X108006181Y-67694810D02*
X108033119Y-67829497D01*
X108033119Y-67829497D02*
X108033119Y-67937246D01*
X108033119Y-67937246D02*
X108006181Y-68018059D01*
X132736435Y-109368431D02*
X132655623Y-109395368D01*
X132655623Y-109395368D02*
X132574811Y-109476180D01*
X132574811Y-109476180D02*
X132520936Y-109583930D01*
X132520936Y-109583930D02*
X132520936Y-109691680D01*
X132520936Y-109691680D02*
X132547873Y-109772492D01*
X132547873Y-109772492D02*
X132628685Y-109907179D01*
X132628685Y-109907179D02*
X132709498Y-109987991D01*
X132709498Y-109987991D02*
X132844185Y-110068803D01*
X132844185Y-110068803D02*
X132924997Y-110095741D01*
X132924997Y-110095741D02*
X133032746Y-110095741D01*
X133032746Y-110095741D02*
X133140496Y-110041866D01*
X133140496Y-110041866D02*
X133194371Y-109987991D01*
X133194371Y-109987991D02*
X133248246Y-109880241D01*
X133248246Y-109880241D02*
X133248246Y-109826367D01*
X133248246Y-109826367D02*
X133059684Y-109637805D01*
X133059684Y-109637805D02*
X132951934Y-109745554D01*
X133544557Y-109637805D02*
X132978872Y-109072119D01*
X132978872Y-109072119D02*
X133867806Y-109314556D01*
X133867806Y-109314556D02*
X133302120Y-108748871D01*
X134137180Y-109045182D02*
X133571494Y-108479497D01*
X133571494Y-108479497D02*
X133706181Y-108344810D01*
X133706181Y-108344810D02*
X133813931Y-108290935D01*
X133813931Y-108290935D02*
X133921680Y-108290935D01*
X133921680Y-108290935D02*
X134002493Y-108317872D01*
X134002493Y-108317872D02*
X134137180Y-108398685D01*
X134137180Y-108398685D02*
X134217992Y-108479497D01*
X134217992Y-108479497D02*
X134298804Y-108614184D01*
X134298804Y-108614184D02*
X134325741Y-108694996D01*
X134325741Y-108694996D02*
X134325741Y-108802746D01*
X134325741Y-108802746D02*
X134271867Y-108910495D01*
X134271867Y-108910495D02*
X134137180Y-109045182D01*
X107263372Y-88991494D02*
X107182560Y-89018431D01*
X107182560Y-89018431D02*
X107101748Y-89099243D01*
X107101748Y-89099243D02*
X107047873Y-89206993D01*
X107047873Y-89206993D02*
X107047873Y-89314742D01*
X107047873Y-89314742D02*
X107074810Y-89395555D01*
X107074810Y-89395555D02*
X107155623Y-89530242D01*
X107155623Y-89530242D02*
X107236435Y-89611054D01*
X107236435Y-89611054D02*
X107371122Y-89691866D01*
X107371122Y-89691866D02*
X107451934Y-89718803D01*
X107451934Y-89718803D02*
X107559684Y-89718803D01*
X107559684Y-89718803D02*
X107667433Y-89664929D01*
X107667433Y-89664929D02*
X107721308Y-89611054D01*
X107721308Y-89611054D02*
X107775183Y-89503304D01*
X107775183Y-89503304D02*
X107775183Y-89449429D01*
X107775183Y-89449429D02*
X107586621Y-89260868D01*
X107586621Y-89260868D02*
X107478871Y-89368617D01*
X108071494Y-89260868D02*
X107505809Y-88695182D01*
X107505809Y-88695182D02*
X107721308Y-88479683D01*
X107721308Y-88479683D02*
X107802120Y-88452746D01*
X107802120Y-88452746D02*
X107855995Y-88452746D01*
X107855995Y-88452746D02*
X107936807Y-88479683D01*
X107936807Y-88479683D02*
X108017619Y-88560495D01*
X108017619Y-88560495D02*
X108044557Y-88641307D01*
X108044557Y-88641307D02*
X108044557Y-88695182D01*
X108044557Y-88695182D02*
X108017619Y-88775994D01*
X108017619Y-88775994D02*
X107802120Y-88991494D01*
X108017619Y-88183372D02*
X108394743Y-87806248D01*
X108394743Y-87806248D02*
X108717992Y-88614370D01*
X132747998Y-81416868D02*
X132667185Y-81443805D01*
X132667185Y-81443805D02*
X132586373Y-81524618D01*
X132586373Y-81524618D02*
X132532498Y-81632367D01*
X132532498Y-81632367D02*
X132532498Y-81740117D01*
X132532498Y-81740117D02*
X132559436Y-81820929D01*
X132559436Y-81820929D02*
X132640248Y-81955616D01*
X132640248Y-81955616D02*
X132721060Y-82036428D01*
X132721060Y-82036428D02*
X132855747Y-82117241D01*
X132855747Y-82117241D02*
X132936560Y-82144178D01*
X132936560Y-82144178D02*
X133044309Y-82144178D01*
X133044309Y-82144178D02*
X133152059Y-82090303D01*
X133152059Y-82090303D02*
X133205934Y-82036428D01*
X133205934Y-82036428D02*
X133259808Y-81928679D01*
X133259808Y-81928679D02*
X133259808Y-81874804D01*
X133259808Y-81874804D02*
X133071247Y-81686242D01*
X133071247Y-81686242D02*
X132963497Y-81793992D01*
X133556120Y-81686242D02*
X132990434Y-81120557D01*
X132990434Y-81120557D02*
X133205934Y-80905057D01*
X133205934Y-80905057D02*
X133286746Y-80878120D01*
X133286746Y-80878120D02*
X133340621Y-80878120D01*
X133340621Y-80878120D02*
X133421433Y-80905057D01*
X133421433Y-80905057D02*
X133502245Y-80985870D01*
X133502245Y-80985870D02*
X133529182Y-81066682D01*
X133529182Y-81066682D02*
X133529182Y-81120557D01*
X133529182Y-81120557D02*
X133502245Y-81201369D01*
X133502245Y-81201369D02*
X133286746Y-81416868D01*
X133583057Y-80635683D02*
X133583057Y-80581809D01*
X133583057Y-80581809D02*
X133609995Y-80500996D01*
X133609995Y-80500996D02*
X133744682Y-80366309D01*
X133744682Y-80366309D02*
X133825494Y-80339372D01*
X133825494Y-80339372D02*
X133879369Y-80339372D01*
X133879369Y-80339372D02*
X133960181Y-80366309D01*
X133960181Y-80366309D02*
X134014056Y-80420184D01*
X134014056Y-80420184D02*
X134067930Y-80527934D01*
X134067930Y-80527934D02*
X134067930Y-81174431D01*
X134067930Y-81174431D02*
X134418117Y-80824245D01*
X134418117Y-80177747D02*
X134337305Y-80204685D01*
X134337305Y-80204685D02*
X134283430Y-80204685D01*
X134283430Y-80204685D02*
X134202618Y-80177747D01*
X134202618Y-80177747D02*
X134175680Y-80150810D01*
X134175680Y-80150810D02*
X134148743Y-80069998D01*
X134148743Y-80069998D02*
X134148743Y-80016123D01*
X134148743Y-80016123D02*
X134175680Y-79935311D01*
X134175680Y-79935311D02*
X134283430Y-79827561D01*
X134283430Y-79827561D02*
X134364242Y-79800624D01*
X134364242Y-79800624D02*
X134418117Y-79800624D01*
X134418117Y-79800624D02*
X134498929Y-79827561D01*
X134498929Y-79827561D02*
X134525866Y-79854499D01*
X134525866Y-79854499D02*
X134552804Y-79935311D01*
X134552804Y-79935311D02*
X134552804Y-79989186D01*
X134552804Y-79989186D02*
X134525866Y-80069998D01*
X134525866Y-80069998D02*
X134418117Y-80177747D01*
X134418117Y-80177747D02*
X134391179Y-80258560D01*
X134391179Y-80258560D02*
X134391179Y-80312434D01*
X134391179Y-80312434D02*
X134418117Y-80393247D01*
X134418117Y-80393247D02*
X134525866Y-80500996D01*
X134525866Y-80500996D02*
X134606679Y-80527934D01*
X134606679Y-80527934D02*
X134660553Y-80527934D01*
X134660553Y-80527934D02*
X134741366Y-80500996D01*
X134741366Y-80500996D02*
X134849115Y-80393247D01*
X134849115Y-80393247D02*
X134876053Y-80312434D01*
X134876053Y-80312434D02*
X134876053Y-80258560D01*
X134876053Y-80258560D02*
X134849115Y-80177747D01*
X134849115Y-80177747D02*
X134741366Y-80069998D01*
X134741366Y-80069998D02*
X134660553Y-80043060D01*
X134660553Y-80043060D02*
X134606679Y-80043060D01*
X134606679Y-80043060D02*
X134525866Y-80069998D01*
X106639998Y-114690868D02*
X106559185Y-114717805D01*
X106559185Y-114717805D02*
X106478373Y-114798618D01*
X106478373Y-114798618D02*
X106424498Y-114906367D01*
X106424498Y-114906367D02*
X106424498Y-115014117D01*
X106424498Y-115014117D02*
X106451436Y-115094929D01*
X106451436Y-115094929D02*
X106532248Y-115229616D01*
X106532248Y-115229616D02*
X106613060Y-115310428D01*
X106613060Y-115310428D02*
X106747747Y-115391241D01*
X106747747Y-115391241D02*
X106828560Y-115418178D01*
X106828560Y-115418178D02*
X106936309Y-115418178D01*
X106936309Y-115418178D02*
X107044059Y-115364303D01*
X107044059Y-115364303D02*
X107097934Y-115310428D01*
X107097934Y-115310428D02*
X107151808Y-115202679D01*
X107151808Y-115202679D02*
X107151808Y-115148804D01*
X107151808Y-115148804D02*
X106963247Y-114960242D01*
X106963247Y-114960242D02*
X106855497Y-115067992D01*
X107448120Y-114960242D02*
X106882434Y-114394557D01*
X106882434Y-114394557D02*
X107097934Y-114179057D01*
X107097934Y-114179057D02*
X107178746Y-114152120D01*
X107178746Y-114152120D02*
X107232621Y-114152120D01*
X107232621Y-114152120D02*
X107313433Y-114179057D01*
X107313433Y-114179057D02*
X107394245Y-114259870D01*
X107394245Y-114259870D02*
X107421182Y-114340682D01*
X107421182Y-114340682D02*
X107421182Y-114394557D01*
X107421182Y-114394557D02*
X107394245Y-114475369D01*
X107394245Y-114475369D02*
X107178746Y-114690868D01*
X108310117Y-114098245D02*
X107986868Y-114421494D01*
X108148492Y-114259870D02*
X107582807Y-113694184D01*
X107582807Y-113694184D02*
X107609744Y-113828871D01*
X107609744Y-113828871D02*
X107609744Y-113936621D01*
X107609744Y-113936621D02*
X107582807Y-114017433D01*
X108256242Y-113020749D02*
X107986868Y-113290123D01*
X107986868Y-113290123D02*
X108229305Y-113586434D01*
X108229305Y-113586434D02*
X108229305Y-113532560D01*
X108229305Y-113532560D02*
X108256242Y-113451747D01*
X108256242Y-113451747D02*
X108390929Y-113317060D01*
X108390929Y-113317060D02*
X108471741Y-113290123D01*
X108471741Y-113290123D02*
X108525616Y-113290123D01*
X108525616Y-113290123D02*
X108606428Y-113317060D01*
X108606428Y-113317060D02*
X108741115Y-113451747D01*
X108741115Y-113451747D02*
X108768053Y-113532560D01*
X108768053Y-113532560D02*
X108768053Y-113586434D01*
X108768053Y-113586434D02*
X108741115Y-113667247D01*
X108741115Y-113667247D02*
X108606428Y-113801934D01*
X108606428Y-113801934D02*
X108525616Y-113828871D01*
X108525616Y-113828871D02*
X108471741Y-113828871D01*
X132747998Y-94370868D02*
X132667185Y-94397805D01*
X132667185Y-94397805D02*
X132586373Y-94478618D01*
X132586373Y-94478618D02*
X132532498Y-94586367D01*
X132532498Y-94586367D02*
X132532498Y-94694117D01*
X132532498Y-94694117D02*
X132559436Y-94774929D01*
X132559436Y-94774929D02*
X132640248Y-94909616D01*
X132640248Y-94909616D02*
X132721060Y-94990428D01*
X132721060Y-94990428D02*
X132855747Y-95071241D01*
X132855747Y-95071241D02*
X132936560Y-95098178D01*
X132936560Y-95098178D02*
X133044309Y-95098178D01*
X133044309Y-95098178D02*
X133152059Y-95044303D01*
X133152059Y-95044303D02*
X133205934Y-94990428D01*
X133205934Y-94990428D02*
X133259808Y-94882679D01*
X133259808Y-94882679D02*
X133259808Y-94828804D01*
X133259808Y-94828804D02*
X133071247Y-94640242D01*
X133071247Y-94640242D02*
X132963497Y-94747992D01*
X133556120Y-94640242D02*
X132990434Y-94074557D01*
X132990434Y-94074557D02*
X133205934Y-93859057D01*
X133205934Y-93859057D02*
X133286746Y-93832120D01*
X133286746Y-93832120D02*
X133340621Y-93832120D01*
X133340621Y-93832120D02*
X133421433Y-93859057D01*
X133421433Y-93859057D02*
X133502245Y-93939870D01*
X133502245Y-93939870D02*
X133529182Y-94020682D01*
X133529182Y-94020682D02*
X133529182Y-94074557D01*
X133529182Y-94074557D02*
X133502245Y-94155369D01*
X133502245Y-94155369D02*
X133286746Y-94370868D01*
X133583057Y-93589683D02*
X133583057Y-93535809D01*
X133583057Y-93535809D02*
X133609995Y-93454996D01*
X133609995Y-93454996D02*
X133744682Y-93320309D01*
X133744682Y-93320309D02*
X133825494Y-93293372D01*
X133825494Y-93293372D02*
X133879369Y-93293372D01*
X133879369Y-93293372D02*
X133960181Y-93320309D01*
X133960181Y-93320309D02*
X134014056Y-93374184D01*
X134014056Y-93374184D02*
X134067930Y-93481934D01*
X134067930Y-93481934D02*
X134067930Y-94128431D01*
X134067930Y-94128431D02*
X134418117Y-93778245D01*
X134121805Y-93050935D02*
X134121805Y-92997060D01*
X134121805Y-92997060D02*
X134148743Y-92916248D01*
X134148743Y-92916248D02*
X134283430Y-92781561D01*
X134283430Y-92781561D02*
X134364242Y-92754624D01*
X134364242Y-92754624D02*
X134418117Y-92754624D01*
X134418117Y-92754624D02*
X134498929Y-92781561D01*
X134498929Y-92781561D02*
X134552804Y-92835436D01*
X134552804Y-92835436D02*
X134606679Y-92943186D01*
X134606679Y-92943186D02*
X134606679Y-93589683D01*
X134606679Y-93589683D02*
X134956865Y-93239497D01*
X107163372Y-66161494D02*
X107082560Y-66188431D01*
X107082560Y-66188431D02*
X107001748Y-66269243D01*
X107001748Y-66269243D02*
X106947873Y-66376993D01*
X106947873Y-66376993D02*
X106947873Y-66484742D01*
X106947873Y-66484742D02*
X106974810Y-66565555D01*
X106974810Y-66565555D02*
X107055623Y-66700242D01*
X107055623Y-66700242D02*
X107136435Y-66781054D01*
X107136435Y-66781054D02*
X107271122Y-66861866D01*
X107271122Y-66861866D02*
X107351934Y-66888803D01*
X107351934Y-66888803D02*
X107459684Y-66888803D01*
X107459684Y-66888803D02*
X107567433Y-66834929D01*
X107567433Y-66834929D02*
X107621308Y-66781054D01*
X107621308Y-66781054D02*
X107675183Y-66673304D01*
X107675183Y-66673304D02*
X107675183Y-66619429D01*
X107675183Y-66619429D02*
X107486621Y-66430868D01*
X107486621Y-66430868D02*
X107378871Y-66538617D01*
X107971494Y-66430868D02*
X107405809Y-65865182D01*
X107405809Y-65865182D02*
X107621308Y-65649683D01*
X107621308Y-65649683D02*
X107702120Y-65622746D01*
X107702120Y-65622746D02*
X107755995Y-65622746D01*
X107755995Y-65622746D02*
X107836807Y-65649683D01*
X107836807Y-65649683D02*
X107917619Y-65730495D01*
X107917619Y-65730495D02*
X107944557Y-65811307D01*
X107944557Y-65811307D02*
X107944557Y-65865182D01*
X107944557Y-65865182D02*
X107917619Y-65945994D01*
X107917619Y-65945994D02*
X107702120Y-66161494D01*
X108079244Y-65191747D02*
X108133119Y-65137872D01*
X108133119Y-65137872D02*
X108213931Y-65110935D01*
X108213931Y-65110935D02*
X108267806Y-65110935D01*
X108267806Y-65110935D02*
X108348618Y-65137872D01*
X108348618Y-65137872D02*
X108483305Y-65218685D01*
X108483305Y-65218685D02*
X108617992Y-65353372D01*
X108617992Y-65353372D02*
X108698804Y-65488059D01*
X108698804Y-65488059D02*
X108725741Y-65568871D01*
X108725741Y-65568871D02*
X108725741Y-65622746D01*
X108725741Y-65622746D02*
X108698804Y-65703558D01*
X108698804Y-65703558D02*
X108644929Y-65757433D01*
X108644929Y-65757433D02*
X108564117Y-65784370D01*
X108564117Y-65784370D02*
X108510242Y-65784370D01*
X108510242Y-65784370D02*
X108429430Y-65757433D01*
X108429430Y-65757433D02*
X108294743Y-65676620D01*
X108294743Y-65676620D02*
X108160056Y-65541933D01*
X108160056Y-65541933D02*
X108079244Y-65407246D01*
X108079244Y-65407246D02*
X108052306Y-65326434D01*
X108052306Y-65326434D02*
X108052306Y-65272559D01*
X108052306Y-65272559D02*
X108079244Y-65191747D01*
X113140475Y-116694200D02*
X113254761Y-116732295D01*
X113254761Y-116732295D02*
X113445237Y-116732295D01*
X113445237Y-116732295D02*
X113521428Y-116694200D01*
X113521428Y-116694200D02*
X113559523Y-116656104D01*
X113559523Y-116656104D02*
X113597618Y-116579914D01*
X113597618Y-116579914D02*
X113597618Y-116503723D01*
X113597618Y-116503723D02*
X113559523Y-116427533D01*
X113559523Y-116427533D02*
X113521428Y-116389438D01*
X113521428Y-116389438D02*
X113445237Y-116351342D01*
X113445237Y-116351342D02*
X113292856Y-116313247D01*
X113292856Y-116313247D02*
X113216666Y-116275152D01*
X113216666Y-116275152D02*
X113178571Y-116237057D01*
X113178571Y-116237057D02*
X113140475Y-116160866D01*
X113140475Y-116160866D02*
X113140475Y-116084676D01*
X113140475Y-116084676D02*
X113178571Y-116008485D01*
X113178571Y-116008485D02*
X113216666Y-115970390D01*
X113216666Y-115970390D02*
X113292856Y-115932295D01*
X113292856Y-115932295D02*
X113483333Y-115932295D01*
X113483333Y-115932295D02*
X113597618Y-115970390D01*
X113864285Y-115932295D02*
X114054761Y-116732295D01*
X114054761Y-116732295D02*
X114207142Y-116160866D01*
X114207142Y-116160866D02*
X114359523Y-116732295D01*
X114359523Y-116732295D02*
X114550000Y-115932295D01*
X115311905Y-116656104D02*
X115273809Y-116694200D01*
X115273809Y-116694200D02*
X115159524Y-116732295D01*
X115159524Y-116732295D02*
X115083333Y-116732295D01*
X115083333Y-116732295D02*
X114969047Y-116694200D01*
X114969047Y-116694200D02*
X114892857Y-116618009D01*
X114892857Y-116618009D02*
X114854762Y-116541819D01*
X114854762Y-116541819D02*
X114816666Y-116389438D01*
X114816666Y-116389438D02*
X114816666Y-116275152D01*
X114816666Y-116275152D02*
X114854762Y-116122771D01*
X114854762Y-116122771D02*
X114892857Y-116046580D01*
X114892857Y-116046580D02*
X114969047Y-115970390D01*
X114969047Y-115970390D02*
X115083333Y-115932295D01*
X115083333Y-115932295D02*
X115159524Y-115932295D01*
X115159524Y-115932295D02*
X115273809Y-115970390D01*
X115273809Y-115970390D02*
X115311905Y-116008485D01*
X116035714Y-116732295D02*
X115654762Y-116732295D01*
X115654762Y-116732295D02*
X115654762Y-115932295D01*
X116302381Y-116732295D02*
X116302381Y-115932295D01*
X116759524Y-116732295D02*
X116416666Y-116275152D01*
X116759524Y-115932295D02*
X116302381Y-116389438D01*
X132747998Y-112150868D02*
X132667185Y-112177805D01*
X132667185Y-112177805D02*
X132586373Y-112258618D01*
X132586373Y-112258618D02*
X132532498Y-112366367D01*
X132532498Y-112366367D02*
X132532498Y-112474117D01*
X132532498Y-112474117D02*
X132559436Y-112554929D01*
X132559436Y-112554929D02*
X132640248Y-112689616D01*
X132640248Y-112689616D02*
X132721060Y-112770428D01*
X132721060Y-112770428D02*
X132855747Y-112851241D01*
X132855747Y-112851241D02*
X132936560Y-112878178D01*
X132936560Y-112878178D02*
X133044309Y-112878178D01*
X133044309Y-112878178D02*
X133152059Y-112824303D01*
X133152059Y-112824303D02*
X133205934Y-112770428D01*
X133205934Y-112770428D02*
X133259808Y-112662679D01*
X133259808Y-112662679D02*
X133259808Y-112608804D01*
X133259808Y-112608804D02*
X133071247Y-112420242D01*
X133071247Y-112420242D02*
X132963497Y-112527992D01*
X133556120Y-112420242D02*
X132990434Y-111854557D01*
X132990434Y-111854557D02*
X133205934Y-111639057D01*
X133205934Y-111639057D02*
X133286746Y-111612120D01*
X133286746Y-111612120D02*
X133340621Y-111612120D01*
X133340621Y-111612120D02*
X133421433Y-111639057D01*
X133421433Y-111639057D02*
X133502245Y-111719870D01*
X133502245Y-111719870D02*
X133529182Y-111800682D01*
X133529182Y-111800682D02*
X133529182Y-111854557D01*
X133529182Y-111854557D02*
X133502245Y-111935369D01*
X133502245Y-111935369D02*
X133286746Y-112150868D01*
X134418117Y-111558245D02*
X134094868Y-111881494D01*
X134256492Y-111719870D02*
X133690807Y-111154184D01*
X133690807Y-111154184D02*
X133717744Y-111288871D01*
X133717744Y-111288871D02*
X133717744Y-111396621D01*
X133717744Y-111396621D02*
X133690807Y-111477433D01*
X134040993Y-110803998D02*
X134418117Y-110426874D01*
X134418117Y-110426874D02*
X134741366Y-111234996D01*
X106639998Y-107070868D02*
X106559185Y-107097805D01*
X106559185Y-107097805D02*
X106478373Y-107178618D01*
X106478373Y-107178618D02*
X106424498Y-107286367D01*
X106424498Y-107286367D02*
X106424498Y-107394117D01*
X106424498Y-107394117D02*
X106451436Y-107474929D01*
X106451436Y-107474929D02*
X106532248Y-107609616D01*
X106532248Y-107609616D02*
X106613060Y-107690428D01*
X106613060Y-107690428D02*
X106747747Y-107771241D01*
X106747747Y-107771241D02*
X106828560Y-107798178D01*
X106828560Y-107798178D02*
X106936309Y-107798178D01*
X106936309Y-107798178D02*
X107044059Y-107744303D01*
X107044059Y-107744303D02*
X107097934Y-107690428D01*
X107097934Y-107690428D02*
X107151808Y-107582679D01*
X107151808Y-107582679D02*
X107151808Y-107528804D01*
X107151808Y-107528804D02*
X106963247Y-107340242D01*
X106963247Y-107340242D02*
X106855497Y-107447992D01*
X107448120Y-107340242D02*
X106882434Y-106774557D01*
X106882434Y-106774557D02*
X107097934Y-106559057D01*
X107097934Y-106559057D02*
X107178746Y-106532120D01*
X107178746Y-106532120D02*
X107232621Y-106532120D01*
X107232621Y-106532120D02*
X107313433Y-106559057D01*
X107313433Y-106559057D02*
X107394245Y-106639870D01*
X107394245Y-106639870D02*
X107421182Y-106720682D01*
X107421182Y-106720682D02*
X107421182Y-106774557D01*
X107421182Y-106774557D02*
X107394245Y-106855369D01*
X107394245Y-106855369D02*
X107178746Y-107070868D01*
X108310117Y-106478245D02*
X107986868Y-106801494D01*
X108148492Y-106639870D02*
X107582807Y-106074184D01*
X107582807Y-106074184D02*
X107609744Y-106208871D01*
X107609744Y-106208871D02*
X107609744Y-106316621D01*
X107609744Y-106316621D02*
X107582807Y-106397433D01*
X107932993Y-105723998D02*
X108283179Y-105373812D01*
X108283179Y-105373812D02*
X108310117Y-105777873D01*
X108310117Y-105777873D02*
X108390929Y-105697060D01*
X108390929Y-105697060D02*
X108471741Y-105670123D01*
X108471741Y-105670123D02*
X108525616Y-105670123D01*
X108525616Y-105670123D02*
X108606428Y-105697060D01*
X108606428Y-105697060D02*
X108741115Y-105831747D01*
X108741115Y-105831747D02*
X108768053Y-105912560D01*
X108768053Y-105912560D02*
X108768053Y-105966434D01*
X108768053Y-105966434D02*
X108741115Y-106047247D01*
X108741115Y-106047247D02*
X108579491Y-106208871D01*
X108579491Y-106208871D02*
X108498679Y-106235808D01*
X108498679Y-106235808D02*
X108444804Y-106235808D01*
X132570749Y-69240242D02*
X133324996Y-69617366D01*
X133324996Y-69617366D02*
X132947873Y-68863118D01*
X133648245Y-69240242D02*
X133755995Y-69186367D01*
X133755995Y-69186367D02*
X133890682Y-69051680D01*
X133890682Y-69051680D02*
X133917619Y-68970868D01*
X133917619Y-68970868D02*
X133917619Y-68916993D01*
X133917619Y-68916993D02*
X133890682Y-68836181D01*
X133890682Y-68836181D02*
X133836807Y-68782306D01*
X133836807Y-68782306D02*
X133755995Y-68755369D01*
X133755995Y-68755369D02*
X133702120Y-68755369D01*
X133702120Y-68755369D02*
X133621308Y-68782306D01*
X133621308Y-68782306D02*
X133486621Y-68863118D01*
X133486621Y-68863118D02*
X133405808Y-68890056D01*
X133405808Y-68890056D02*
X133351934Y-68890056D01*
X133351934Y-68890056D02*
X133271121Y-68863118D01*
X133271121Y-68863118D02*
X133217247Y-68809244D01*
X133217247Y-68809244D02*
X133190309Y-68728431D01*
X133190309Y-68728431D02*
X133190309Y-68674557D01*
X133190309Y-68674557D02*
X133217247Y-68593744D01*
X133217247Y-68593744D02*
X133351934Y-68459057D01*
X133351934Y-68459057D02*
X133459683Y-68405183D01*
X134079244Y-68324370D02*
X134348618Y-68593744D01*
X133594370Y-68216621D02*
X134079244Y-68324370D01*
X134079244Y-68324370D02*
X133971494Y-67839497D01*
X134671866Y-68216621D02*
X134779616Y-68162746D01*
X134779616Y-68162746D02*
X134914303Y-68028059D01*
X134914303Y-68028059D02*
X134941240Y-67947247D01*
X134941240Y-67947247D02*
X134941240Y-67893372D01*
X134941240Y-67893372D02*
X134914303Y-67812560D01*
X134914303Y-67812560D02*
X134860428Y-67758685D01*
X134860428Y-67758685D02*
X134779616Y-67731748D01*
X134779616Y-67731748D02*
X134725741Y-67731748D01*
X134725741Y-67731748D02*
X134644929Y-67758685D01*
X134644929Y-67758685D02*
X134510242Y-67839497D01*
X134510242Y-67839497D02*
X134429430Y-67866435D01*
X134429430Y-67866435D02*
X134375555Y-67866435D01*
X134375555Y-67866435D02*
X134294743Y-67839497D01*
X134294743Y-67839497D02*
X134240868Y-67785622D01*
X134240868Y-67785622D02*
X134213930Y-67704810D01*
X134213930Y-67704810D02*
X134213930Y-67650935D01*
X134213930Y-67650935D02*
X134240868Y-67570123D01*
X134240868Y-67570123D02*
X134375555Y-67435436D01*
X134375555Y-67435436D02*
X134483304Y-67381561D01*
X107136435Y-109368431D02*
X107055623Y-109395368D01*
X107055623Y-109395368D02*
X106974811Y-109476180D01*
X106974811Y-109476180D02*
X106920936Y-109583930D01*
X106920936Y-109583930D02*
X106920936Y-109691680D01*
X106920936Y-109691680D02*
X106947873Y-109772492D01*
X106947873Y-109772492D02*
X107028685Y-109907179D01*
X107028685Y-109907179D02*
X107109498Y-109987991D01*
X107109498Y-109987991D02*
X107244185Y-110068803D01*
X107244185Y-110068803D02*
X107324997Y-110095741D01*
X107324997Y-110095741D02*
X107432746Y-110095741D01*
X107432746Y-110095741D02*
X107540496Y-110041866D01*
X107540496Y-110041866D02*
X107594371Y-109987991D01*
X107594371Y-109987991D02*
X107648246Y-109880241D01*
X107648246Y-109880241D02*
X107648246Y-109826367D01*
X107648246Y-109826367D02*
X107459684Y-109637805D01*
X107459684Y-109637805D02*
X107351934Y-109745554D01*
X107944557Y-109637805D02*
X107378872Y-109072119D01*
X107378872Y-109072119D02*
X108267806Y-109314556D01*
X108267806Y-109314556D02*
X107702120Y-108748871D01*
X108537180Y-109045182D02*
X107971494Y-108479497D01*
X107971494Y-108479497D02*
X108106181Y-108344810D01*
X108106181Y-108344810D02*
X108213931Y-108290935D01*
X108213931Y-108290935D02*
X108321680Y-108290935D01*
X108321680Y-108290935D02*
X108402493Y-108317872D01*
X108402493Y-108317872D02*
X108537180Y-108398685D01*
X108537180Y-108398685D02*
X108617992Y-108479497D01*
X108617992Y-108479497D02*
X108698804Y-108614184D01*
X108698804Y-108614184D02*
X108725741Y-108694996D01*
X108725741Y-108694996D02*
X108725741Y-108802746D01*
X108725741Y-108802746D02*
X108671867Y-108910495D01*
X108671867Y-108910495D02*
X108537180Y-109045182D01*
X132747998Y-114690868D02*
X132667185Y-114717805D01*
X132667185Y-114717805D02*
X132586373Y-114798618D01*
X132586373Y-114798618D02*
X132532498Y-114906367D01*
X132532498Y-114906367D02*
X132532498Y-115014117D01*
X132532498Y-115014117D02*
X132559436Y-115094929D01*
X132559436Y-115094929D02*
X132640248Y-115229616D01*
X132640248Y-115229616D02*
X132721060Y-115310428D01*
X132721060Y-115310428D02*
X132855747Y-115391241D01*
X132855747Y-115391241D02*
X132936560Y-115418178D01*
X132936560Y-115418178D02*
X133044309Y-115418178D01*
X133044309Y-115418178D02*
X133152059Y-115364303D01*
X133152059Y-115364303D02*
X133205934Y-115310428D01*
X133205934Y-115310428D02*
X133259808Y-115202679D01*
X133259808Y-115202679D02*
X133259808Y-115148804D01*
X133259808Y-115148804D02*
X133071247Y-114960242D01*
X133071247Y-114960242D02*
X132963497Y-115067992D01*
X133556120Y-114960242D02*
X132990434Y-114394557D01*
X132990434Y-114394557D02*
X133205934Y-114179057D01*
X133205934Y-114179057D02*
X133286746Y-114152120D01*
X133286746Y-114152120D02*
X133340621Y-114152120D01*
X133340621Y-114152120D02*
X133421433Y-114179057D01*
X133421433Y-114179057D02*
X133502245Y-114259870D01*
X133502245Y-114259870D02*
X133529182Y-114340682D01*
X133529182Y-114340682D02*
X133529182Y-114394557D01*
X133529182Y-114394557D02*
X133502245Y-114475369D01*
X133502245Y-114475369D02*
X133286746Y-114690868D01*
X134418117Y-114098245D02*
X134094868Y-114421494D01*
X134256492Y-114259870D02*
X133690807Y-113694184D01*
X133690807Y-113694184D02*
X133717744Y-113828871D01*
X133717744Y-113828871D02*
X133717744Y-113936621D01*
X133717744Y-113936621D02*
X133690807Y-114017433D01*
X134337305Y-113047686D02*
X134229555Y-113155436D01*
X134229555Y-113155436D02*
X134202618Y-113236248D01*
X134202618Y-113236248D02*
X134202618Y-113290123D01*
X134202618Y-113290123D02*
X134229555Y-113424810D01*
X134229555Y-113424810D02*
X134310367Y-113559497D01*
X134310367Y-113559497D02*
X134525866Y-113774996D01*
X134525866Y-113774996D02*
X134606679Y-113801934D01*
X134606679Y-113801934D02*
X134660553Y-113801934D01*
X134660553Y-113801934D02*
X134741366Y-113774996D01*
X134741366Y-113774996D02*
X134849115Y-113667247D01*
X134849115Y-113667247D02*
X134876053Y-113586434D01*
X134876053Y-113586434D02*
X134876053Y-113532560D01*
X134876053Y-113532560D02*
X134849115Y-113451747D01*
X134849115Y-113451747D02*
X134714428Y-113317060D01*
X134714428Y-113317060D02*
X134633616Y-113290123D01*
X134633616Y-113290123D02*
X134579741Y-113290123D01*
X134579741Y-113290123D02*
X134498929Y-113317060D01*
X134498929Y-113317060D02*
X134391179Y-113424810D01*
X134391179Y-113424810D02*
X134364242Y-113505622D01*
X134364242Y-113505622D02*
X134364242Y-113559497D01*
X134364242Y-113559497D02*
X134391179Y-113640309D01*
X132801873Y-84911240D02*
X133071247Y-84641866D01*
X132909623Y-85126739D02*
X132532499Y-84372492D01*
X132532499Y-84372492D02*
X133286746Y-84749615D01*
X133232871Y-83725994D02*
X133152059Y-83752932D01*
X133152059Y-83752932D02*
X133071247Y-83833744D01*
X133071247Y-83833744D02*
X133017372Y-83941494D01*
X133017372Y-83941494D02*
X133017372Y-84049243D01*
X133017372Y-84049243D02*
X133044310Y-84130055D01*
X133044310Y-84130055D02*
X133125122Y-84264742D01*
X133125122Y-84264742D02*
X133205934Y-84345555D01*
X133205934Y-84345555D02*
X133340621Y-84426367D01*
X133340621Y-84426367D02*
X133421433Y-84453304D01*
X133421433Y-84453304D02*
X133529183Y-84453304D01*
X133529183Y-84453304D02*
X133636932Y-84399429D01*
X133636932Y-84399429D02*
X133690807Y-84345555D01*
X133690807Y-84345555D02*
X133744682Y-84237805D01*
X133744682Y-84237805D02*
X133744682Y-84183930D01*
X133744682Y-84183930D02*
X133556120Y-83995368D01*
X133556120Y-83995368D02*
X133448371Y-84103118D01*
X134040993Y-83995368D02*
X133475308Y-83429683D01*
X133475308Y-83429683D02*
X134364242Y-83672120D01*
X134364242Y-83672120D02*
X133798557Y-83106434D01*
X134633616Y-83402746D02*
X134067931Y-82837060D01*
X134067931Y-82837060D02*
X134202618Y-82702373D01*
X134202618Y-82702373D02*
X134310367Y-82648498D01*
X134310367Y-82648498D02*
X134418117Y-82648498D01*
X134418117Y-82648498D02*
X134498929Y-82675436D01*
X134498929Y-82675436D02*
X134633616Y-82756248D01*
X134633616Y-82756248D02*
X134714428Y-82837060D01*
X134714428Y-82837060D02*
X134795241Y-82971747D01*
X134795241Y-82971747D02*
X134822178Y-83052560D01*
X134822178Y-83052560D02*
X134822178Y-83160309D01*
X134822178Y-83160309D02*
X134768303Y-83268059D01*
X134768303Y-83268059D02*
X134633616Y-83402746D01*
X106593998Y-112150868D02*
X106513185Y-112177805D01*
X106513185Y-112177805D02*
X106432373Y-112258618D01*
X106432373Y-112258618D02*
X106378498Y-112366367D01*
X106378498Y-112366367D02*
X106378498Y-112474117D01*
X106378498Y-112474117D02*
X106405436Y-112554929D01*
X106405436Y-112554929D02*
X106486248Y-112689616D01*
X106486248Y-112689616D02*
X106567060Y-112770428D01*
X106567060Y-112770428D02*
X106701747Y-112851241D01*
X106701747Y-112851241D02*
X106782560Y-112878178D01*
X106782560Y-112878178D02*
X106890309Y-112878178D01*
X106890309Y-112878178D02*
X106998059Y-112824303D01*
X106998059Y-112824303D02*
X107051934Y-112770428D01*
X107051934Y-112770428D02*
X107105808Y-112662679D01*
X107105808Y-112662679D02*
X107105808Y-112608804D01*
X107105808Y-112608804D02*
X106917247Y-112420242D01*
X106917247Y-112420242D02*
X106809497Y-112527992D01*
X107402120Y-112420242D02*
X106836434Y-111854557D01*
X106836434Y-111854557D02*
X107051934Y-111639057D01*
X107051934Y-111639057D02*
X107132746Y-111612120D01*
X107132746Y-111612120D02*
X107186621Y-111612120D01*
X107186621Y-111612120D02*
X107267433Y-111639057D01*
X107267433Y-111639057D02*
X107348245Y-111719870D01*
X107348245Y-111719870D02*
X107375182Y-111800682D01*
X107375182Y-111800682D02*
X107375182Y-111854557D01*
X107375182Y-111854557D02*
X107348245Y-111935369D01*
X107348245Y-111935369D02*
X107132746Y-112150868D01*
X108264117Y-111558245D02*
X107940868Y-111881494D01*
X108102492Y-111719870D02*
X107536807Y-111154184D01*
X107536807Y-111154184D02*
X107563744Y-111288871D01*
X107563744Y-111288871D02*
X107563744Y-111396621D01*
X107563744Y-111396621D02*
X107536807Y-111477433D01*
X108371866Y-110696248D02*
X108748990Y-111073372D01*
X108021680Y-110615436D02*
X108291054Y-111154184D01*
X108291054Y-111154184D02*
X108641240Y-110803998D01*
X107136435Y-71268431D02*
X107055623Y-71295368D01*
X107055623Y-71295368D02*
X106974811Y-71376180D01*
X106974811Y-71376180D02*
X106920936Y-71483930D01*
X106920936Y-71483930D02*
X106920936Y-71591680D01*
X106920936Y-71591680D02*
X106947873Y-71672492D01*
X106947873Y-71672492D02*
X107028685Y-71807179D01*
X107028685Y-71807179D02*
X107109498Y-71887991D01*
X107109498Y-71887991D02*
X107244185Y-71968803D01*
X107244185Y-71968803D02*
X107324997Y-71995741D01*
X107324997Y-71995741D02*
X107432746Y-71995741D01*
X107432746Y-71995741D02*
X107540496Y-71941866D01*
X107540496Y-71941866D02*
X107594371Y-71887991D01*
X107594371Y-71887991D02*
X107648246Y-71780241D01*
X107648246Y-71780241D02*
X107648246Y-71726367D01*
X107648246Y-71726367D02*
X107459684Y-71537805D01*
X107459684Y-71537805D02*
X107351934Y-71645554D01*
X107944557Y-71537805D02*
X107378872Y-70972119D01*
X107378872Y-70972119D02*
X108267806Y-71214556D01*
X108267806Y-71214556D02*
X107702120Y-70648871D01*
X108537180Y-70945182D02*
X107971494Y-70379497D01*
X107971494Y-70379497D02*
X108106181Y-70244810D01*
X108106181Y-70244810D02*
X108213931Y-70190935D01*
X108213931Y-70190935D02*
X108321680Y-70190935D01*
X108321680Y-70190935D02*
X108402493Y-70217872D01*
X108402493Y-70217872D02*
X108537180Y-70298685D01*
X108537180Y-70298685D02*
X108617992Y-70379497D01*
X108617992Y-70379497D02*
X108698804Y-70514184D01*
X108698804Y-70514184D02*
X108725741Y-70594996D01*
X108725741Y-70594996D02*
X108725741Y-70702746D01*
X108725741Y-70702746D02*
X108671867Y-70810495D01*
X108671867Y-70810495D02*
X108537180Y-70945182D01*
X132747998Y-107070868D02*
X132667185Y-107097805D01*
X132667185Y-107097805D02*
X132586373Y-107178618D01*
X132586373Y-107178618D02*
X132532498Y-107286367D01*
X132532498Y-107286367D02*
X132532498Y-107394117D01*
X132532498Y-107394117D02*
X132559436Y-107474929D01*
X132559436Y-107474929D02*
X132640248Y-107609616D01*
X132640248Y-107609616D02*
X132721060Y-107690428D01*
X132721060Y-107690428D02*
X132855747Y-107771241D01*
X132855747Y-107771241D02*
X132936560Y-107798178D01*
X132936560Y-107798178D02*
X133044309Y-107798178D01*
X133044309Y-107798178D02*
X133152059Y-107744303D01*
X133152059Y-107744303D02*
X133205934Y-107690428D01*
X133205934Y-107690428D02*
X133259808Y-107582679D01*
X133259808Y-107582679D02*
X133259808Y-107528804D01*
X133259808Y-107528804D02*
X133071247Y-107340242D01*
X133071247Y-107340242D02*
X132963497Y-107447992D01*
X133556120Y-107340242D02*
X132990434Y-106774557D01*
X132990434Y-106774557D02*
X133205934Y-106559057D01*
X133205934Y-106559057D02*
X133286746Y-106532120D01*
X133286746Y-106532120D02*
X133340621Y-106532120D01*
X133340621Y-106532120D02*
X133421433Y-106559057D01*
X133421433Y-106559057D02*
X133502245Y-106639870D01*
X133502245Y-106639870D02*
X133529182Y-106720682D01*
X133529182Y-106720682D02*
X133529182Y-106774557D01*
X133529182Y-106774557D02*
X133502245Y-106855369D01*
X133502245Y-106855369D02*
X133286746Y-107070868D01*
X134418117Y-106478245D02*
X134094868Y-106801494D01*
X134256492Y-106639870D02*
X133690807Y-106074184D01*
X133690807Y-106074184D02*
X133717744Y-106208871D01*
X133717744Y-106208871D02*
X133717744Y-106316621D01*
X133717744Y-106316621D02*
X133690807Y-106397433D01*
X134418117Y-105831747D02*
X134337305Y-105858685D01*
X134337305Y-105858685D02*
X134283430Y-105858685D01*
X134283430Y-105858685D02*
X134202618Y-105831747D01*
X134202618Y-105831747D02*
X134175680Y-105804810D01*
X134175680Y-105804810D02*
X134148743Y-105723998D01*
X134148743Y-105723998D02*
X134148743Y-105670123D01*
X134148743Y-105670123D02*
X134175680Y-105589311D01*
X134175680Y-105589311D02*
X134283430Y-105481561D01*
X134283430Y-105481561D02*
X134364242Y-105454624D01*
X134364242Y-105454624D02*
X134418117Y-105454624D01*
X134418117Y-105454624D02*
X134498929Y-105481561D01*
X134498929Y-105481561D02*
X134525866Y-105508499D01*
X134525866Y-105508499D02*
X134552804Y-105589311D01*
X134552804Y-105589311D02*
X134552804Y-105643186D01*
X134552804Y-105643186D02*
X134525866Y-105723998D01*
X134525866Y-105723998D02*
X134418117Y-105831747D01*
X134418117Y-105831747D02*
X134391179Y-105912560D01*
X134391179Y-105912560D02*
X134391179Y-105966434D01*
X134391179Y-105966434D02*
X134418117Y-106047247D01*
X134418117Y-106047247D02*
X134525866Y-106154996D01*
X134525866Y-106154996D02*
X134606679Y-106181934D01*
X134606679Y-106181934D02*
X134660553Y-106181934D01*
X134660553Y-106181934D02*
X134741366Y-106154996D01*
X134741366Y-106154996D02*
X134849115Y-106047247D01*
X134849115Y-106047247D02*
X134876053Y-105966434D01*
X134876053Y-105966434D02*
X134876053Y-105912560D01*
X134876053Y-105912560D02*
X134849115Y-105831747D01*
X134849115Y-105831747D02*
X134741366Y-105723998D01*
X134741366Y-105723998D02*
X134660553Y-105697060D01*
X134660553Y-105697060D02*
X134606679Y-105697060D01*
X134606679Y-105697060D02*
X134525866Y-105723998D01*
X107163372Y-94101494D02*
X107082560Y-94128431D01*
X107082560Y-94128431D02*
X107001748Y-94209243D01*
X107001748Y-94209243D02*
X106947873Y-94316993D01*
X106947873Y-94316993D02*
X106947873Y-94424742D01*
X106947873Y-94424742D02*
X106974810Y-94505555D01*
X106974810Y-94505555D02*
X107055623Y-94640242D01*
X107055623Y-94640242D02*
X107136435Y-94721054D01*
X107136435Y-94721054D02*
X107271122Y-94801866D01*
X107271122Y-94801866D02*
X107351934Y-94828803D01*
X107351934Y-94828803D02*
X107459684Y-94828803D01*
X107459684Y-94828803D02*
X107567433Y-94774929D01*
X107567433Y-94774929D02*
X107621308Y-94721054D01*
X107621308Y-94721054D02*
X107675183Y-94613304D01*
X107675183Y-94613304D02*
X107675183Y-94559429D01*
X107675183Y-94559429D02*
X107486621Y-94370868D01*
X107486621Y-94370868D02*
X107378871Y-94478617D01*
X107971494Y-94370868D02*
X107405809Y-93805182D01*
X107405809Y-93805182D02*
X107621308Y-93589683D01*
X107621308Y-93589683D02*
X107702120Y-93562746D01*
X107702120Y-93562746D02*
X107755995Y-93562746D01*
X107755995Y-93562746D02*
X107836807Y-93589683D01*
X107836807Y-93589683D02*
X107917619Y-93670495D01*
X107917619Y-93670495D02*
X107944557Y-93751307D01*
X107944557Y-93751307D02*
X107944557Y-93805182D01*
X107944557Y-93805182D02*
X107917619Y-93885994D01*
X107917619Y-93885994D02*
X107702120Y-94101494D01*
X108564117Y-93778245D02*
X108671867Y-93670495D01*
X108671867Y-93670495D02*
X108698804Y-93589683D01*
X108698804Y-93589683D02*
X108698804Y-93535808D01*
X108698804Y-93535808D02*
X108671867Y-93401121D01*
X108671867Y-93401121D02*
X108591054Y-93266434D01*
X108591054Y-93266434D02*
X108375555Y-93050935D01*
X108375555Y-93050935D02*
X108294743Y-93023998D01*
X108294743Y-93023998D02*
X108240868Y-93023998D01*
X108240868Y-93023998D02*
X108160056Y-93050935D01*
X108160056Y-93050935D02*
X108052306Y-93158685D01*
X108052306Y-93158685D02*
X108025369Y-93239497D01*
X108025369Y-93239497D02*
X108025369Y-93293372D01*
X108025369Y-93293372D02*
X108052306Y-93374184D01*
X108052306Y-93374184D02*
X108186993Y-93508871D01*
X108186993Y-93508871D02*
X108267806Y-93535808D01*
X108267806Y-93535808D02*
X108321680Y-93535808D01*
X108321680Y-93535808D02*
X108402493Y-93508871D01*
X108402493Y-93508871D02*
X108510242Y-93401121D01*
X108510242Y-93401121D02*
X108537180Y-93320309D01*
X108537180Y-93320309D02*
X108537180Y-93266434D01*
X108537180Y-93266434D02*
X108510242Y-93185622D01*
X107163372Y-86481494D02*
X107082560Y-86508431D01*
X107082560Y-86508431D02*
X107001748Y-86589243D01*
X107001748Y-86589243D02*
X106947873Y-86696993D01*
X106947873Y-86696993D02*
X106947873Y-86804742D01*
X106947873Y-86804742D02*
X106974810Y-86885555D01*
X106974810Y-86885555D02*
X107055623Y-87020242D01*
X107055623Y-87020242D02*
X107136435Y-87101054D01*
X107136435Y-87101054D02*
X107271122Y-87181866D01*
X107271122Y-87181866D02*
X107351934Y-87208803D01*
X107351934Y-87208803D02*
X107459684Y-87208803D01*
X107459684Y-87208803D02*
X107567433Y-87154929D01*
X107567433Y-87154929D02*
X107621308Y-87101054D01*
X107621308Y-87101054D02*
X107675183Y-86993304D01*
X107675183Y-86993304D02*
X107675183Y-86939429D01*
X107675183Y-86939429D02*
X107486621Y-86750868D01*
X107486621Y-86750868D02*
X107378871Y-86858617D01*
X107971494Y-86750868D02*
X107405809Y-86185182D01*
X107405809Y-86185182D02*
X107621308Y-85969683D01*
X107621308Y-85969683D02*
X107702120Y-85942746D01*
X107702120Y-85942746D02*
X107755995Y-85942746D01*
X107755995Y-85942746D02*
X107836807Y-85969683D01*
X107836807Y-85969683D02*
X107917619Y-86050495D01*
X107917619Y-86050495D02*
X107944557Y-86131307D01*
X107944557Y-86131307D02*
X107944557Y-86185182D01*
X107944557Y-86185182D02*
X107917619Y-86265994D01*
X107917619Y-86265994D02*
X107702120Y-86481494D01*
X108213931Y-85377060D02*
X108106181Y-85484810D01*
X108106181Y-85484810D02*
X108079244Y-85565622D01*
X108079244Y-85565622D02*
X108079244Y-85619497D01*
X108079244Y-85619497D02*
X108106181Y-85754184D01*
X108106181Y-85754184D02*
X108186993Y-85888871D01*
X108186993Y-85888871D02*
X108402493Y-86104370D01*
X108402493Y-86104370D02*
X108483305Y-86131307D01*
X108483305Y-86131307D02*
X108537180Y-86131307D01*
X108537180Y-86131307D02*
X108617992Y-86104370D01*
X108617992Y-86104370D02*
X108725741Y-85996620D01*
X108725741Y-85996620D02*
X108752679Y-85915808D01*
X108752679Y-85915808D02*
X108752679Y-85861933D01*
X108752679Y-85861933D02*
X108725741Y-85781121D01*
X108725741Y-85781121D02*
X108591054Y-85646434D01*
X108591054Y-85646434D02*
X108510242Y-85619497D01*
X108510242Y-85619497D02*
X108456367Y-85619497D01*
X108456367Y-85619497D02*
X108375555Y-85646434D01*
X108375555Y-85646434D02*
X108267806Y-85754184D01*
X108267806Y-85754184D02*
X108240868Y-85834996D01*
X108240868Y-85834996D02*
X108240868Y-85888871D01*
X108240868Y-85888871D02*
X108267806Y-85969683D01*
X107136435Y-96668431D02*
X107055623Y-96695368D01*
X107055623Y-96695368D02*
X106974811Y-96776180D01*
X106974811Y-96776180D02*
X106920936Y-96883930D01*
X106920936Y-96883930D02*
X106920936Y-96991680D01*
X106920936Y-96991680D02*
X106947873Y-97072492D01*
X106947873Y-97072492D02*
X107028685Y-97207179D01*
X107028685Y-97207179D02*
X107109498Y-97287991D01*
X107109498Y-97287991D02*
X107244185Y-97368803D01*
X107244185Y-97368803D02*
X107324997Y-97395741D01*
X107324997Y-97395741D02*
X107432746Y-97395741D01*
X107432746Y-97395741D02*
X107540496Y-97341866D01*
X107540496Y-97341866D02*
X107594371Y-97287991D01*
X107594371Y-97287991D02*
X107648246Y-97180241D01*
X107648246Y-97180241D02*
X107648246Y-97126367D01*
X107648246Y-97126367D02*
X107459684Y-96937805D01*
X107459684Y-96937805D02*
X107351934Y-97045554D01*
X107944557Y-96937805D02*
X107378872Y-96372119D01*
X107378872Y-96372119D02*
X108267806Y-96614556D01*
X108267806Y-96614556D02*
X107702120Y-96048871D01*
X108537180Y-96345182D02*
X107971494Y-95779497D01*
X107971494Y-95779497D02*
X108106181Y-95644810D01*
X108106181Y-95644810D02*
X108213931Y-95590935D01*
X108213931Y-95590935D02*
X108321680Y-95590935D01*
X108321680Y-95590935D02*
X108402493Y-95617872D01*
X108402493Y-95617872D02*
X108537180Y-95698685D01*
X108537180Y-95698685D02*
X108617992Y-95779497D01*
X108617992Y-95779497D02*
X108698804Y-95914184D01*
X108698804Y-95914184D02*
X108725741Y-95994996D01*
X108725741Y-95994996D02*
X108725741Y-96102746D01*
X108725741Y-96102746D02*
X108671867Y-96210495D01*
X108671867Y-96210495D02*
X108537180Y-96345182D01*
X106493998Y-101990868D02*
X106413185Y-102017805D01*
X106413185Y-102017805D02*
X106332373Y-102098618D01*
X106332373Y-102098618D02*
X106278498Y-102206367D01*
X106278498Y-102206367D02*
X106278498Y-102314117D01*
X106278498Y-102314117D02*
X106305436Y-102394929D01*
X106305436Y-102394929D02*
X106386248Y-102529616D01*
X106386248Y-102529616D02*
X106467060Y-102610428D01*
X106467060Y-102610428D02*
X106601747Y-102691241D01*
X106601747Y-102691241D02*
X106682560Y-102718178D01*
X106682560Y-102718178D02*
X106790309Y-102718178D01*
X106790309Y-102718178D02*
X106898059Y-102664303D01*
X106898059Y-102664303D02*
X106951934Y-102610428D01*
X106951934Y-102610428D02*
X107005808Y-102502679D01*
X107005808Y-102502679D02*
X107005808Y-102448804D01*
X107005808Y-102448804D02*
X106817247Y-102260242D01*
X106817247Y-102260242D02*
X106709497Y-102367992D01*
X107302120Y-102260242D02*
X106736434Y-101694557D01*
X106736434Y-101694557D02*
X106951934Y-101479057D01*
X106951934Y-101479057D02*
X107032746Y-101452120D01*
X107032746Y-101452120D02*
X107086621Y-101452120D01*
X107086621Y-101452120D02*
X107167433Y-101479057D01*
X107167433Y-101479057D02*
X107248245Y-101559870D01*
X107248245Y-101559870D02*
X107275182Y-101640682D01*
X107275182Y-101640682D02*
X107275182Y-101694557D01*
X107275182Y-101694557D02*
X107248245Y-101775369D01*
X107248245Y-101775369D02*
X107032746Y-101990868D01*
X108164117Y-101398245D02*
X107840868Y-101721494D01*
X108002492Y-101559870D02*
X107436807Y-100994184D01*
X107436807Y-100994184D02*
X107463744Y-101128871D01*
X107463744Y-101128871D02*
X107463744Y-101236621D01*
X107463744Y-101236621D02*
X107436807Y-101317433D01*
X108702865Y-100859497D02*
X108379616Y-101182746D01*
X108541240Y-101021121D02*
X107975555Y-100455436D01*
X107975555Y-100455436D02*
X108002492Y-100590123D01*
X108002492Y-100590123D02*
X108002492Y-100697873D01*
X108002492Y-100697873D02*
X107975555Y-100778685D01*
X132572407Y-74128584D02*
X132922593Y-73778398D01*
X132922593Y-73778398D02*
X132949531Y-74182459D01*
X132949531Y-74182459D02*
X133030343Y-74101646D01*
X133030343Y-74101646D02*
X133111155Y-74074709D01*
X133111155Y-74074709D02*
X133165030Y-74074709D01*
X133165030Y-74074709D02*
X133245842Y-74101646D01*
X133245842Y-74101646D02*
X133380529Y-74236333D01*
X133380529Y-74236333D02*
X133407467Y-74317146D01*
X133407467Y-74317146D02*
X133407467Y-74371020D01*
X133407467Y-74371020D02*
X133380529Y-74451833D01*
X133380529Y-74451833D02*
X133218905Y-74613457D01*
X133218905Y-74613457D02*
X133138093Y-74640394D01*
X133138093Y-74640394D02*
X133084218Y-74640394D01*
X133084218Y-73616773D02*
X133838465Y-73993897D01*
X133838465Y-73993897D02*
X133461342Y-73239649D01*
X133596028Y-73104963D02*
X133946215Y-72754776D01*
X133946215Y-72754776D02*
X133973152Y-73158837D01*
X133973152Y-73158837D02*
X134053964Y-73078025D01*
X134053964Y-73078025D02*
X134134776Y-73051088D01*
X134134776Y-73051088D02*
X134188651Y-73051088D01*
X134188651Y-73051088D02*
X134269464Y-73078025D01*
X134269464Y-73078025D02*
X134404151Y-73212712D01*
X134404151Y-73212712D02*
X134431088Y-73293524D01*
X134431088Y-73293524D02*
X134431088Y-73347399D01*
X134431088Y-73347399D02*
X134404151Y-73428211D01*
X134404151Y-73428211D02*
X134242526Y-73589836D01*
X134242526Y-73589836D02*
X134161714Y-73616773D01*
X134161714Y-73616773D02*
X134107839Y-73616773D01*
X134673525Y-73266587D02*
X135104523Y-72835588D01*
X134889024Y-72350715D02*
X135077586Y-72162153D01*
X135454709Y-72377652D02*
X135185335Y-72647026D01*
X135185335Y-72647026D02*
X134619650Y-72081341D01*
X134619650Y-72081341D02*
X134889024Y-71811967D01*
X135697146Y-72135215D02*
X135131461Y-71569530D01*
X135131461Y-71569530D02*
X136020395Y-71811967D01*
X136020395Y-71811967D02*
X135454710Y-71246281D01*
X107163372Y-76321494D02*
X107082560Y-76348431D01*
X107082560Y-76348431D02*
X107001748Y-76429243D01*
X107001748Y-76429243D02*
X106947873Y-76536993D01*
X106947873Y-76536993D02*
X106947873Y-76644742D01*
X106947873Y-76644742D02*
X106974810Y-76725555D01*
X106974810Y-76725555D02*
X107055623Y-76860242D01*
X107055623Y-76860242D02*
X107136435Y-76941054D01*
X107136435Y-76941054D02*
X107271122Y-77021866D01*
X107271122Y-77021866D02*
X107351934Y-77048803D01*
X107351934Y-77048803D02*
X107459684Y-77048803D01*
X107459684Y-77048803D02*
X107567433Y-76994929D01*
X107567433Y-76994929D02*
X107621308Y-76941054D01*
X107621308Y-76941054D02*
X107675183Y-76833304D01*
X107675183Y-76833304D02*
X107675183Y-76779429D01*
X107675183Y-76779429D02*
X107486621Y-76590868D01*
X107486621Y-76590868D02*
X107378871Y-76698617D01*
X107971494Y-76590868D02*
X107405809Y-76025182D01*
X107405809Y-76025182D02*
X107621308Y-75809683D01*
X107621308Y-75809683D02*
X107702120Y-75782746D01*
X107702120Y-75782746D02*
X107755995Y-75782746D01*
X107755995Y-75782746D02*
X107836807Y-75809683D01*
X107836807Y-75809683D02*
X107917619Y-75890495D01*
X107917619Y-75890495D02*
X107944557Y-75971307D01*
X107944557Y-75971307D02*
X107944557Y-76025182D01*
X107944557Y-76025182D02*
X107917619Y-76105994D01*
X107917619Y-76105994D02*
X107702120Y-76321494D01*
X107917619Y-75513372D02*
X108267806Y-75163185D01*
X108267806Y-75163185D02*
X108294743Y-75567246D01*
X108294743Y-75567246D02*
X108375555Y-75486434D01*
X108375555Y-75486434D02*
X108456367Y-75459497D01*
X108456367Y-75459497D02*
X108510242Y-75459497D01*
X108510242Y-75459497D02*
X108591054Y-75486434D01*
X108591054Y-75486434D02*
X108725741Y-75621121D01*
X108725741Y-75621121D02*
X108752679Y-75701933D01*
X108752679Y-75701933D02*
X108752679Y-75755808D01*
X108752679Y-75755808D02*
X108725741Y-75836620D01*
X108725741Y-75836620D02*
X108564117Y-75998245D01*
X108564117Y-75998245D02*
X108483305Y-76025182D01*
X108483305Y-76025182D02*
X108429430Y-76025182D01*
X132747998Y-86760868D02*
X132667185Y-86787805D01*
X132667185Y-86787805D02*
X132586373Y-86868618D01*
X132586373Y-86868618D02*
X132532498Y-86976367D01*
X132532498Y-86976367D02*
X132532498Y-87084117D01*
X132532498Y-87084117D02*
X132559436Y-87164929D01*
X132559436Y-87164929D02*
X132640248Y-87299616D01*
X132640248Y-87299616D02*
X132721060Y-87380428D01*
X132721060Y-87380428D02*
X132855747Y-87461241D01*
X132855747Y-87461241D02*
X132936560Y-87488178D01*
X132936560Y-87488178D02*
X133044309Y-87488178D01*
X133044309Y-87488178D02*
X133152059Y-87434303D01*
X133152059Y-87434303D02*
X133205934Y-87380428D01*
X133205934Y-87380428D02*
X133259808Y-87272679D01*
X133259808Y-87272679D02*
X133259808Y-87218804D01*
X133259808Y-87218804D02*
X133071247Y-87030242D01*
X133071247Y-87030242D02*
X132963497Y-87137992D01*
X133556120Y-87030242D02*
X132990434Y-86464557D01*
X132990434Y-86464557D02*
X133205934Y-86249057D01*
X133205934Y-86249057D02*
X133286746Y-86222120D01*
X133286746Y-86222120D02*
X133340621Y-86222120D01*
X133340621Y-86222120D02*
X133421433Y-86249057D01*
X133421433Y-86249057D02*
X133502245Y-86329870D01*
X133502245Y-86329870D02*
X133529182Y-86410682D01*
X133529182Y-86410682D02*
X133529182Y-86464557D01*
X133529182Y-86464557D02*
X133502245Y-86545369D01*
X133502245Y-86545369D02*
X133286746Y-86760868D01*
X133583057Y-85979683D02*
X133583057Y-85925809D01*
X133583057Y-85925809D02*
X133609995Y-85844996D01*
X133609995Y-85844996D02*
X133744682Y-85710309D01*
X133744682Y-85710309D02*
X133825494Y-85683372D01*
X133825494Y-85683372D02*
X133879369Y-85683372D01*
X133879369Y-85683372D02*
X133960181Y-85710309D01*
X133960181Y-85710309D02*
X134014056Y-85764184D01*
X134014056Y-85764184D02*
X134067930Y-85871934D01*
X134067930Y-85871934D02*
X134067930Y-86518431D01*
X134067930Y-86518431D02*
X134418117Y-86168245D01*
X134040993Y-85413998D02*
X134418117Y-85036874D01*
X134418117Y-85036874D02*
X134741366Y-85844996D01*
X107163372Y-78861494D02*
X107082560Y-78888431D01*
X107082560Y-78888431D02*
X107001748Y-78969243D01*
X107001748Y-78969243D02*
X106947873Y-79076993D01*
X106947873Y-79076993D02*
X106947873Y-79184742D01*
X106947873Y-79184742D02*
X106974810Y-79265555D01*
X106974810Y-79265555D02*
X107055623Y-79400242D01*
X107055623Y-79400242D02*
X107136435Y-79481054D01*
X107136435Y-79481054D02*
X107271122Y-79561866D01*
X107271122Y-79561866D02*
X107351934Y-79588803D01*
X107351934Y-79588803D02*
X107459684Y-79588803D01*
X107459684Y-79588803D02*
X107567433Y-79534929D01*
X107567433Y-79534929D02*
X107621308Y-79481054D01*
X107621308Y-79481054D02*
X107675183Y-79373304D01*
X107675183Y-79373304D02*
X107675183Y-79319429D01*
X107675183Y-79319429D02*
X107486621Y-79130868D01*
X107486621Y-79130868D02*
X107378871Y-79238617D01*
X107971494Y-79130868D02*
X107405809Y-78565182D01*
X107405809Y-78565182D02*
X107621308Y-78349683D01*
X107621308Y-78349683D02*
X107702120Y-78322746D01*
X107702120Y-78322746D02*
X107755995Y-78322746D01*
X107755995Y-78322746D02*
X107836807Y-78349683D01*
X107836807Y-78349683D02*
X107917619Y-78430495D01*
X107917619Y-78430495D02*
X107944557Y-78511307D01*
X107944557Y-78511307D02*
X107944557Y-78565182D01*
X107944557Y-78565182D02*
X107917619Y-78645994D01*
X107917619Y-78645994D02*
X107702120Y-78861494D01*
X108402493Y-77945622D02*
X108779616Y-78322746D01*
X108052306Y-77864810D02*
X108321680Y-78403558D01*
X108321680Y-78403558D02*
X108671867Y-78053372D01*
X133488651Y-92113710D02*
X133030716Y-92032898D01*
X133165403Y-92436959D02*
X132599717Y-91871274D01*
X132599717Y-91871274D02*
X132815216Y-91655775D01*
X132815216Y-91655775D02*
X132896029Y-91628837D01*
X132896029Y-91628837D02*
X132949903Y-91628837D01*
X132949903Y-91628837D02*
X133030716Y-91655775D01*
X133030716Y-91655775D02*
X133111528Y-91736587D01*
X133111528Y-91736587D02*
X133138465Y-91817399D01*
X133138465Y-91817399D02*
X133138465Y-91871274D01*
X133138465Y-91871274D02*
X133111528Y-91952086D01*
X133111528Y-91952086D02*
X132896029Y-92167585D01*
X133165403Y-91305588D02*
X133623338Y-91763524D01*
X133623338Y-91763524D02*
X133704151Y-91790462D01*
X133704151Y-91790462D02*
X133758025Y-91790462D01*
X133758025Y-91790462D02*
X133838838Y-91763524D01*
X133838838Y-91763524D02*
X133946587Y-91655775D01*
X133946587Y-91655775D02*
X133973525Y-91574962D01*
X133973525Y-91574962D02*
X133973525Y-91521088D01*
X133973525Y-91521088D02*
X133946587Y-91440275D01*
X133946587Y-91440275D02*
X133488651Y-90982340D01*
X134323711Y-91278651D02*
X133758025Y-90712966D01*
X133758025Y-90712966D02*
X134646959Y-90955402D01*
X134646959Y-90955402D02*
X134081274Y-90389717D01*
X106639998Y-99450868D02*
X106559185Y-99477805D01*
X106559185Y-99477805D02*
X106478373Y-99558618D01*
X106478373Y-99558618D02*
X106424498Y-99666367D01*
X106424498Y-99666367D02*
X106424498Y-99774117D01*
X106424498Y-99774117D02*
X106451436Y-99854929D01*
X106451436Y-99854929D02*
X106532248Y-99989616D01*
X106532248Y-99989616D02*
X106613060Y-100070428D01*
X106613060Y-100070428D02*
X106747747Y-100151241D01*
X106747747Y-100151241D02*
X106828560Y-100178178D01*
X106828560Y-100178178D02*
X106936309Y-100178178D01*
X106936309Y-100178178D02*
X107044059Y-100124303D01*
X107044059Y-100124303D02*
X107097934Y-100070428D01*
X107097934Y-100070428D02*
X107151808Y-99962679D01*
X107151808Y-99962679D02*
X107151808Y-99908804D01*
X107151808Y-99908804D02*
X106963247Y-99720242D01*
X106963247Y-99720242D02*
X106855497Y-99827992D01*
X107448120Y-99720242D02*
X106882434Y-99154557D01*
X106882434Y-99154557D02*
X107097934Y-98939057D01*
X107097934Y-98939057D02*
X107178746Y-98912120D01*
X107178746Y-98912120D02*
X107232621Y-98912120D01*
X107232621Y-98912120D02*
X107313433Y-98939057D01*
X107313433Y-98939057D02*
X107394245Y-99019870D01*
X107394245Y-99019870D02*
X107421182Y-99100682D01*
X107421182Y-99100682D02*
X107421182Y-99154557D01*
X107421182Y-99154557D02*
X107394245Y-99235369D01*
X107394245Y-99235369D02*
X107178746Y-99450868D01*
X108310117Y-98858245D02*
X107986868Y-99181494D01*
X108148492Y-99019870D02*
X107582807Y-98454184D01*
X107582807Y-98454184D02*
X107609744Y-98588871D01*
X107609744Y-98588871D02*
X107609744Y-98696621D01*
X107609744Y-98696621D02*
X107582807Y-98777433D01*
X108094618Y-97942373D02*
X108148492Y-97888499D01*
X108148492Y-97888499D02*
X108229305Y-97861561D01*
X108229305Y-97861561D02*
X108283179Y-97861561D01*
X108283179Y-97861561D02*
X108363992Y-97888499D01*
X108363992Y-97888499D02*
X108498679Y-97969311D01*
X108498679Y-97969311D02*
X108633366Y-98103998D01*
X108633366Y-98103998D02*
X108714178Y-98238685D01*
X108714178Y-98238685D02*
X108741115Y-98319497D01*
X108741115Y-98319497D02*
X108741115Y-98373372D01*
X108741115Y-98373372D02*
X108714178Y-98454184D01*
X108714178Y-98454184D02*
X108660303Y-98508059D01*
X108660303Y-98508059D02*
X108579491Y-98534996D01*
X108579491Y-98534996D02*
X108525616Y-98534996D01*
X108525616Y-98534996D02*
X108444804Y-98508059D01*
X108444804Y-98508059D02*
X108310117Y-98427247D01*
X108310117Y-98427247D02*
X108175430Y-98292560D01*
X108175430Y-98292560D02*
X108094618Y-98157873D01*
X108094618Y-98157873D02*
X108067680Y-98077060D01*
X108067680Y-98077060D02*
X108067680Y-98023186D01*
X108067680Y-98023186D02*
X108094618Y-97942373D01*
X132736435Y-71268431D02*
X132655623Y-71295368D01*
X132655623Y-71295368D02*
X132574811Y-71376180D01*
X132574811Y-71376180D02*
X132520936Y-71483930D01*
X132520936Y-71483930D02*
X132520936Y-71591680D01*
X132520936Y-71591680D02*
X132547873Y-71672492D01*
X132547873Y-71672492D02*
X132628685Y-71807179D01*
X132628685Y-71807179D02*
X132709498Y-71887991D01*
X132709498Y-71887991D02*
X132844185Y-71968803D01*
X132844185Y-71968803D02*
X132924997Y-71995741D01*
X132924997Y-71995741D02*
X133032746Y-71995741D01*
X133032746Y-71995741D02*
X133140496Y-71941866D01*
X133140496Y-71941866D02*
X133194371Y-71887991D01*
X133194371Y-71887991D02*
X133248246Y-71780241D01*
X133248246Y-71780241D02*
X133248246Y-71726367D01*
X133248246Y-71726367D02*
X133059684Y-71537805D01*
X133059684Y-71537805D02*
X132951934Y-71645554D01*
X133544557Y-71537805D02*
X132978872Y-70972119D01*
X132978872Y-70972119D02*
X133867806Y-71214556D01*
X133867806Y-71214556D02*
X133302120Y-70648871D01*
X134137180Y-70945182D02*
X133571494Y-70379497D01*
X133571494Y-70379497D02*
X133706181Y-70244810D01*
X133706181Y-70244810D02*
X133813931Y-70190935D01*
X133813931Y-70190935D02*
X133921680Y-70190935D01*
X133921680Y-70190935D02*
X134002493Y-70217872D01*
X134002493Y-70217872D02*
X134137180Y-70298685D01*
X134137180Y-70298685D02*
X134217992Y-70379497D01*
X134217992Y-70379497D02*
X134298804Y-70514184D01*
X134298804Y-70514184D02*
X134325741Y-70594996D01*
X134325741Y-70594996D02*
X134325741Y-70702746D01*
X134325741Y-70702746D02*
X134271867Y-70810495D01*
X134271867Y-70810495D02*
X134137180Y-70945182D01*
X107136435Y-83968431D02*
X107055623Y-83995368D01*
X107055623Y-83995368D02*
X106974811Y-84076180D01*
X106974811Y-84076180D02*
X106920936Y-84183930D01*
X106920936Y-84183930D02*
X106920936Y-84291680D01*
X106920936Y-84291680D02*
X106947873Y-84372492D01*
X106947873Y-84372492D02*
X107028685Y-84507179D01*
X107028685Y-84507179D02*
X107109498Y-84587991D01*
X107109498Y-84587991D02*
X107244185Y-84668803D01*
X107244185Y-84668803D02*
X107324997Y-84695741D01*
X107324997Y-84695741D02*
X107432746Y-84695741D01*
X107432746Y-84695741D02*
X107540496Y-84641866D01*
X107540496Y-84641866D02*
X107594371Y-84587991D01*
X107594371Y-84587991D02*
X107648246Y-84480241D01*
X107648246Y-84480241D02*
X107648246Y-84426367D01*
X107648246Y-84426367D02*
X107459684Y-84237805D01*
X107459684Y-84237805D02*
X107351934Y-84345554D01*
X107944557Y-84237805D02*
X107378872Y-83672119D01*
X107378872Y-83672119D02*
X108267806Y-83914556D01*
X108267806Y-83914556D02*
X107702120Y-83348871D01*
X108537180Y-83645182D02*
X107971494Y-83079497D01*
X107971494Y-83079497D02*
X108106181Y-82944810D01*
X108106181Y-82944810D02*
X108213931Y-82890935D01*
X108213931Y-82890935D02*
X108321680Y-82890935D01*
X108321680Y-82890935D02*
X108402493Y-82917872D01*
X108402493Y-82917872D02*
X108537180Y-82998685D01*
X108537180Y-82998685D02*
X108617992Y-83079497D01*
X108617992Y-83079497D02*
X108698804Y-83214184D01*
X108698804Y-83214184D02*
X108725741Y-83294996D01*
X108725741Y-83294996D02*
X108725741Y-83402746D01*
X108725741Y-83402746D02*
X108671867Y-83510495D01*
X108671867Y-83510495D02*
X108537180Y-83645182D01*
X132805064Y-79704049D02*
X133074438Y-79434675D01*
X132912813Y-79919549D02*
X132535690Y-79165301D01*
X132535690Y-79165301D02*
X133289937Y-79542425D01*
X133478499Y-79353863D02*
X132912813Y-78788178D01*
X132912813Y-78788178D02*
X133047500Y-78653491D01*
X133047500Y-78653491D02*
X133155250Y-78599616D01*
X133155250Y-78599616D02*
X133262999Y-78599616D01*
X133262999Y-78599616D02*
X133343812Y-78626553D01*
X133343812Y-78626553D02*
X133478499Y-78707366D01*
X133478499Y-78707366D02*
X133559311Y-78788178D01*
X133559311Y-78788178D02*
X133640123Y-78922865D01*
X133640123Y-78922865D02*
X133667060Y-79003677D01*
X133667060Y-79003677D02*
X133667060Y-79111427D01*
X133667060Y-79111427D02*
X133613186Y-79219176D01*
X133613186Y-79219176D02*
X133478499Y-79353863D01*
X134313558Y-78411054D02*
X134313558Y-78464929D01*
X134313558Y-78464929D02*
X134259683Y-78572679D01*
X134259683Y-78572679D02*
X134205808Y-78626553D01*
X134205808Y-78626553D02*
X134098059Y-78680428D01*
X134098059Y-78680428D02*
X133990309Y-78680428D01*
X133990309Y-78680428D02*
X133909497Y-78653491D01*
X133909497Y-78653491D02*
X133774810Y-78572679D01*
X133774810Y-78572679D02*
X133693998Y-78491866D01*
X133693998Y-78491866D02*
X133613186Y-78357179D01*
X133613186Y-78357179D02*
X133586248Y-78276367D01*
X133586248Y-78276367D02*
X133586248Y-78168618D01*
X133586248Y-78168618D02*
X133640123Y-78060868D01*
X133640123Y-78060868D02*
X133693998Y-78006993D01*
X133693998Y-78006993D02*
X133801747Y-77953118D01*
X133801747Y-77953118D02*
X133855622Y-77953118D01*
X134529057Y-78411054D02*
X134960056Y-77980056D01*
X134394370Y-77306621D02*
X135148618Y-77683744D01*
X135148618Y-77683744D02*
X134771494Y-76929497D01*
X135848990Y-76983372D02*
X135391054Y-76902560D01*
X135525741Y-77306621D02*
X134960056Y-76740935D01*
X134960056Y-76740935D02*
X135175555Y-76525436D01*
X135175555Y-76525436D02*
X135256367Y-76498499D01*
X135256367Y-76498499D02*
X135310242Y-76498499D01*
X135310242Y-76498499D02*
X135391054Y-76525436D01*
X135391054Y-76525436D02*
X135471866Y-76606248D01*
X135471866Y-76606248D02*
X135498804Y-76687061D01*
X135498804Y-76687061D02*
X135498804Y-76740935D01*
X135498804Y-76740935D02*
X135471866Y-76821748D01*
X135471866Y-76821748D02*
X135256367Y-77037247D01*
X135795115Y-76444624D02*
X135983677Y-76256062D01*
X136360800Y-76471561D02*
X136091426Y-76740935D01*
X136091426Y-76740935D02*
X135525741Y-76175250D01*
X135525741Y-76175250D02*
X135795115Y-75905876D01*
X136495488Y-75744251D02*
X136306926Y-75932813D01*
X136603237Y-76229125D02*
X136037552Y-75663439D01*
X136037552Y-75663439D02*
X136306926Y-75394065D01*
X107163372Y-91561494D02*
X107082560Y-91588431D01*
X107082560Y-91588431D02*
X107001748Y-91669243D01*
X107001748Y-91669243D02*
X106947873Y-91776993D01*
X106947873Y-91776993D02*
X106947873Y-91884742D01*
X106947873Y-91884742D02*
X106974810Y-91965555D01*
X106974810Y-91965555D02*
X107055623Y-92100242D01*
X107055623Y-92100242D02*
X107136435Y-92181054D01*
X107136435Y-92181054D02*
X107271122Y-92261866D01*
X107271122Y-92261866D02*
X107351934Y-92288803D01*
X107351934Y-92288803D02*
X107459684Y-92288803D01*
X107459684Y-92288803D02*
X107567433Y-92234929D01*
X107567433Y-92234929D02*
X107621308Y-92181054D01*
X107621308Y-92181054D02*
X107675183Y-92073304D01*
X107675183Y-92073304D02*
X107675183Y-92019429D01*
X107675183Y-92019429D02*
X107486621Y-91830868D01*
X107486621Y-91830868D02*
X107378871Y-91938617D01*
X107971494Y-91830868D02*
X107405809Y-91265182D01*
X107405809Y-91265182D02*
X107621308Y-91049683D01*
X107621308Y-91049683D02*
X107702120Y-91022746D01*
X107702120Y-91022746D02*
X107755995Y-91022746D01*
X107755995Y-91022746D02*
X107836807Y-91049683D01*
X107836807Y-91049683D02*
X107917619Y-91130495D01*
X107917619Y-91130495D02*
X107944557Y-91211307D01*
X107944557Y-91211307D02*
X107944557Y-91265182D01*
X107944557Y-91265182D02*
X107917619Y-91345994D01*
X107917619Y-91345994D02*
X107702120Y-91561494D01*
X108294743Y-90861121D02*
X108213931Y-90888059D01*
X108213931Y-90888059D02*
X108160056Y-90888059D01*
X108160056Y-90888059D02*
X108079244Y-90861121D01*
X108079244Y-90861121D02*
X108052306Y-90834184D01*
X108052306Y-90834184D02*
X108025369Y-90753372D01*
X108025369Y-90753372D02*
X108025369Y-90699497D01*
X108025369Y-90699497D02*
X108052306Y-90618685D01*
X108052306Y-90618685D02*
X108160056Y-90510935D01*
X108160056Y-90510935D02*
X108240868Y-90483998D01*
X108240868Y-90483998D02*
X108294743Y-90483998D01*
X108294743Y-90483998D02*
X108375555Y-90510935D01*
X108375555Y-90510935D02*
X108402493Y-90537872D01*
X108402493Y-90537872D02*
X108429430Y-90618685D01*
X108429430Y-90618685D02*
X108429430Y-90672559D01*
X108429430Y-90672559D02*
X108402493Y-90753372D01*
X108402493Y-90753372D02*
X108294743Y-90861121D01*
X108294743Y-90861121D02*
X108267806Y-90941933D01*
X108267806Y-90941933D02*
X108267806Y-90995808D01*
X108267806Y-90995808D02*
X108294743Y-91076620D01*
X108294743Y-91076620D02*
X108402493Y-91184370D01*
X108402493Y-91184370D02*
X108483305Y-91211307D01*
X108483305Y-91211307D02*
X108537180Y-91211307D01*
X108537180Y-91211307D02*
X108617992Y-91184370D01*
X108617992Y-91184370D02*
X108725741Y-91076620D01*
X108725741Y-91076620D02*
X108752679Y-90995808D01*
X108752679Y-90995808D02*
X108752679Y-90941933D01*
X108752679Y-90941933D02*
X108725741Y-90861121D01*
X108725741Y-90861121D02*
X108617992Y-90753372D01*
X108617992Y-90753372D02*
X108537180Y-90726434D01*
X108537180Y-90726434D02*
X108483305Y-90726434D01*
X108483305Y-90726434D02*
X108402493Y-90753372D01*
X107063372Y-73781494D02*
X106982560Y-73808431D01*
X106982560Y-73808431D02*
X106901748Y-73889243D01*
X106901748Y-73889243D02*
X106847873Y-73996993D01*
X106847873Y-73996993D02*
X106847873Y-74104742D01*
X106847873Y-74104742D02*
X106874810Y-74185555D01*
X106874810Y-74185555D02*
X106955623Y-74320242D01*
X106955623Y-74320242D02*
X107036435Y-74401054D01*
X107036435Y-74401054D02*
X107171122Y-74481866D01*
X107171122Y-74481866D02*
X107251934Y-74508803D01*
X107251934Y-74508803D02*
X107359684Y-74508803D01*
X107359684Y-74508803D02*
X107467433Y-74454929D01*
X107467433Y-74454929D02*
X107521308Y-74401054D01*
X107521308Y-74401054D02*
X107575183Y-74293304D01*
X107575183Y-74293304D02*
X107575183Y-74239429D01*
X107575183Y-74239429D02*
X107386621Y-74050868D01*
X107386621Y-74050868D02*
X107278871Y-74158617D01*
X107871494Y-74050868D02*
X107305809Y-73485182D01*
X107305809Y-73485182D02*
X107521308Y-73269683D01*
X107521308Y-73269683D02*
X107602120Y-73242746D01*
X107602120Y-73242746D02*
X107655995Y-73242746D01*
X107655995Y-73242746D02*
X107736807Y-73269683D01*
X107736807Y-73269683D02*
X107817619Y-73350495D01*
X107817619Y-73350495D02*
X107844557Y-73431307D01*
X107844557Y-73431307D02*
X107844557Y-73485182D01*
X107844557Y-73485182D02*
X107817619Y-73565994D01*
X107817619Y-73565994D02*
X107602120Y-73781494D01*
X107898432Y-73000309D02*
X107898432Y-72946434D01*
X107898432Y-72946434D02*
X107925369Y-72865622D01*
X107925369Y-72865622D02*
X108060056Y-72730935D01*
X108060056Y-72730935D02*
X108140868Y-72703998D01*
X108140868Y-72703998D02*
X108194743Y-72703998D01*
X108194743Y-72703998D02*
X108275555Y-72730935D01*
X108275555Y-72730935D02*
X108329430Y-72784810D01*
X108329430Y-72784810D02*
X108383305Y-72892559D01*
X108383305Y-72892559D02*
X108383305Y-73539057D01*
X108383305Y-73539057D02*
X108733491Y-73188871D01*
X107163372Y-81401494D02*
X107082560Y-81428431D01*
X107082560Y-81428431D02*
X107001748Y-81509243D01*
X107001748Y-81509243D02*
X106947873Y-81616993D01*
X106947873Y-81616993D02*
X106947873Y-81724742D01*
X106947873Y-81724742D02*
X106974810Y-81805555D01*
X106974810Y-81805555D02*
X107055623Y-81940242D01*
X107055623Y-81940242D02*
X107136435Y-82021054D01*
X107136435Y-82021054D02*
X107271122Y-82101866D01*
X107271122Y-82101866D02*
X107351934Y-82128803D01*
X107351934Y-82128803D02*
X107459684Y-82128803D01*
X107459684Y-82128803D02*
X107567433Y-82074929D01*
X107567433Y-82074929D02*
X107621308Y-82021054D01*
X107621308Y-82021054D02*
X107675183Y-81913304D01*
X107675183Y-81913304D02*
X107675183Y-81859429D01*
X107675183Y-81859429D02*
X107486621Y-81670868D01*
X107486621Y-81670868D02*
X107378871Y-81778617D01*
X107971494Y-81670868D02*
X107405809Y-81105182D01*
X107405809Y-81105182D02*
X107621308Y-80889683D01*
X107621308Y-80889683D02*
X107702120Y-80862746D01*
X107702120Y-80862746D02*
X107755995Y-80862746D01*
X107755995Y-80862746D02*
X107836807Y-80889683D01*
X107836807Y-80889683D02*
X107917619Y-80970495D01*
X107917619Y-80970495D02*
X107944557Y-81051307D01*
X107944557Y-81051307D02*
X107944557Y-81105182D01*
X107944557Y-81105182D02*
X107917619Y-81185994D01*
X107917619Y-81185994D02*
X107702120Y-81401494D01*
X108240868Y-80270123D02*
X107971494Y-80539497D01*
X107971494Y-80539497D02*
X108213931Y-80835808D01*
X108213931Y-80835808D02*
X108213931Y-80781933D01*
X108213931Y-80781933D02*
X108240868Y-80701121D01*
X108240868Y-80701121D02*
X108375555Y-80566434D01*
X108375555Y-80566434D02*
X108456367Y-80539497D01*
X108456367Y-80539497D02*
X108510242Y-80539497D01*
X108510242Y-80539497D02*
X108591054Y-80566434D01*
X108591054Y-80566434D02*
X108725741Y-80701121D01*
X108725741Y-80701121D02*
X108752679Y-80781933D01*
X108752679Y-80781933D02*
X108752679Y-80835808D01*
X108752679Y-80835808D02*
X108725741Y-80916620D01*
X108725741Y-80916620D02*
X108591054Y-81051307D01*
X108591054Y-81051307D02*
X108510242Y-81078245D01*
X108510242Y-81078245D02*
X108456367Y-81078245D01*
X132540123Y-76660868D02*
X132890309Y-76310682D01*
X132890309Y-76310682D02*
X132917247Y-76714743D01*
X132917247Y-76714743D02*
X132998059Y-76633931D01*
X132998059Y-76633931D02*
X133078871Y-76606993D01*
X133078871Y-76606993D02*
X133132746Y-76606993D01*
X133132746Y-76606993D02*
X133213558Y-76633931D01*
X133213558Y-76633931D02*
X133348245Y-76768618D01*
X133348245Y-76768618D02*
X133375182Y-76849430D01*
X133375182Y-76849430D02*
X133375182Y-76903305D01*
X133375182Y-76903305D02*
X133348245Y-76984117D01*
X133348245Y-76984117D02*
X133186621Y-77145741D01*
X133186621Y-77145741D02*
X133105808Y-77172679D01*
X133105808Y-77172679D02*
X133051934Y-77172679D01*
X133051934Y-76149057D02*
X133806181Y-76526181D01*
X133806181Y-76526181D02*
X133429057Y-75771934D01*
X133563744Y-75637247D02*
X133913930Y-75287061D01*
X133913930Y-75287061D02*
X133940868Y-75691122D01*
X133940868Y-75691122D02*
X134021680Y-75610309D01*
X134021680Y-75610309D02*
X134102492Y-75583372D01*
X134102492Y-75583372D02*
X134156367Y-75583372D01*
X134156367Y-75583372D02*
X134237179Y-75610309D01*
X134237179Y-75610309D02*
X134371866Y-75744996D01*
X134371866Y-75744996D02*
X134398804Y-75825809D01*
X134398804Y-75825809D02*
X134398804Y-75879683D01*
X134398804Y-75879683D02*
X134371866Y-75960496D01*
X134371866Y-75960496D02*
X134210242Y-76122120D01*
X134210242Y-76122120D02*
X134129430Y-76149057D01*
X134129430Y-76149057D02*
X134075555Y-76149057D01*
X132736435Y-96668431D02*
X132655623Y-96695368D01*
X132655623Y-96695368D02*
X132574811Y-96776180D01*
X132574811Y-96776180D02*
X132520936Y-96883930D01*
X132520936Y-96883930D02*
X132520936Y-96991680D01*
X132520936Y-96991680D02*
X132547873Y-97072492D01*
X132547873Y-97072492D02*
X132628685Y-97207179D01*
X132628685Y-97207179D02*
X132709498Y-97287991D01*
X132709498Y-97287991D02*
X132844185Y-97368803D01*
X132844185Y-97368803D02*
X132924997Y-97395741D01*
X132924997Y-97395741D02*
X133032746Y-97395741D01*
X133032746Y-97395741D02*
X133140496Y-97341866D01*
X133140496Y-97341866D02*
X133194371Y-97287991D01*
X133194371Y-97287991D02*
X133248246Y-97180241D01*
X133248246Y-97180241D02*
X133248246Y-97126367D01*
X133248246Y-97126367D02*
X133059684Y-96937805D01*
X133059684Y-96937805D02*
X132951934Y-97045554D01*
X133544557Y-96937805D02*
X132978872Y-96372119D01*
X132978872Y-96372119D02*
X133867806Y-96614556D01*
X133867806Y-96614556D02*
X133302120Y-96048871D01*
X134137180Y-96345182D02*
X133571494Y-95779497D01*
X133571494Y-95779497D02*
X133706181Y-95644810D01*
X133706181Y-95644810D02*
X133813931Y-95590935D01*
X133813931Y-95590935D02*
X133921680Y-95590935D01*
X133921680Y-95590935D02*
X134002493Y-95617872D01*
X134002493Y-95617872D02*
X134137180Y-95698685D01*
X134137180Y-95698685D02*
X134217992Y-95779497D01*
X134217992Y-95779497D02*
X134298804Y-95914184D01*
X134298804Y-95914184D02*
X134325741Y-95994996D01*
X134325741Y-95994996D02*
X134325741Y-96102746D01*
X134325741Y-96102746D02*
X134271867Y-96210495D01*
X134271867Y-96210495D02*
X134137180Y-96345182D01*
X106493998Y-104530868D02*
X106413185Y-104557805D01*
X106413185Y-104557805D02*
X106332373Y-104638618D01*
X106332373Y-104638618D02*
X106278498Y-104746367D01*
X106278498Y-104746367D02*
X106278498Y-104854117D01*
X106278498Y-104854117D02*
X106305436Y-104934929D01*
X106305436Y-104934929D02*
X106386248Y-105069616D01*
X106386248Y-105069616D02*
X106467060Y-105150428D01*
X106467060Y-105150428D02*
X106601747Y-105231241D01*
X106601747Y-105231241D02*
X106682560Y-105258178D01*
X106682560Y-105258178D02*
X106790309Y-105258178D01*
X106790309Y-105258178D02*
X106898059Y-105204303D01*
X106898059Y-105204303D02*
X106951934Y-105150428D01*
X106951934Y-105150428D02*
X107005808Y-105042679D01*
X107005808Y-105042679D02*
X107005808Y-104988804D01*
X107005808Y-104988804D02*
X106817247Y-104800242D01*
X106817247Y-104800242D02*
X106709497Y-104907992D01*
X107302120Y-104800242D02*
X106736434Y-104234557D01*
X106736434Y-104234557D02*
X106951934Y-104019057D01*
X106951934Y-104019057D02*
X107032746Y-103992120D01*
X107032746Y-103992120D02*
X107086621Y-103992120D01*
X107086621Y-103992120D02*
X107167433Y-104019057D01*
X107167433Y-104019057D02*
X107248245Y-104099870D01*
X107248245Y-104099870D02*
X107275182Y-104180682D01*
X107275182Y-104180682D02*
X107275182Y-104234557D01*
X107275182Y-104234557D02*
X107248245Y-104315369D01*
X107248245Y-104315369D02*
X107032746Y-104530868D01*
X108164117Y-103938245D02*
X107840868Y-104261494D01*
X108002492Y-104099870D02*
X107436807Y-103534184D01*
X107436807Y-103534184D02*
X107463744Y-103668871D01*
X107463744Y-103668871D02*
X107463744Y-103776621D01*
X107463744Y-103776621D02*
X107436807Y-103857433D01*
X107867805Y-103210935D02*
X107867805Y-103157060D01*
X107867805Y-103157060D02*
X107894743Y-103076248D01*
X107894743Y-103076248D02*
X108029430Y-102941561D01*
X108029430Y-102941561D02*
X108110242Y-102914624D01*
X108110242Y-102914624D02*
X108164117Y-102914624D01*
X108164117Y-102914624D02*
X108244929Y-102941561D01*
X108244929Y-102941561D02*
X108298804Y-102995436D01*
X108298804Y-102995436D02*
X108352679Y-103103186D01*
X108352679Y-103103186D02*
X108352679Y-103749683D01*
X108352679Y-103749683D02*
X108702865Y-103399497D01*
X124554761Y-116694200D02*
X124669047Y-116732295D01*
X124669047Y-116732295D02*
X124859523Y-116732295D01*
X124859523Y-116732295D02*
X124935714Y-116694200D01*
X124935714Y-116694200D02*
X124973809Y-116656104D01*
X124973809Y-116656104D02*
X125011904Y-116579914D01*
X125011904Y-116579914D02*
X125011904Y-116503723D01*
X125011904Y-116503723D02*
X124973809Y-116427533D01*
X124973809Y-116427533D02*
X124935714Y-116389438D01*
X124935714Y-116389438D02*
X124859523Y-116351342D01*
X124859523Y-116351342D02*
X124707142Y-116313247D01*
X124707142Y-116313247D02*
X124630952Y-116275152D01*
X124630952Y-116275152D02*
X124592857Y-116237057D01*
X124592857Y-116237057D02*
X124554761Y-116160866D01*
X124554761Y-116160866D02*
X124554761Y-116084676D01*
X124554761Y-116084676D02*
X124592857Y-116008485D01*
X124592857Y-116008485D02*
X124630952Y-115970390D01*
X124630952Y-115970390D02*
X124707142Y-115932295D01*
X124707142Y-115932295D02*
X124897619Y-115932295D01*
X124897619Y-115932295D02*
X125011904Y-115970390D01*
X125278571Y-115932295D02*
X125469047Y-116732295D01*
X125469047Y-116732295D02*
X125621428Y-116160866D01*
X125621428Y-116160866D02*
X125773809Y-116732295D01*
X125773809Y-116732295D02*
X125964286Y-115932295D01*
X126269048Y-116732295D02*
X126269048Y-115932295D01*
X126269048Y-115932295D02*
X126459524Y-115932295D01*
X126459524Y-115932295D02*
X126573810Y-115970390D01*
X126573810Y-115970390D02*
X126650000Y-116046580D01*
X126650000Y-116046580D02*
X126688095Y-116122771D01*
X126688095Y-116122771D02*
X126726191Y-116275152D01*
X126726191Y-116275152D02*
X126726191Y-116389438D01*
X126726191Y-116389438D02*
X126688095Y-116541819D01*
X126688095Y-116541819D02*
X126650000Y-116618009D01*
X126650000Y-116618009D02*
X126573810Y-116694200D01*
X126573810Y-116694200D02*
X126459524Y-116732295D01*
X126459524Y-116732295D02*
X126269048Y-116732295D01*
X127069048Y-116732295D02*
X127069048Y-115932295D01*
X127602381Y-115932295D02*
X127754762Y-115932295D01*
X127754762Y-115932295D02*
X127830952Y-115970390D01*
X127830952Y-115970390D02*
X127907143Y-116046580D01*
X127907143Y-116046580D02*
X127945238Y-116198961D01*
X127945238Y-116198961D02*
X127945238Y-116465628D01*
X127945238Y-116465628D02*
X127907143Y-116618009D01*
X127907143Y-116618009D02*
X127830952Y-116694200D01*
X127830952Y-116694200D02*
X127754762Y-116732295D01*
X127754762Y-116732295D02*
X127602381Y-116732295D01*
X127602381Y-116732295D02*
X127526190Y-116694200D01*
X127526190Y-116694200D02*
X127450000Y-116618009D01*
X127450000Y-116618009D02*
X127411904Y-116465628D01*
X127411904Y-116465628D02*
X127411904Y-116198961D01*
X127411904Y-116198961D02*
X127450000Y-116046580D01*
X127450000Y-116046580D02*
X127526190Y-115970390D01*
X127526190Y-115970390D02*
X127602381Y-115932295D01*
X93572800Y-103441667D02*
X93525180Y-103584524D01*
X93525180Y-103584524D02*
X93525180Y-103822619D01*
X93525180Y-103822619D02*
X93572800Y-103917857D01*
X93572800Y-103917857D02*
X93620419Y-103965476D01*
X93620419Y-103965476D02*
X93715657Y-104013095D01*
X93715657Y-104013095D02*
X93810895Y-104013095D01*
X93810895Y-104013095D02*
X93906133Y-103965476D01*
X93906133Y-103965476D02*
X93953752Y-103917857D01*
X93953752Y-103917857D02*
X94001371Y-103822619D01*
X94001371Y-103822619D02*
X94048990Y-103632143D01*
X94048990Y-103632143D02*
X94096609Y-103536905D01*
X94096609Y-103536905D02*
X94144228Y-103489286D01*
X94144228Y-103489286D02*
X94239466Y-103441667D01*
X94239466Y-103441667D02*
X94334704Y-103441667D01*
X94334704Y-103441667D02*
X94429942Y-103489286D01*
X94429942Y-103489286D02*
X94477561Y-103536905D01*
X94477561Y-103536905D02*
X94525180Y-103632143D01*
X94525180Y-103632143D02*
X94525180Y-103870238D01*
X94525180Y-103870238D02*
X94477561Y-104013095D01*
X94525180Y-104346429D02*
X93525180Y-104584524D01*
X93525180Y-104584524D02*
X94239466Y-104775000D01*
X94239466Y-104775000D02*
X93525180Y-104965476D01*
X93525180Y-104965476D02*
X94525180Y-105203572D01*
X94429942Y-105536905D02*
X94477561Y-105584524D01*
X94477561Y-105584524D02*
X94525180Y-105679762D01*
X94525180Y-105679762D02*
X94525180Y-105917857D01*
X94525180Y-105917857D02*
X94477561Y-106013095D01*
X94477561Y-106013095D02*
X94429942Y-106060714D01*
X94429942Y-106060714D02*
X94334704Y-106108333D01*
X94334704Y-106108333D02*
X94239466Y-106108333D01*
X94239466Y-106108333D02*
X94096609Y-106060714D01*
X94096609Y-106060714D02*
X93525180Y-105489286D01*
X93525180Y-105489286D02*
X93525180Y-106108333D01*
X93572800Y-91376667D02*
X93525180Y-91519524D01*
X93525180Y-91519524D02*
X93525180Y-91757619D01*
X93525180Y-91757619D02*
X93572800Y-91852857D01*
X93572800Y-91852857D02*
X93620419Y-91900476D01*
X93620419Y-91900476D02*
X93715657Y-91948095D01*
X93715657Y-91948095D02*
X93810895Y-91948095D01*
X93810895Y-91948095D02*
X93906133Y-91900476D01*
X93906133Y-91900476D02*
X93953752Y-91852857D01*
X93953752Y-91852857D02*
X94001371Y-91757619D01*
X94001371Y-91757619D02*
X94048990Y-91567143D01*
X94048990Y-91567143D02*
X94096609Y-91471905D01*
X94096609Y-91471905D02*
X94144228Y-91424286D01*
X94144228Y-91424286D02*
X94239466Y-91376667D01*
X94239466Y-91376667D02*
X94334704Y-91376667D01*
X94334704Y-91376667D02*
X94429942Y-91424286D01*
X94429942Y-91424286D02*
X94477561Y-91471905D01*
X94477561Y-91471905D02*
X94525180Y-91567143D01*
X94525180Y-91567143D02*
X94525180Y-91805238D01*
X94525180Y-91805238D02*
X94477561Y-91948095D01*
X94525180Y-92281429D02*
X93525180Y-92519524D01*
X93525180Y-92519524D02*
X94239466Y-92710000D01*
X94239466Y-92710000D02*
X93525180Y-92900476D01*
X93525180Y-92900476D02*
X94525180Y-93138572D01*
X93525180Y-94043333D02*
X93525180Y-93471905D01*
X93525180Y-93757619D02*
X94525180Y-93757619D01*
X94525180Y-93757619D02*
X94382323Y-93662381D01*
X94382323Y-93662381D02*
X94287085Y-93567143D01*
X94287085Y-93567143D02*
X94239466Y-93471905D01*
X137879942Y-96434761D02*
X137927561Y-96339523D01*
X137927561Y-96339523D02*
X138022800Y-96244285D01*
X138022800Y-96244285D02*
X138165657Y-96101428D01*
X138165657Y-96101428D02*
X138213276Y-96006190D01*
X138213276Y-96006190D02*
X138213276Y-95910952D01*
X137975180Y-95958571D02*
X138022800Y-95863333D01*
X138022800Y-95863333D02*
X138118038Y-95768095D01*
X138118038Y-95768095D02*
X138308514Y-95720476D01*
X138308514Y-95720476D02*
X138641847Y-95720476D01*
X138641847Y-95720476D02*
X138832323Y-95768095D01*
X138832323Y-95768095D02*
X138927561Y-95863333D01*
X138927561Y-95863333D02*
X138975180Y-95958571D01*
X138975180Y-95958571D02*
X138975180Y-96149047D01*
X138975180Y-96149047D02*
X138927561Y-96244285D01*
X138927561Y-96244285D02*
X138832323Y-96339523D01*
X138832323Y-96339523D02*
X138641847Y-96387142D01*
X138641847Y-96387142D02*
X138308514Y-96387142D01*
X138308514Y-96387142D02*
X138118038Y-96339523D01*
X138118038Y-96339523D02*
X138022800Y-96244285D01*
X138022800Y-96244285D02*
X137975180Y-96149047D01*
X137975180Y-96149047D02*
X137975180Y-95958571D01*
X138975180Y-96720476D02*
X138975180Y-97339523D01*
X138975180Y-97339523D02*
X138594228Y-97006190D01*
X138594228Y-97006190D02*
X138594228Y-97149047D01*
X138594228Y-97149047D02*
X138546609Y-97244285D01*
X138546609Y-97244285D02*
X138498990Y-97291904D01*
X138498990Y-97291904D02*
X138403752Y-97339523D01*
X138403752Y-97339523D02*
X138165657Y-97339523D01*
X138165657Y-97339523D02*
X138070419Y-97291904D01*
X138070419Y-97291904D02*
X138022800Y-97244285D01*
X138022800Y-97244285D02*
X137975180Y-97149047D01*
X137975180Y-97149047D02*
X137975180Y-96863333D01*
X137975180Y-96863333D02*
X138022800Y-96768095D01*
X138022800Y-96768095D02*
X138070419Y-96720476D01*
X124140419Y-119213333D02*
X124092800Y-119165714D01*
X124092800Y-119165714D02*
X124045180Y-119022857D01*
X124045180Y-119022857D02*
X124045180Y-118927619D01*
X124045180Y-118927619D02*
X124092800Y-118784762D01*
X124092800Y-118784762D02*
X124188038Y-118689524D01*
X124188038Y-118689524D02*
X124283276Y-118641905D01*
X124283276Y-118641905D02*
X124473752Y-118594286D01*
X124473752Y-118594286D02*
X124616609Y-118594286D01*
X124616609Y-118594286D02*
X124807085Y-118641905D01*
X124807085Y-118641905D02*
X124902323Y-118689524D01*
X124902323Y-118689524D02*
X124997561Y-118784762D01*
X124997561Y-118784762D02*
X125045180Y-118927619D01*
X125045180Y-118927619D02*
X125045180Y-119022857D01*
X125045180Y-119022857D02*
X124997561Y-119165714D01*
X124997561Y-119165714D02*
X124949942Y-119213333D01*
X124045180Y-120165714D02*
X124045180Y-119594286D01*
X124045180Y-119880000D02*
X125045180Y-119880000D01*
X125045180Y-119880000D02*
X124902323Y-119784762D01*
X124902323Y-119784762D02*
X124807085Y-119689524D01*
X124807085Y-119689524D02*
X124759466Y-119594286D01*
X93572800Y-116141667D02*
X93525180Y-116284524D01*
X93525180Y-116284524D02*
X93525180Y-116522619D01*
X93525180Y-116522619D02*
X93572800Y-116617857D01*
X93572800Y-116617857D02*
X93620419Y-116665476D01*
X93620419Y-116665476D02*
X93715657Y-116713095D01*
X93715657Y-116713095D02*
X93810895Y-116713095D01*
X93810895Y-116713095D02*
X93906133Y-116665476D01*
X93906133Y-116665476D02*
X93953752Y-116617857D01*
X93953752Y-116617857D02*
X94001371Y-116522619D01*
X94001371Y-116522619D02*
X94048990Y-116332143D01*
X94048990Y-116332143D02*
X94096609Y-116236905D01*
X94096609Y-116236905D02*
X94144228Y-116189286D01*
X94144228Y-116189286D02*
X94239466Y-116141667D01*
X94239466Y-116141667D02*
X94334704Y-116141667D01*
X94334704Y-116141667D02*
X94429942Y-116189286D01*
X94429942Y-116189286D02*
X94477561Y-116236905D01*
X94477561Y-116236905D02*
X94525180Y-116332143D01*
X94525180Y-116332143D02*
X94525180Y-116570238D01*
X94525180Y-116570238D02*
X94477561Y-116713095D01*
X94525180Y-117046429D02*
X93525180Y-117284524D01*
X93525180Y-117284524D02*
X94239466Y-117475000D01*
X94239466Y-117475000D02*
X93525180Y-117665476D01*
X93525180Y-117665476D02*
X94525180Y-117903572D01*
X94525180Y-118189286D02*
X94525180Y-118808333D01*
X94525180Y-118808333D02*
X94144228Y-118475000D01*
X94144228Y-118475000D02*
X94144228Y-118617857D01*
X94144228Y-118617857D02*
X94096609Y-118713095D01*
X94096609Y-118713095D02*
X94048990Y-118760714D01*
X94048990Y-118760714D02*
X93953752Y-118808333D01*
X93953752Y-118808333D02*
X93715657Y-118808333D01*
X93715657Y-118808333D02*
X93620419Y-118760714D01*
X93620419Y-118760714D02*
X93572800Y-118713095D01*
X93572800Y-118713095D02*
X93525180Y-118617857D01*
X93525180Y-118617857D02*
X93525180Y-118332143D01*
X93525180Y-118332143D02*
X93572800Y-118236905D01*
X93572800Y-118236905D02*
X93620419Y-118189286D01*
X110035180Y-134024761D02*
X110511371Y-133691428D01*
X110035180Y-133453333D02*
X111035180Y-133453333D01*
X111035180Y-133453333D02*
X111035180Y-133834285D01*
X111035180Y-133834285D02*
X110987561Y-133929523D01*
X110987561Y-133929523D02*
X110939942Y-133977142D01*
X110939942Y-133977142D02*
X110844704Y-134024761D01*
X110844704Y-134024761D02*
X110701847Y-134024761D01*
X110701847Y-134024761D02*
X110606609Y-133977142D01*
X110606609Y-133977142D02*
X110558990Y-133929523D01*
X110558990Y-133929523D02*
X110511371Y-133834285D01*
X110511371Y-133834285D02*
X110511371Y-133453333D01*
X111035180Y-134310476D02*
X110035180Y-134643809D01*
X110035180Y-134643809D02*
X111035180Y-134977142D01*
X110035180Y-135834285D02*
X110035180Y-135262857D01*
X110035180Y-135548571D02*
X111035180Y-135548571D01*
X111035180Y-135548571D02*
X110892323Y-135453333D01*
X110892323Y-135453333D02*
X110797085Y-135358095D01*
X110797085Y-135358095D02*
X110749466Y-135262857D01*
D12*
G04 #@! TO.C,D1*
X102295000Y-63337500D02*
X102295000Y-63802500D01*
X102295000Y-65770000D02*
X102295000Y-66235000D01*
X102259999Y-63225170D02*
G75*
G03*
X96912186Y-63689173I-2559999J-1544830D01*
G01*
X101954478Y-63689572D02*
G75*
G03*
X97445317Y-63690000I-2254478J-1080428D01*
G01*
X97445316Y-65850000D02*
G75*
G03*
X101954479Y-65850429I2254684J1080000D01*
G01*
X96912186Y-65850827D02*
G75*
G03*
X102259999Y-66314830I2787814J1080827D01*
G01*
G04 #@! TO.C,R1*
X104140000Y-74700000D02*
X104140000Y-75470000D01*
X105510000Y-75470000D02*
X102770000Y-75470000D01*
X102770000Y-75470000D02*
X102770000Y-82010000D01*
X105510000Y-82010000D02*
X105510000Y-75470000D01*
X102770000Y-82010000D02*
X105510000Y-82010000D01*
X104140000Y-82780000D02*
X104140000Y-82010000D01*
G04 #@! TO.C,Q1*
X136580000Y-70600000D02*
X136580000Y-74200000D01*
X141030000Y-72400000D02*
G75*
G03*
X136591522Y-70561522I-2600000J0D01*
G01*
X136591522Y-74238478D02*
G75*
G03*
X141030000Y-72400000I1838478J1838478D01*
G01*
G04 #@! TO.C,R3*
X93980000Y-74700000D02*
X93980000Y-75470000D01*
X95350000Y-75470000D02*
X92610000Y-75470000D01*
X92610000Y-75470000D02*
X92610000Y-82010000D01*
X95350000Y-82010000D02*
X95350000Y-75470000D01*
X92610000Y-82010000D02*
X95350000Y-82010000D01*
X93980000Y-82780000D02*
X93980000Y-82010000D01*
G04 #@! TO.C,Q2*
X136580000Y-80760000D02*
X136580000Y-84360000D01*
X141030000Y-82560000D02*
G75*
G03*
X136591522Y-80721522I-2600000J0D01*
G01*
X136591522Y-84398478D02*
G75*
G03*
X141030000Y-82560000I1838478J1838478D01*
G01*
G04 #@! TO.C,R2*
X99060000Y-74700000D02*
X99060000Y-75470000D01*
X100430000Y-75470000D02*
X97690000Y-75470000D01*
X97690000Y-75470000D02*
X97690000Y-82010000D01*
X100430000Y-82010000D02*
X100430000Y-75470000D01*
X97690000Y-82010000D02*
X100430000Y-82010000D01*
X99060000Y-82780000D02*
X99060000Y-82010000D01*
G04 #@! TO.C,U1*
X110150000Y-64670000D02*
X110150000Y-64970000D01*
X110150000Y-64670000D02*
X131150000Y-64670000D01*
X110150000Y-67070000D02*
X110150000Y-67470000D01*
X110150000Y-67337000D02*
X113157000Y-67337000D01*
X110150000Y-69670000D02*
X110150000Y-70070000D01*
X110150000Y-72170000D02*
X110150000Y-72570000D01*
X110150000Y-74770000D02*
X110150000Y-75170000D01*
X110150000Y-77270000D02*
X110150000Y-77670000D01*
X110150000Y-79770000D02*
X110150000Y-80170000D01*
X110150000Y-82370000D02*
X110150000Y-82770000D01*
X110150000Y-84870000D02*
X110150000Y-85270000D01*
X110150000Y-87470000D02*
X110150000Y-87870000D01*
X110150000Y-89970000D02*
X110150000Y-90370000D01*
X110150000Y-92470000D02*
X110150000Y-92870000D01*
X110150000Y-95070000D02*
X110150000Y-95470000D01*
X110150000Y-97570000D02*
X110150000Y-97970000D01*
X110150000Y-100170000D02*
X110150000Y-100570000D01*
X110150000Y-102670000D02*
X110150000Y-103070000D01*
X110150000Y-105270000D02*
X110150000Y-105670000D01*
X110150000Y-107770000D02*
X110150000Y-108170000D01*
X110150000Y-110270000D02*
X110150000Y-110670000D01*
X110150000Y-112870000D02*
X110150000Y-113270000D01*
X113157000Y-67337000D02*
X113157000Y-64670000D01*
X116950000Y-115670000D02*
X110150000Y-115670000D01*
X119150000Y-115670000D02*
X119550000Y-115670000D01*
X121750000Y-115670000D02*
X122150000Y-115670000D01*
X131150000Y-64670000D02*
X131150000Y-64970000D01*
X131150000Y-67070000D02*
X131150000Y-67470000D01*
X131150000Y-69670000D02*
X131150000Y-70070000D01*
X131150000Y-72170000D02*
X131150000Y-72570000D01*
X131150000Y-74770000D02*
X131150000Y-75170000D01*
X131150000Y-77270000D02*
X131150000Y-77670000D01*
X131150000Y-79770000D02*
X131150000Y-80170000D01*
X131150000Y-82370000D02*
X131150000Y-82770000D01*
X131150000Y-84870000D02*
X131150000Y-85270000D01*
X131150000Y-87470000D02*
X131150000Y-87870000D01*
X131150000Y-89970000D02*
X131150000Y-90370000D01*
X131150000Y-92470000D02*
X131150000Y-92870000D01*
X131150000Y-95070000D02*
X131150000Y-95470000D01*
X131150000Y-97570000D02*
X131150000Y-97970000D01*
X131150000Y-100170000D02*
X131150000Y-100570000D01*
X131150000Y-102670000D02*
X131150000Y-103070000D01*
X131150000Y-105270000D02*
X131150000Y-105670000D01*
X131150000Y-107770000D02*
X131150000Y-108170000D01*
X131150000Y-110270000D02*
X131150000Y-110670000D01*
X131150000Y-112870000D02*
X131150000Y-113270000D01*
X131150000Y-115670000D02*
X124350000Y-115670000D01*
G04 #@! TO.C,SW2*
X96330000Y-105580000D02*
X96330000Y-103380000D01*
X96800000Y-107550000D02*
X102000000Y-107550000D01*
X97400000Y-101310000D02*
X101800000Y-101310000D01*
X102570000Y-103380000D02*
X102570000Y-105580000D01*
X100864214Y-104430000D02*
G75*
G03*
X100864214Y-104430000I-1414214J0D01*
G01*
G04 #@! TO.C,SW1*
X96650000Y-93570000D02*
X96650000Y-91370000D01*
X97120000Y-95540000D02*
X102320000Y-95540000D01*
X97720000Y-89300000D02*
X102120000Y-89300000D01*
X102890000Y-91370000D02*
X102890000Y-93570000D01*
X101184214Y-92420000D02*
G75*
G03*
X101184214Y-92420000I-1414214J0D01*
G01*
G04 #@! TO.C,Q3*
X136580000Y-90920000D02*
X136580000Y-94520000D01*
X141030000Y-92720000D02*
G75*
G03*
X136591522Y-90881522I-2600000J0D01*
G01*
X136591522Y-94558478D02*
G75*
G03*
X141030000Y-92720000I1838478J1838478D01*
G01*
G04 #@! TO.C,C1*
X125460000Y-118010000D02*
X125460000Y-120750000D01*
X125460000Y-118010000D02*
X133700000Y-118010000D01*
X125460000Y-120750000D02*
X133700000Y-120750000D01*
X133700000Y-118010000D02*
X133700000Y-120750000D01*
G04 #@! TO.C,SW3*
X96330000Y-118280000D02*
X96330000Y-116080000D01*
X96800000Y-120250000D02*
X102000000Y-120250000D01*
X97400000Y-114010000D02*
X101800000Y-114010000D01*
X102570000Y-116080000D02*
X102570000Y-118280000D01*
X100864214Y-117130000D02*
G75*
G03*
X100864214Y-117130000I-1414214J0D01*
G01*
G04 #@! TO.C,RV1*
X124850000Y-134601000D02*
X124850000Y-133280000D01*
X124850000Y-134601000D02*
X120913000Y-134601000D01*
X124850000Y-130830000D02*
X124850000Y-130450000D01*
X124850000Y-128709000D02*
X124850000Y-127950000D01*
X124850000Y-126210000D02*
X124850000Y-124560000D01*
X124850000Y-124560000D02*
X120913000Y-124560000D01*
X116546000Y-134601000D02*
X112610000Y-134601000D01*
X116546000Y-124560000D02*
X112610000Y-124560000D01*
X112610000Y-134601000D02*
X112610000Y-124560000D01*
G04 #@! TD*
M02*
