G04 #@! TF.GenerationSoftware,KiCad,Pcbnew,7.0.10-7.0.10~ubuntu22.04.1*
G04 #@! TF.CreationDate,2024-01-18T08:39:54+09:00*
G04 #@! TF.ProjectId,Akashi-18,416b6173-6869-42d3-9138-2e6b69636164,rev?*
G04 #@! TF.SameCoordinates,Original*
G04 #@! TF.FileFunction,Soldermask,Top*
G04 #@! TF.FilePolarity,Negative*
%FSLAX46Y46*%
G04 Gerber Fmt 4.6, Leading zero omitted, Abs format (unit mm)*
G04 Created by KiCad (PCBNEW 7.0.10-7.0.10~ubuntu22.04.1) date 2024-01-18 08:39:54*
%MOMM*%
%LPD*%
G01*
G04 APERTURE LIST*
G04 Aperture macros list*
%AMRoundRect*
0 Rectangle with rounded corners*
0 $1 Rounding radius*
0 $2 $3 $4 $5 $6 $7 $8 $9 X,Y pos of 4 corners*
0 Add a 4 corners polygon primitive as box body*
4,1,4,$2,$3,$4,$5,$6,$7,$8,$9,$2,$3,0*
0 Add four circle primitives for the rounded corners*
1,1,$1+$1,$2,$3*
1,1,$1+$1,$4,$5*
1,1,$1+$1,$6,$7*
1,1,$1+$1,$8,$9*
0 Add four rect primitives between the rounded corners*
20,1,$1+$1,$2,$3,$4,$5,0*
20,1,$1+$1,$4,$5,$6,$7,0*
20,1,$1+$1,$6,$7,$8,$9,0*
20,1,$1+$1,$8,$9,$2,$3,0*%
G04 Aperture macros list end*
%ADD10R,1.070000X1.800000*%
%ADD11O,1.070000X1.800000*%
%ADD12C,1.600000*%
%ADD13O,1.600000X1.600000*%
%ADD14R,1.500000X1.050000*%
%ADD15O,1.500000X1.050000*%
%ADD16R,1.700000X1.700000*%
%ADD17C,1.700000*%
%ADD18O,1.800000X1.800000*%
%ADD19O,1.500000X1.500000*%
%ADD20O,1.700000X1.700000*%
%ADD21R,3.500000X1.700000*%
%ADD22R,1.700000X3.500000*%
%ADD23R,1.800000X1.800000*%
%ADD24C,1.800000*%
%ADD25RoundRect,0.750000X1.250000X0.750000X-1.250000X0.750000X-1.250000X-0.750000X1.250000X-0.750000X0*%
G04 APERTURE END LIST*
D10*
G04 #@! TO.C,D1*
X97795000Y-64770000D03*
D11*
X99065000Y-64770000D03*
X100335000Y-64770000D03*
X101605000Y-64770000D03*
G04 #@! TD*
D12*
G04 #@! TO.C,R1*
X104140000Y-73660000D03*
D13*
X104140000Y-83820000D03*
G04 #@! TD*
D14*
G04 #@! TO.C,Q1*
X138430000Y-71130000D03*
D15*
X138430000Y-72400000D03*
X138430000Y-73670000D03*
G04 #@! TD*
D12*
G04 #@! TO.C,R3*
X93980000Y-73660000D03*
D13*
X93980000Y-83820000D03*
G04 #@! TD*
D14*
G04 #@! TO.C,Q2*
X138430000Y-81290000D03*
D15*
X138430000Y-82560000D03*
X138430000Y-83830000D03*
G04 #@! TD*
D16*
G04 #@! TO.C,SW4*
X132640000Y-125385000D03*
D17*
X139140000Y-125385000D03*
X132640000Y-129885000D03*
X139140000Y-129885000D03*
G04 #@! TD*
D12*
G04 #@! TO.C,R2*
X99060000Y-73660000D03*
D13*
X99060000Y-83820000D03*
G04 #@! TD*
D18*
G04 #@! TO.C,U1*
X117925000Y-66170000D03*
D19*
X118225000Y-69200000D03*
X123075000Y-69200000D03*
D18*
X123375000Y-66170000D03*
D20*
X111760000Y-66040000D03*
D21*
X110860000Y-66040000D03*
D20*
X111760000Y-68580000D03*
D21*
X110860000Y-68580000D03*
D16*
X111760000Y-71120000D03*
D21*
X110860000Y-71120000D03*
D20*
X111760000Y-73660000D03*
D21*
X110860000Y-73660000D03*
D20*
X111760000Y-76200000D03*
D21*
X110860000Y-76200000D03*
D20*
X111760000Y-78740000D03*
D21*
X110860000Y-78740000D03*
D20*
X111760000Y-81280000D03*
D21*
X110860000Y-81280000D03*
D16*
X111760000Y-83820000D03*
D21*
X110860000Y-83820000D03*
D20*
X111760000Y-86360000D03*
D21*
X110860000Y-86360000D03*
D20*
X111760000Y-88900000D03*
D21*
X110860000Y-88900000D03*
D20*
X111760000Y-91440000D03*
D21*
X110860000Y-91440000D03*
D20*
X111760000Y-93980000D03*
D21*
X110860000Y-93980000D03*
D16*
X111760000Y-96520000D03*
D21*
X110860000Y-96520000D03*
D20*
X111760000Y-99060000D03*
D21*
X110860000Y-99060000D03*
D20*
X111760000Y-101600000D03*
D21*
X110860000Y-101600000D03*
D20*
X111760000Y-104140000D03*
D21*
X110860000Y-104140000D03*
D20*
X111760000Y-106680000D03*
D21*
X110860000Y-106680000D03*
D16*
X111760000Y-109220000D03*
D21*
X110860000Y-109220000D03*
D20*
X111760000Y-111760000D03*
D21*
X110860000Y-111760000D03*
D20*
X111760000Y-114300000D03*
D21*
X110860000Y-114300000D03*
D20*
X129540000Y-114300000D03*
D21*
X130440000Y-114300000D03*
D20*
X129540000Y-111760000D03*
D21*
X130440000Y-111760000D03*
D16*
X129540000Y-109220000D03*
D21*
X130440000Y-109220000D03*
D20*
X129540000Y-106680000D03*
D21*
X130440000Y-106680000D03*
D20*
X129540000Y-104140000D03*
D21*
X130440000Y-104140000D03*
D20*
X129540000Y-101600000D03*
D21*
X130440000Y-101600000D03*
D20*
X129540000Y-99060000D03*
D21*
X130440000Y-99060000D03*
D16*
X129540000Y-96520000D03*
D21*
X130440000Y-96520000D03*
D20*
X129540000Y-93980000D03*
D21*
X130440000Y-93980000D03*
D20*
X129540000Y-91440000D03*
D21*
X130440000Y-91440000D03*
D20*
X129540000Y-88900000D03*
D21*
X130440000Y-88900000D03*
D20*
X129540000Y-86360000D03*
D21*
X130440000Y-86360000D03*
D16*
X129540000Y-83820000D03*
D21*
X130440000Y-83820000D03*
D20*
X129540000Y-81280000D03*
D21*
X130440000Y-81280000D03*
D20*
X129540000Y-78740000D03*
D21*
X130440000Y-78740000D03*
D20*
X129540000Y-76200000D03*
D21*
X130440000Y-76200000D03*
D20*
X129540000Y-73660000D03*
D21*
X130440000Y-73660000D03*
D16*
X129540000Y-71120000D03*
D21*
X130440000Y-71120000D03*
D20*
X129540000Y-68580000D03*
D21*
X130440000Y-68580000D03*
D20*
X129540000Y-66040000D03*
D21*
X130440000Y-66040000D03*
D20*
X118110000Y-114070000D03*
D22*
X118110000Y-114970000D03*
D16*
X120650000Y-114070000D03*
D22*
X120650000Y-114970000D03*
D20*
X123190000Y-114070000D03*
D22*
X123190000Y-114970000D03*
G04 #@! TD*
D16*
G04 #@! TO.C,SW2*
X96200000Y-102180000D03*
D17*
X102700000Y-102180000D03*
X96200000Y-106680000D03*
X102700000Y-106680000D03*
G04 #@! TD*
D16*
G04 #@! TO.C,SW1*
X96520000Y-90170000D03*
D17*
X103020000Y-90170000D03*
X96520000Y-94670000D03*
X103020000Y-94670000D03*
G04 #@! TD*
D14*
G04 #@! TO.C,Q3*
X138430000Y-91450000D03*
D15*
X138430000Y-92720000D03*
X138430000Y-93990000D03*
G04 #@! TD*
D12*
G04 #@! TO.C,C1*
X127080000Y-119380000D03*
X132080000Y-119380000D03*
G04 #@! TD*
D16*
G04 #@! TO.C,SW3*
X96200000Y-114880000D03*
D17*
X102700000Y-114880000D03*
X96200000Y-119380000D03*
X102700000Y-119380000D03*
G04 #@! TD*
D23*
G04 #@! TO.C,RV1*
X125730000Y-132080000D03*
D24*
X125730000Y-129580000D03*
X125730000Y-127080000D03*
D25*
X118730000Y-133980000D03*
X118730000Y-125180000D03*
G04 #@! TD*
M02*
