G04 #@! TF.GenerationSoftware,KiCad,Pcbnew,7.0.10-7.0.10~ubuntu22.04.1*
G04 #@! TF.CreationDate,2024-01-18T08:39:54+09:00*
G04 #@! TF.ProjectId,Akashi-18,416b6173-6869-42d3-9138-2e6b69636164,rev?*
G04 #@! TF.SameCoordinates,Original*
G04 #@! TF.FileFunction,Legend,Bot*
G04 #@! TF.FilePolarity,Positive*
%FSLAX46Y46*%
G04 Gerber Fmt 4.6, Leading zero omitted, Abs format (unit mm)*
G04 Created by KiCad (PCBNEW 7.0.10-7.0.10~ubuntu22.04.1) date 2024-01-18 08:39:54*
%MOMM*%
%LPD*%
G01*
G04 APERTURE LIST*
%ADD10C,0.300000*%
G04 APERTURE END LIST*
D10*
X123389171Y-97870489D02*
X124889171Y-97870489D01*
X124889171Y-97870489D02*
X124889171Y-97299060D01*
X124889171Y-97299060D02*
X124817742Y-97156203D01*
X124817742Y-97156203D02*
X124746314Y-97084774D01*
X124746314Y-97084774D02*
X124603457Y-97013346D01*
X124603457Y-97013346D02*
X124389171Y-97013346D01*
X124389171Y-97013346D02*
X124246314Y-97084774D01*
X124246314Y-97084774D02*
X124174885Y-97156203D01*
X124174885Y-97156203D02*
X124103457Y-97299060D01*
X124103457Y-97299060D02*
X124103457Y-97870489D01*
X123389171Y-96370489D02*
X124389171Y-96370489D01*
X124889171Y-96370489D02*
X124817742Y-96441917D01*
X124817742Y-96441917D02*
X124746314Y-96370489D01*
X124746314Y-96370489D02*
X124817742Y-96299060D01*
X124817742Y-96299060D02*
X124889171Y-96370489D01*
X124889171Y-96370489D02*
X124746314Y-96370489D01*
X123460600Y-95013346D02*
X123389171Y-95156203D01*
X123389171Y-95156203D02*
X123389171Y-95441917D01*
X123389171Y-95441917D02*
X123460600Y-95584774D01*
X123460600Y-95584774D02*
X123532028Y-95656203D01*
X123532028Y-95656203D02*
X123674885Y-95727631D01*
X123674885Y-95727631D02*
X124103457Y-95727631D01*
X124103457Y-95727631D02*
X124246314Y-95656203D01*
X124246314Y-95656203D02*
X124317742Y-95584774D01*
X124317742Y-95584774D02*
X124389171Y-95441917D01*
X124389171Y-95441917D02*
X124389171Y-95156203D01*
X124389171Y-95156203D02*
X124317742Y-95013346D01*
X123389171Y-94156203D02*
X123460600Y-94299060D01*
X123460600Y-94299060D02*
X123532028Y-94370489D01*
X123532028Y-94370489D02*
X123674885Y-94441917D01*
X123674885Y-94441917D02*
X124103457Y-94441917D01*
X124103457Y-94441917D02*
X124246314Y-94370489D01*
X124246314Y-94370489D02*
X124317742Y-94299060D01*
X124317742Y-94299060D02*
X124389171Y-94156203D01*
X124389171Y-94156203D02*
X124389171Y-93941917D01*
X124389171Y-93941917D02*
X124317742Y-93799060D01*
X124317742Y-93799060D02*
X124246314Y-93727632D01*
X124246314Y-93727632D02*
X124103457Y-93656203D01*
X124103457Y-93656203D02*
X123674885Y-93656203D01*
X123674885Y-93656203D02*
X123532028Y-93727632D01*
X123532028Y-93727632D02*
X123460600Y-93799060D01*
X123460600Y-93799060D02*
X123389171Y-93941917D01*
X123389171Y-93941917D02*
X123389171Y-94156203D01*
X124889171Y-92084774D02*
X124889171Y-91227632D01*
X123389171Y-91656203D02*
X124889171Y-91656203D01*
X123389171Y-90727632D02*
X124389171Y-90727632D01*
X124103457Y-90727632D02*
X124246314Y-90656203D01*
X124246314Y-90656203D02*
X124317742Y-90584775D01*
X124317742Y-90584775D02*
X124389171Y-90441917D01*
X124389171Y-90441917D02*
X124389171Y-90299060D01*
X123389171Y-89156204D02*
X124174885Y-89156204D01*
X124174885Y-89156204D02*
X124317742Y-89227632D01*
X124317742Y-89227632D02*
X124389171Y-89370489D01*
X124389171Y-89370489D02*
X124389171Y-89656204D01*
X124389171Y-89656204D02*
X124317742Y-89799061D01*
X123460600Y-89156204D02*
X123389171Y-89299061D01*
X123389171Y-89299061D02*
X123389171Y-89656204D01*
X123389171Y-89656204D02*
X123460600Y-89799061D01*
X123460600Y-89799061D02*
X123603457Y-89870489D01*
X123603457Y-89870489D02*
X123746314Y-89870489D01*
X123746314Y-89870489D02*
X123889171Y-89799061D01*
X123889171Y-89799061D02*
X123960600Y-89656204D01*
X123960600Y-89656204D02*
X123960600Y-89299061D01*
X123960600Y-89299061D02*
X124032028Y-89156204D01*
X123389171Y-88441918D02*
X124389171Y-88441918D01*
X124889171Y-88441918D02*
X124817742Y-88513346D01*
X124817742Y-88513346D02*
X124746314Y-88441918D01*
X124746314Y-88441918D02*
X124817742Y-88370489D01*
X124817742Y-88370489D02*
X124889171Y-88441918D01*
X124889171Y-88441918D02*
X124746314Y-88441918D01*
X124389171Y-87727632D02*
X123389171Y-87727632D01*
X124246314Y-87727632D02*
X124317742Y-87656203D01*
X124317742Y-87656203D02*
X124389171Y-87513346D01*
X124389171Y-87513346D02*
X124389171Y-87299060D01*
X124389171Y-87299060D02*
X124317742Y-87156203D01*
X124317742Y-87156203D02*
X124174885Y-87084775D01*
X124174885Y-87084775D02*
X123389171Y-87084775D01*
X123460600Y-85799060D02*
X123389171Y-85941917D01*
X123389171Y-85941917D02*
X123389171Y-86227632D01*
X123389171Y-86227632D02*
X123460600Y-86370489D01*
X123460600Y-86370489D02*
X123603457Y-86441917D01*
X123603457Y-86441917D02*
X124174885Y-86441917D01*
X124174885Y-86441917D02*
X124317742Y-86370489D01*
X124317742Y-86370489D02*
X124389171Y-86227632D01*
X124389171Y-86227632D02*
X124389171Y-85941917D01*
X124389171Y-85941917D02*
X124317742Y-85799060D01*
X124317742Y-85799060D02*
X124174885Y-85727632D01*
X124174885Y-85727632D02*
X124032028Y-85727632D01*
X124032028Y-85727632D02*
X123889171Y-86441917D01*
X123389171Y-85084775D02*
X124389171Y-85084775D01*
X124103457Y-85084775D02*
X124246314Y-85013346D01*
X124246314Y-85013346D02*
X124317742Y-84941918D01*
X124317742Y-84941918D02*
X124389171Y-84799060D01*
X124389171Y-84799060D02*
X124389171Y-84656203D01*
M02*
